solid CATIA STL
  facet normal  0.000000e+000  -0.000000e+000  1.000000e+000
    outer loop
      vertex -3.000000e+000  4.500000e+000  7.000000e+000
      vertex -2.750000e+000  1.558012e-015  7.000000e+000
      vertex -2.224797e+000  1.616409e+000  7.000000e+000
    endloop
  endfacet
  facet normal  0.000000e+000  -0.000000e+000  1.000000e+000
    outer loop
      vertex -3.000000e+000  4.500000e+000  7.000000e+000
      vertex -2.224797e+000  1.616409e+000  7.000000e+000
      vertex -8.497967e-001  2.615405e+000  7.000000e+000
    endloop
  endfacet
  facet normal  0.000000e+000  -0.000000e+000  1.000000e+000
    outer loop
      vertex -3.000000e+000  4.500000e+000  7.000000e+000
      vertex -8.497967e-001  2.615405e+000  7.000000e+000
      vertex  8.497967e-001  2.615405e+000  7.000000e+000
    endloop
  endfacet
  facet normal  0.000000e+000  -0.000000e+000  1.000000e+000
    outer loop
      vertex -3.000000e+000  4.500000e+000  7.000000e+000
      vertex  8.497967e-001  2.615405e+000  7.000000e+000
      vertex  3.000000e+000  4.500000e+000  7.000000e+000
    endloop
  endfacet
  facet normal  0.000000e+000  0.000000e+000  1.000000e+000
    outer loop
      vertex  3.000000e+000 -4.500000e+000  7.000000e+000
      vertex  2.750000e+000  0.000000e+000  7.000000e+000
      vertex  2.224797e+000 -1.616409e+000  7.000000e+000
    endloop
  endfacet
  facet normal  0.000000e+000  0.000000e+000  1.000000e+000
    outer loop
      vertex  3.000000e+000 -4.500000e+000  7.000000e+000
      vertex  2.224797e+000 -1.616409e+000  7.000000e+000
      vertex  8.497967e-001 -2.615405e+000  7.000000e+000
    endloop
  endfacet
  facet normal  0.000000e+000  0.000000e+000  1.000000e+000
    outer loop
      vertex  3.000000e+000 -4.500000e+000  7.000000e+000
      vertex  8.497967e-001 -2.615405e+000  7.000000e+000
      vertex -8.497967e-001 -2.615405e+000  7.000000e+000
    endloop
  endfacet
  facet normal  0.000000e+000  0.000000e+000  1.000000e+000
    outer loop
      vertex  3.000000e+000 -4.500000e+000  7.000000e+000
      vertex -8.497967e-001 -2.615405e+000  7.000000e+000
      vertex -3.000000e+000 -4.500000e+000  7.000000e+000
    endloop
  endfacet
  facet normal  0.000000e+000  0.000000e+000  1.000000e+000
    outer loop
      vertex -3.000000e+000 -4.500000e+000  7.000000e+000
      vertex -8.497967e-001 -2.615405e+000  7.000000e+000
      vertex -2.224797e+000 -1.616409e+000  7.000000e+000
    endloop
  endfacet
  facet normal  0.000000e+000  0.000000e+000  1.000000e+000
    outer loop
      vertex -3.000000e+000 -4.500000e+000  7.000000e+000
      vertex -2.224797e+000 -1.616409e+000  7.000000e+000
      vertex -2.750000e+000  1.558012e-015  7.000000e+000
    endloop
  endfacet
  facet normal  0.000000e+000  0.000000e+000  1.000000e+000
    outer loop
      vertex -3.000000e+000 -4.500000e+000  7.000000e+000
      vertex -2.750000e+000  1.558012e-015  7.000000e+000
      vertex -3.000000e+000  4.500000e+000  7.000000e+000
    endloop
  endfacet
  facet normal  -0.000000e+000  0.000000e+000  1.000000e+000
    outer loop
      vertex  3.000000e+000  4.500000e+000  7.000000e+000
      vertex  8.497967e-001  2.615405e+000  7.000000e+000
      vertex  2.224797e+000  1.616409e+000  7.000000e+000
    endloop
  endfacet
  facet normal  -0.000000e+000  0.000000e+000  1.000000e+000
    outer loop
      vertex  3.000000e+000  4.500000e+000  7.000000e+000
      vertex  2.224797e+000  1.616409e+000  7.000000e+000
      vertex  2.750000e+000  0.000000e+000  7.000000e+000
    endloop
  endfacet
  facet normal  -0.000000e+000  0.000000e+000  1.000000e+000
    outer loop
      vertex  3.000000e+000  4.500000e+000  7.000000e+000
      vertex  2.750000e+000  0.000000e+000  7.000000e+000
      vertex  3.000000e+000 -4.500000e+000  7.000000e+000
    endloop
  endfacet
  facet normal  9.510565e-001 -3.090170e-001  0.000000e+000
    outer loop
      vertex  2.750000e+000  0.000000e+000  7.000000e+000
      vertex  2.750000e+000  0.000000e+000  1.000000e+001
      vertex  2.224797e+000 -1.616409e+000  7.000000e+000
    endloop
  endfacet
  facet normal  9.510565e-001 -3.090170e-001  0.000000e+000
    outer loop
      vertex  2.224797e+000 -1.616409e+000  7.000000e+000
      vertex  2.750000e+000  0.000000e+000  1.000000e+001
      vertex  2.224797e+000 -1.616409e+000  1.000000e+001
    endloop
  endfacet
  facet normal  5.877852e-001 -8.090171e-001  0.000000e+000
    outer loop
      vertex  2.224797e+000 -1.616409e+000  7.000000e+000
      vertex  2.224797e+000 -1.616409e+000  1.000000e+001
      vertex  8.497967e-001 -2.615405e+000  7.000000e+000
    endloop
  endfacet
  facet normal  5.877852e-001 -8.090171e-001  0.000000e+000
    outer loop
      vertex  8.497967e-001 -2.615405e+000  7.000000e+000
      vertex  2.224797e+000 -1.616409e+000  1.000000e+001
      vertex  8.497967e-001 -2.615405e+000  1.000000e+001
    endloop
  endfacet
  facet normal  0.000000e+000 -1.000000e+000  -0.000000e+000
    outer loop
      vertex  8.497967e-001 -2.615405e+000  7.000000e+000
      vertex  8.497967e-001 -2.615405e+000  1.000000e+001
      vertex -8.497967e-001 -2.615405e+000  7.000000e+000
    endloop
  endfacet
  facet normal  0.000000e+000 -1.000000e+000  0.000000e+000
    outer loop
      vertex -8.497967e-001 -2.615405e+000  7.000000e+000
      vertex  8.497967e-001 -2.615405e+000  1.000000e+001
      vertex -8.497967e-001 -2.615405e+000  1.000000e+001
    endloop
  endfacet
  facet normal -5.877852e-001 -8.090171e-001  -0.000000e+000
    outer loop
      vertex -8.497967e-001 -2.615405e+000  7.000000e+000
      vertex -8.497967e-001 -2.615405e+000  1.000000e+001
      vertex -2.224797e+000 -1.616409e+000  7.000000e+000
    endloop
  endfacet
  facet normal -5.877852e-001 -8.090171e-001  0.000000e+000
    outer loop
      vertex -2.224797e+000 -1.616409e+000  7.000000e+000
      vertex -8.497967e-001 -2.615405e+000  1.000000e+001
      vertex -2.224797e+000 -1.616409e+000  1.000000e+001
    endloop
  endfacet
  facet normal -9.510565e-001 -3.090170e-001  -0.000000e+000
    outer loop
      vertex -2.224797e+000 -1.616409e+000  7.000000e+000
      vertex -2.224797e+000 -1.616409e+000  1.000000e+001
      vertex -2.750000e+000  1.558012e-015  7.000000e+000
    endloop
  endfacet
  facet normal -9.510565e-001 -3.090170e-001  0.000000e+000
    outer loop
      vertex -2.750000e+000  1.558012e-015  7.000000e+000
      vertex -2.224797e+000 -1.616409e+000  1.000000e+001
      vertex -2.750000e+000  1.558012e-015  1.000000e+001
    endloop
  endfacet
  facet normal -9.510565e-001  3.090170e-001  0.000000e+000
    outer loop
      vertex -2.750000e+000  1.558012e-015  7.000000e+000
      vertex -2.750000e+000  1.558012e-015  1.000000e+001
      vertex -2.224797e+000  1.616409e+000  7.000000e+000
    endloop
  endfacet
  facet normal -9.510565e-001  3.090170e-001  0.000000e+000
    outer loop
      vertex -2.224797e+000  1.616409e+000  7.000000e+000
      vertex -2.750000e+000  1.558012e-015  1.000000e+001
      vertex -2.224797e+000  1.616409e+000  1.000000e+001
    endloop
  endfacet
  facet normal -5.877852e-001  8.090171e-001  0.000000e+000
    outer loop
      vertex -2.224797e+000  1.616409e+000  7.000000e+000
      vertex -2.224797e+000  1.616409e+000  1.000000e+001
      vertex -8.497967e-001  2.615405e+000  7.000000e+000
    endloop
  endfacet
  facet normal -5.877852e-001  8.090171e-001  0.000000e+000
    outer loop
      vertex -8.497967e-001  2.615405e+000  7.000000e+000
      vertex -2.224797e+000  1.616409e+000  1.000000e+001
      vertex -8.497967e-001  2.615405e+000  1.000000e+001
    endloop
  endfacet
  facet normal  0.000000e+000  1.000000e+000  0.000000e+000
    outer loop
      vertex -8.497967e-001  2.615405e+000  7.000000e+000
      vertex -8.497967e-001  2.615405e+000  1.000000e+001
      vertex  8.497967e-001  2.615405e+000  7.000000e+000
    endloop
  endfacet
  facet normal  0.000000e+000  1.000000e+000  -0.000000e+000
    outer loop
      vertex  8.497967e-001  2.615405e+000  7.000000e+000
      vertex -8.497967e-001  2.615405e+000  1.000000e+001
      vertex  8.497967e-001  2.615405e+000  1.000000e+001
    endloop
  endfacet
  facet normal  5.877852e-001  8.090171e-001  0.000000e+000
    outer loop
      vertex  8.497967e-001  2.615405e+000  7.000000e+000
      vertex  8.497967e-001  2.615405e+000  1.000000e+001
      vertex  2.224797e+000  1.616409e+000  7.000000e+000
    endloop
  endfacet
  facet normal  5.877852e-001  8.090171e-001  -0.000000e+000
    outer loop
      vertex  2.224797e+000  1.616409e+000  7.000000e+000
      vertex  8.497967e-001  2.615405e+000  1.000000e+001
      vertex  2.224797e+000  1.616409e+000  1.000000e+001
    endloop
  endfacet
  facet normal  9.510565e-001  3.090170e-001  0.000000e+000
    outer loop
      vertex  2.224797e+000  1.616409e+000  7.000000e+000
      vertex  2.224797e+000  1.616409e+000  1.000000e+001
      vertex  2.750000e+000  0.000000e+000  7.000000e+000
    endloop
  endfacet
  facet normal  9.510565e-001  3.090170e-001  -0.000000e+000
    outer loop
      vertex  2.750000e+000  0.000000e+000  7.000000e+000
      vertex  2.224797e+000  1.616409e+000  1.000000e+001
      vertex  2.750000e+000  0.000000e+000  1.000000e+001
    endloop
  endfacet
  facet normal  -0.000000e+000  0.000000e+000  9.999999e-001
    outer loop
      vertex  8.497967e-001  2.615405e+000  1.000000e+001
      vertex -8.497967e-001  2.615405e+000  1.000000e+001
      vertex  2.224797e+000  1.616409e+000  1.000000e+001
    endloop
  endfacet
  facet normal  0.000000e+000  0.000000e+000  1.000000e+000
    outer loop
      vertex  2.224797e+000  1.616409e+000  1.000000e+001
      vertex -8.497967e-001  2.615405e+000  1.000000e+001
      vertex -2.224797e+000  1.616409e+000  1.000000e+001
    endloop
  endfacet
  facet normal  -0.000000e+000  0.000000e+000  1.000000e+000
    outer loop
      vertex  2.224797e+000  1.616409e+000  1.000000e+001
      vertex -2.224797e+000  1.616409e+000  1.000000e+001
      vertex  2.750000e+000  0.000000e+000  1.000000e+001
    endloop
  endfacet
  facet normal  0.000000e+000  0.000000e+000  1.000000e+000
    outer loop
      vertex  2.750000e+000  0.000000e+000  1.000000e+001
      vertex -2.224797e+000  1.616409e+000  1.000000e+001
      vertex -2.750000e+000  1.558012e-015  1.000000e+001
    endloop
  endfacet
  facet normal  0.000000e+000  0.000000e+000  1.000000e+000
    outer loop
      vertex  2.750000e+000  0.000000e+000  1.000000e+001
      vertex -2.750000e+000  1.558012e-015  1.000000e+001
      vertex  2.224797e+000 -1.616409e+000  1.000000e+001
    endloop
  endfacet
  facet normal  0.000000e+000  0.000000e+000  1.000000e+000
    outer loop
      vertex  2.224797e+000 -1.616409e+000  1.000000e+001
      vertex -2.750000e+000  1.558012e-015  1.000000e+001
      vertex -2.224797e+000 -1.616409e+000  1.000000e+001
    endloop
  endfacet
  facet normal  -0.000000e+000  0.000000e+000  1.000000e+000
    outer loop
      vertex  2.224797e+000 -1.616409e+000  1.000000e+001
      vertex -2.224797e+000 -1.616409e+000  1.000000e+001
      vertex  8.497967e-001 -2.615405e+000  1.000000e+001
    endloop
  endfacet
  facet normal  0.000000e+000  0.000000e+000  9.999999e-001
    outer loop
      vertex  8.497967e-001 -2.615405e+000  1.000000e+001
      vertex -2.224797e+000 -1.616409e+000  1.000000e+001
      vertex -8.497967e-001 -2.615405e+000  1.000000e+001
    endloop
  endfacet
  facet normal  0.000000e+000  0.000000e+000 -1.000000e+000
    outer loop
      vertex -4.500000e+000 -6.000000e+000  0.000000e+000
      vertex -4.500000e+000  6.000000e+000  0.000000e+000
      vertex  4.500000e+000 -6.000000e+000  0.000000e+000
    endloop
  endfacet
  facet normal  0.000000e+000  0.000000e+000 -1.000000e+000
    outer loop
      vertex  4.500000e+000 -6.000000e+000  0.000000e+000
      vertex -4.500000e+000  6.000000e+000  0.000000e+000
      vertex  4.500000e+000  6.000000e+000  0.000000e+000
    endloop
  endfacet
  facet normal  9.778024e-001  0.000000e+000  2.095291e-001
    outer loop
      vertex  4.500000e+000 -6.000000e+000  0.000000e+000
      vertex  4.500000e+000  6.000000e+000  0.000000e+000
      vertex  3.000000e+000 -4.500000e+000  7.000000e+000
    endloop
  endfacet
  facet normal  9.778025e-001  -0.000000e+000  2.095291e-001
    outer loop
      vertex  3.000000e+000 -4.500000e+000  7.000000e+000
      vertex  4.500000e+000  6.000000e+000  0.000000e+000
      vertex  3.000000e+000  4.500000e+000  7.000000e+000
    endloop
  endfacet
  facet normal  0.000000e+000 -9.778025e-001  2.095291e-001
    outer loop
      vertex  4.500000e+000 -6.000000e+000  0.000000e+000
      vertex  3.000000e+000 -4.500000e+000  7.000000e+000
      vertex -4.500000e+000 -6.000000e+000  0.000000e+000
    endloop
  endfacet
  facet normal  0.000000e+000 -9.778024e-001  2.095291e-001
    outer loop
      vertex -4.500000e+000 -6.000000e+000  0.000000e+000
      vertex  3.000000e+000 -4.500000e+000  7.000000e+000
      vertex -3.000000e+000 -4.500000e+000  7.000000e+000
    endloop
  endfacet
  facet normal -9.778024e-001  0.000000e+000  2.095291e-001
    outer loop
      vertex -4.500000e+000  6.000000e+000  0.000000e+000
      vertex -4.500000e+000 -6.000000e+000  0.000000e+000
      vertex -3.000000e+000  4.500000e+000  7.000000e+000
    endloop
  endfacet
  facet normal -9.778025e-001  0.000000e+000  2.095291e-001
    outer loop
      vertex -3.000000e+000  4.500000e+000  7.000000e+000
      vertex -4.500000e+000 -6.000000e+000  0.000000e+000
      vertex -3.000000e+000 -4.500000e+000  7.000000e+000
    endloop
  endfacet
  facet normal  0.000000e+000  9.778025e-001  2.095291e-001
    outer loop
      vertex -4.500000e+000  6.000000e+000  0.000000e+000
      vertex -3.000000e+000  4.500000e+000  7.000000e+000
      vertex  4.500000e+000  6.000000e+000  0.000000e+000
    endloop
  endfacet
  facet normal  0.000000e+000  9.778024e-001  2.095291e-001
    outer loop
      vertex  4.500000e+000  6.000000e+000  0.000000e+000
      vertex -3.000000e+000  4.500000e+000  7.000000e+000
      vertex  3.000000e+000  4.500000e+000  7.000000e+000
    endloop
  endfacet
endsolid CATIA STL
