solid CATIA STL
  facet normal  0.000000e+000  1.000000e+000  0.000000e+000
    outer loop
      vertex -2.976777e+001  0.000000e+000  1.172678e+002
      vertex -2.800000e+001  0.000000e+000  1.270000e+002
      vertex -2.800000e+001  0.000000e+000  1.180000e+002
    endloop
  endfacet
  facet normal  0.000000e+000  1.000000e+000  -0.000000e+000
    outer loop
      vertex  0.000000e+000  0.000000e+000  1.350000e+002
      vertex  0.000000e+000  0.000000e+000  1.100000e+002
      vertex -2.800000e+001  0.000000e+000  1.180000e+002
    endloop
  endfacet
  facet normal  0.000000e+000  1.000000e+000  0.000000e+000
    outer loop
      vertex  0.000000e+000  0.000000e+000  1.350000e+002
      vertex -2.800000e+001  0.000000e+000  1.180000e+002
      vertex -2.800000e+001  0.000000e+000  1.270000e+002
    endloop
  endfacet
  facet normal  0.000000e+000  1.000000e+000  0.000000e+000
    outer loop
      vertex  0.000000e+000  0.000000e+000  1.350000e+002
      vertex -2.800000e+001  0.000000e+000  1.270000e+002
      vertex -2.623223e+001  0.000000e+000  1.277322e+002
    endloop
  endfacet
  facet normal  0.000000e+000  1.000000e+000  0.000000e+000
    outer loop
      vertex  0.000000e+000  0.000000e+000  1.350000e+002
      vertex -2.623223e+001  0.000000e+000  1.277322e+002
      vertex -2.550000e+001  0.000000e+000  1.295000e+002
    endloop
  endfacet
  facet normal  0.000000e+000  1.000000e+000  -0.000000e+000
    outer loop
      vertex  0.000000e+000  0.000000e+000  1.350000e+002
      vertex -2.550000e+001  0.000000e+000  1.295000e+002
      vertex -2.623223e+001  0.000000e+000  1.312678e+002
    endloop
  endfacet
  facet normal  0.000000e+000  9.999999e-001  -0.000000e+000
    outer loop
      vertex  0.000000e+000  0.000000e+000  1.350000e+002
      vertex -2.623223e+001  0.000000e+000  1.312678e+002
      vertex -2.800000e+001  0.000000e+000  1.320000e+002
    endloop
  endfacet
  facet normal  0.000000e+000  1.000000e+000  -0.000000e+000
    outer loop
      vertex  0.000000e+000  0.000000e+000  1.350000e+002
      vertex -2.800000e+001  0.000000e+000  1.320000e+002
      vertex -3.500000e+001  0.000000e+000  1.350000e+002
    endloop
  endfacet
  facet normal  0.000000e+000  1.000000e+000  0.000000e+000
    outer loop
      vertex  0.000000e+000  0.000000e+000  1.100000e+002
      vertex -3.500000e+001  0.000000e+000  1.100000e+002
      vertex -2.800000e+001  0.000000e+000  1.130000e+002
    endloop
  endfacet
  facet normal  -0.000000e+000  1.000000e+000  0.000000e+000
    outer loop
      vertex  0.000000e+000  0.000000e+000  1.100000e+002
      vertex -2.800000e+001  0.000000e+000  1.130000e+002
      vertex -2.623223e+001  0.000000e+000  1.137322e+002
    endloop
  endfacet
  facet normal  -0.000000e+000  1.000000e+000  0.000000e+000
    outer loop
      vertex  0.000000e+000  0.000000e+000  1.100000e+002
      vertex -2.623223e+001  0.000000e+000  1.137322e+002
      vertex -2.550000e+001  0.000000e+000  1.155000e+002
    endloop
  endfacet
  facet normal  -0.000000e+000  1.000000e+000  -0.000000e+000
    outer loop
      vertex  0.000000e+000  0.000000e+000  1.100000e+002
      vertex -2.550000e+001  0.000000e+000  1.155000e+002
      vertex -2.623223e+001  0.000000e+000  1.172678e+002
    endloop
  endfacet
  facet normal  -0.000000e+000  1.000000e+000  -0.000000e+000
    outer loop
      vertex  0.000000e+000  0.000000e+000  1.100000e+002
      vertex -2.623223e+001  0.000000e+000  1.172678e+002
      vertex -2.800000e+001  0.000000e+000  1.180000e+002
    endloop
  endfacet
  facet normal  0.000000e+000  9.999999e-001  0.000000e+000
    outer loop
      vertex -3.500000e+001  0.000000e+000  1.100000e+002
      vertex -3.050000e+001  0.000000e+000  1.295000e+002
      vertex -2.976777e+001  0.000000e+000  1.277322e+002
    endloop
  endfacet
  facet normal  0.000000e+000  1.000000e+000  0.000000e+000
    outer loop
      vertex -3.500000e+001  0.000000e+000  1.100000e+002
      vertex -2.976777e+001  0.000000e+000  1.277322e+002
      vertex -2.800000e+001  0.000000e+000  1.270000e+002
    endloop
  endfacet
  facet normal  0.000000e+000  1.000000e+000  0.000000e+000
    outer loop
      vertex -3.500000e+001  0.000000e+000  1.100000e+002
      vertex -2.800000e+001  0.000000e+000  1.270000e+002
      vertex -2.976777e+001  0.000000e+000  1.172678e+002
    endloop
  endfacet
  facet normal  0.000000e+000  1.000000e+000  0.000000e+000
    outer loop
      vertex -3.500000e+001  0.000000e+000  1.100000e+002
      vertex -2.976777e+001  0.000000e+000  1.172678e+002
      vertex -3.050000e+001  0.000000e+000  1.155000e+002
    endloop
  endfacet
  facet normal  0.000000e+000  1.000000e+000  0.000000e+000
    outer loop
      vertex -3.500000e+001  0.000000e+000  1.100000e+002
      vertex -3.050000e+001  0.000000e+000  1.155000e+002
      vertex -2.976777e+001  0.000000e+000  1.137322e+002
    endloop
  endfacet
  facet normal  0.000000e+000  1.000000e+000  0.000000e+000
    outer loop
      vertex -3.500000e+001  0.000000e+000  1.100000e+002
      vertex -2.976777e+001  0.000000e+000  1.137322e+002
      vertex -2.800000e+001  0.000000e+000  1.130000e+002
    endloop
  endfacet
  facet normal  0.000000e+000  9.999999e-001  0.000000e+000
    outer loop
      vertex -3.500000e+001  0.000000e+000  1.350000e+002
      vertex -2.800000e+001  0.000000e+000  1.320000e+002
      vertex -2.976777e+001  0.000000e+000  1.312678e+002
    endloop
  endfacet
  facet normal  0.000000e+000  1.000000e+000  0.000000e+000
    outer loop
      vertex -3.500000e+001  0.000000e+000  1.350000e+002
      vertex -2.976777e+001  0.000000e+000  1.312678e+002
      vertex -3.050000e+001  0.000000e+000  1.295000e+002
    endloop
  endfacet
  facet normal  0.000000e+000  1.000000e+000  0.000000e+000
    outer loop
      vertex -3.500000e+001  0.000000e+000  1.350000e+002
      vertex -3.050000e+001  0.000000e+000  1.295000e+002
      vertex -3.500000e+001  0.000000e+000  1.100000e+002
    endloop
  endfacet
  facet normal  0.000000e+000 -9.999999e-001  0.000000e+000
    outer loop
      vertex  0.000000e+000 -5.000000e+000  1.350000e+002
      vertex -2.800000e+001 -5.000000e+000  1.320000e+002
      vertex -2.623223e+001 -5.000000e+000  1.312678e+002
    endloop
  endfacet
  facet normal  0.000000e+000 -1.000000e+000  0.000000e+000
    outer loop
      vertex  0.000000e+000 -5.000000e+000  1.350000e+002
      vertex -2.623223e+001 -5.000000e+000  1.312678e+002
      vertex -2.550000e+001 -5.000000e+000  1.295000e+002
    endloop
  endfacet
  facet normal  0.000000e+000 -1.000000e+000  0.000000e+000
    outer loop
      vertex  0.000000e+000 -5.000000e+000  1.350000e+002
      vertex -2.550000e+001 -5.000000e+000  1.295000e+002
      vertex -9.500000e+000 -5.000000e+000  1.170000e+002
    endloop
  endfacet
  facet normal  0.000000e+000 -1.000000e+000  0.000000e+000
    outer loop
      vertex  0.000000e+000 -5.000000e+000  1.350000e+002
      vertex -9.500000e+000 -5.000000e+000  1.170000e+002
      vertex  0.000000e+000 -5.000000e+000  1.170000e+002
    endloop
  endfacet
  facet normal  0.000000e+000 -1.000000e+000  0.000000e+000
    outer loop
      vertex -3.500000e+001 -5.000000e+000  1.350000e+002
      vertex -3.500000e+001 -5.000000e+000  1.100000e+002
      vertex -3.050000e+001 -5.000000e+000  1.155000e+002
    endloop
  endfacet
  facet normal  0.000000e+000 -1.000000e+000  0.000000e+000
    outer loop
      vertex -3.500000e+001 -5.000000e+000  1.350000e+002
      vertex -3.050000e+001 -5.000000e+000  1.155000e+002
      vertex -3.050000e+001 -5.000000e+000  1.295000e+002
    endloop
  endfacet
  facet normal  0.000000e+000 -1.000000e+000  0.000000e+000
    outer loop
      vertex -3.500000e+001 -5.000000e+000  1.350000e+002
      vertex -3.050000e+001 -5.000000e+000  1.295000e+002
      vertex -2.976777e+001 -5.000000e+000  1.312678e+002
    endloop
  endfacet
  facet normal  0.000000e+000 -9.999999e-001  0.000000e+000
    outer loop
      vertex -3.500000e+001 -5.000000e+000  1.350000e+002
      vertex -2.976777e+001 -5.000000e+000  1.312678e+002
      vertex -2.800000e+001 -5.000000e+000  1.320000e+002
    endloop
  endfacet
  facet normal  0.000000e+000 -1.000000e+000  0.000000e+000
    outer loop
      vertex -3.500000e+001 -5.000000e+000  1.350000e+002
      vertex -2.800000e+001 -5.000000e+000  1.320000e+002
      vertex  0.000000e+000 -5.000000e+000  1.350000e+002
    endloop
  endfacet
  facet normal  0.000000e+000 -1.000000e+000  -0.000000e+000
    outer loop
      vertex -9.500000e+000 -5.000000e+000  1.100000e+002
      vertex -9.500000e+000 -5.000000e+000  1.170000e+002
      vertex -2.550000e+001 -5.000000e+000  1.155000e+002
    endloop
  endfacet
  facet normal  0.000000e+000 -1.000000e+000  -0.000000e+000
    outer loop
      vertex -9.500000e+000 -5.000000e+000  1.100000e+002
      vertex -2.550000e+001 -5.000000e+000  1.155000e+002
      vertex -2.623223e+001 -5.000000e+000  1.137322e+002
    endloop
  endfacet
  facet normal  0.000000e+000 -1.000000e+000  -0.000000e+000
    outer loop
      vertex -9.500000e+000 -5.000000e+000  1.100000e+002
      vertex -2.623223e+001 -5.000000e+000  1.137322e+002
      vertex -2.800000e+001 -5.000000e+000  1.130000e+002
    endloop
  endfacet
  facet normal  0.000000e+000 -1.000000e+000  0.000000e+000
    outer loop
      vertex -3.500000e+001 -5.000000e+000  1.100000e+002
      vertex -9.500000e+000 -5.000000e+000  1.100000e+002
      vertex -2.800000e+001 -5.000000e+000  1.130000e+002
    endloop
  endfacet
  facet normal  -0.000000e+000 -1.000000e+000  0.000000e+000
    outer loop
      vertex -3.500000e+001 -5.000000e+000  1.100000e+002
      vertex -2.800000e+001 -5.000000e+000  1.130000e+002
      vertex -2.976777e+001 -5.000000e+000  1.137322e+002
    endloop
  endfacet
  facet normal  -0.000000e+000 -1.000000e+000  0.000000e+000
    outer loop
      vertex -3.500000e+001 -5.000000e+000  1.100000e+002
      vertex -2.976777e+001 -5.000000e+000  1.137322e+002
      vertex -3.050000e+001 -5.000000e+000  1.155000e+002
    endloop
  endfacet
  facet normal  0.000000e+000 -1.000000e+000  0.000000e+000
    outer loop
      vertex -9.500000e+000 -5.000000e+000  1.170000e+002
      vertex -2.550000e+001 -5.000000e+000  1.295000e+002
      vertex -2.550000e+001 -5.000000e+000  1.155000e+002
    endloop
  endfacet
  facet normal  0.000000e+000 -1.000000e+000  0.000000e+000
    outer loop
      vertex -2.550000e+001 -5.000000e+000  1.155000e+002
      vertex -2.550000e+001 -5.000000e+000  1.295000e+002
      vertex -2.623223e+001 -5.000000e+000  1.277322e+002
    endloop
  endfacet
  facet normal  0.000000e+000 -1.000000e+000  0.000000e+000
    outer loop
      vertex -2.550000e+001 -5.000000e+000  1.155000e+002
      vertex -2.623223e+001 -5.000000e+000  1.277322e+002
      vertex -2.623223e+001 -5.000000e+000  1.172678e+002
    endloop
  endfacet
  facet normal  0.000000e+000 -1.000000e+000  0.000000e+000
    outer loop
      vertex -2.623223e+001 -5.000000e+000  1.172678e+002
      vertex -2.623223e+001 -5.000000e+000  1.277322e+002
      vertex -2.800000e+001 -5.000000e+000  1.270000e+002
    endloop
  endfacet
  facet normal  0.000000e+000 -1.000000e+000  0.000000e+000
    outer loop
      vertex -2.623223e+001 -5.000000e+000  1.172678e+002
      vertex -2.800000e+001 -5.000000e+000  1.270000e+002
      vertex -2.800000e+001 -5.000000e+000  1.180000e+002
    endloop
  endfacet
  facet normal  0.000000e+000 -1.000000e+000  0.000000e+000
    outer loop
      vertex -2.800000e+001 -5.000000e+000  1.180000e+002
      vertex -2.800000e+001 -5.000000e+000  1.270000e+002
      vertex -2.976777e+001 -5.000000e+000  1.277322e+002
    endloop
  endfacet
  facet normal  0.000000e+000 -1.000000e+000  0.000000e+000
    outer loop
      vertex -2.800000e+001 -5.000000e+000  1.180000e+002
      vertex -2.976777e+001 -5.000000e+000  1.277322e+002
      vertex -2.976777e+001 -5.000000e+000  1.172678e+002
    endloop
  endfacet
  facet normal  0.000000e+000 -1.000000e+000  0.000000e+000
    outer loop
      vertex -2.976777e+001 -5.000000e+000  1.172678e+002
      vertex -2.976777e+001 -5.000000e+000  1.277322e+002
      vertex -3.050000e+001 -5.000000e+000  1.295000e+002
    endloop
  endfacet
  facet normal  0.000000e+000 -1.000000e+000  0.000000e+000
    outer loop
      vertex -2.976777e+001 -5.000000e+000  1.172678e+002
      vertex -3.050000e+001 -5.000000e+000  1.295000e+002
      vertex -3.050000e+001 -5.000000e+000  1.155000e+002
    endloop
  endfacet
  facet normal  3.826826e-001  0.000000e+000 -9.238799e-001
    outer loop
      vertex -2.800000e+001  0.000000e+000  1.180000e+002
      vertex -2.976777e+001 -5.000000e+000  1.172678e+002
      vertex -2.976777e+001  0.000000e+000  1.172678e+002
    endloop
  endfacet
  facet normal  9.238797e-001  0.000000e+000 -3.826831e-001
    outer loop
      vertex -2.976777e+001  0.000000e+000  1.172678e+002
      vertex -2.976777e+001 -5.000000e+000  1.172678e+002
      vertex -3.050000e+001 -5.000000e+000  1.155000e+002
    endloop
  endfacet
  facet normal  9.238797e-001  0.000000e+000 -3.826831e-001
    outer loop
      vertex -2.976777e+001  0.000000e+000  1.172678e+002
      vertex -3.050000e+001 -5.000000e+000  1.155000e+002
      vertex -3.050000e+001  0.000000e+000  1.155000e+002
    endloop
  endfacet
  facet normal  3.826826e-001  0.000000e+000 -9.238799e-001
    outer loop
      vertex -2.976777e+001 -5.000000e+000  1.172678e+002
      vertex -2.800000e+001  0.000000e+000  1.180000e+002
      vertex -2.800000e+001 -5.000000e+000  1.180000e+002
    endloop
  endfacet
  facet normal -3.826826e-001  0.000000e+000 -9.238799e-001
    outer loop
      vertex -2.800000e+001 -5.000000e+000  1.180000e+002
      vertex -2.800000e+001  0.000000e+000  1.180000e+002
      vertex -2.623223e+001  0.000000e+000  1.172678e+002
    endloop
  endfacet
  facet normal -3.826826e-001  -0.000000e+000 -9.238799e-001
    outer loop
      vertex -2.800000e+001 -5.000000e+000  1.180000e+002
      vertex -2.623223e+001  0.000000e+000  1.172678e+002
      vertex -2.623223e+001 -5.000000e+000  1.172678e+002
    endloop
  endfacet
  facet normal -9.238797e-001  0.000000e+000 -3.826831e-001
    outer loop
      vertex -2.623223e+001 -5.000000e+000  1.172678e+002
      vertex -2.623223e+001  0.000000e+000  1.172678e+002
      vertex -2.550000e+001  0.000000e+000  1.155000e+002
    endloop
  endfacet
  facet normal -9.238797e-001  -0.000000e+000 -3.826831e-001
    outer loop
      vertex -2.623223e+001 -5.000000e+000  1.172678e+002
      vertex -2.550000e+001  0.000000e+000  1.155000e+002
      vertex -2.550000e+001 -5.000000e+000  1.155000e+002
    endloop
  endfacet
  facet normal -3.826826e-001  0.000000e+000  9.238799e-001
    outer loop
      vertex -2.800000e+001  0.000000e+000  1.130000e+002
      vertex -2.623223e+001 -5.000000e+000  1.137322e+002
      vertex -2.623223e+001  0.000000e+000  1.137322e+002
    endloop
  endfacet
  facet normal -9.238797e-001  0.000000e+000  3.826831e-001
    outer loop
      vertex -2.623223e+001  0.000000e+000  1.137322e+002
      vertex -2.623223e+001 -5.000000e+000  1.137322e+002
      vertex -2.550000e+001 -5.000000e+000  1.155000e+002
    endloop
  endfacet
  facet normal -9.238797e-001  0.000000e+000  3.826831e-001
    outer loop
      vertex -2.623223e+001  0.000000e+000  1.137322e+002
      vertex -2.550000e+001 -5.000000e+000  1.155000e+002
      vertex -2.550000e+001  0.000000e+000  1.155000e+002
    endloop
  endfacet
  facet normal -3.826826e-001  0.000000e+000  9.238799e-001
    outer loop
      vertex -2.623223e+001 -5.000000e+000  1.137322e+002
      vertex -2.800000e+001  0.000000e+000  1.130000e+002
      vertex -2.800000e+001 -5.000000e+000  1.130000e+002
    endloop
  endfacet
  facet normal  3.826826e-001  -0.000000e+000  9.238799e-001
    outer loop
      vertex -2.800000e+001 -5.000000e+000  1.130000e+002
      vertex -2.800000e+001  0.000000e+000  1.130000e+002
      vertex -2.976777e+001  0.000000e+000  1.137322e+002
    endloop
  endfacet
  facet normal  3.826826e-001  0.000000e+000  9.238799e-001
    outer loop
      vertex -2.800000e+001 -5.000000e+000  1.130000e+002
      vertex -2.976777e+001  0.000000e+000  1.137322e+002
      vertex -2.976777e+001 -5.000000e+000  1.137322e+002
    endloop
  endfacet
  facet normal  9.238797e-001  -0.000000e+000  3.826831e-001
    outer loop
      vertex -2.976777e+001 -5.000000e+000  1.137322e+002
      vertex -2.976777e+001  0.000000e+000  1.137322e+002
      vertex -3.050000e+001  0.000000e+000  1.155000e+002
    endloop
  endfacet
  facet normal  9.238797e-001  0.000000e+000  3.826831e-001
    outer loop
      vertex -2.976777e+001 -5.000000e+000  1.137322e+002
      vertex -3.050000e+001  0.000000e+000  1.155000e+002
      vertex -3.050000e+001 -5.000000e+000  1.155000e+002
    endloop
  endfacet
  facet normal  3.826860e-001  0.000000e+000 -9.238785e-001
    outer loop
      vertex -2.800000e+001  0.000000e+000  1.320000e+002
      vertex -2.976777e+001 -5.000000e+000  1.312678e+002
      vertex -2.976777e+001  0.000000e+000  1.312678e+002
    endloop
  endfacet
  facet normal  9.238791e-001  0.000000e+000 -3.826845e-001
    outer loop
      vertex -2.976777e+001  0.000000e+000  1.312678e+002
      vertex -2.976777e+001 -5.000000e+000  1.312678e+002
      vertex -3.050000e+001 -5.000000e+000  1.295000e+002
    endloop
  endfacet
  facet normal  9.238791e-001  0.000000e+000 -3.826845e-001
    outer loop
      vertex -2.976777e+001  0.000000e+000  1.312678e+002
      vertex -3.050000e+001 -5.000000e+000  1.295000e+002
      vertex -3.050000e+001  0.000000e+000  1.295000e+002
    endloop
  endfacet
  facet normal  3.826860e-001  0.000000e+000 -9.238785e-001
    outer loop
      vertex -2.976777e+001 -5.000000e+000  1.312678e+002
      vertex -2.800000e+001  0.000000e+000  1.320000e+002
      vertex -2.800000e+001 -5.000000e+000  1.320000e+002
    endloop
  endfacet
  facet normal -3.826860e-001  0.000000e+000 -9.238785e-001
    outer loop
      vertex -2.800000e+001 -5.000000e+000  1.320000e+002
      vertex -2.800000e+001  0.000000e+000  1.320000e+002
      vertex -2.623223e+001  0.000000e+000  1.312678e+002
    endloop
  endfacet
  facet normal -3.826860e-001  -0.000000e+000 -9.238785e-001
    outer loop
      vertex -2.800000e+001 -5.000000e+000  1.320000e+002
      vertex -2.623223e+001  0.000000e+000  1.312678e+002
      vertex -2.623223e+001 -5.000000e+000  1.312678e+002
    endloop
  endfacet
  facet normal -9.238791e-001  0.000000e+000 -3.826845e-001
    outer loop
      vertex -2.623223e+001 -5.000000e+000  1.312678e+002
      vertex -2.623223e+001  0.000000e+000  1.312678e+002
      vertex -2.550000e+001  0.000000e+000  1.295000e+002
    endloop
  endfacet
  facet normal -9.238791e-001  -0.000000e+000 -3.826845e-001
    outer loop
      vertex -2.623223e+001 -5.000000e+000  1.312678e+002
      vertex -2.550000e+001  0.000000e+000  1.295000e+002
      vertex -2.550000e+001 -5.000000e+000  1.295000e+002
    endloop
  endfacet
  facet normal -3.826826e-001  0.000000e+000  9.238799e-001
    outer loop
      vertex -2.800000e+001  0.000000e+000  1.270000e+002
      vertex -2.623223e+001 -5.000000e+000  1.277322e+002
      vertex -2.623223e+001  0.000000e+000  1.277322e+002
    endloop
  endfacet
  facet normal -9.238797e-001  0.000000e+000  3.826831e-001
    outer loop
      vertex -2.623223e+001  0.000000e+000  1.277322e+002
      vertex -2.623223e+001 -5.000000e+000  1.277322e+002
      vertex -2.550000e+001 -5.000000e+000  1.295000e+002
    endloop
  endfacet
  facet normal -9.238797e-001  0.000000e+000  3.826831e-001
    outer loop
      vertex -2.623223e+001  0.000000e+000  1.277322e+002
      vertex -2.550000e+001 -5.000000e+000  1.295000e+002
      vertex -2.550000e+001  0.000000e+000  1.295000e+002
    endloop
  endfacet
  facet normal -3.826826e-001  0.000000e+000  9.238799e-001
    outer loop
      vertex -2.623223e+001 -5.000000e+000  1.277322e+002
      vertex -2.800000e+001  0.000000e+000  1.270000e+002
      vertex -2.800000e+001 -5.000000e+000  1.270000e+002
    endloop
  endfacet
  facet normal  3.826826e-001  -0.000000e+000  9.238799e-001
    outer loop
      vertex -2.800000e+001 -5.000000e+000  1.270000e+002
      vertex -2.800000e+001  0.000000e+000  1.270000e+002
      vertex -2.976777e+001  0.000000e+000  1.277322e+002
    endloop
  endfacet
  facet normal  3.826826e-001  0.000000e+000  9.238799e-001
    outer loop
      vertex -2.800000e+001 -5.000000e+000  1.270000e+002
      vertex -2.976777e+001  0.000000e+000  1.277322e+002
      vertex -2.976777e+001 -5.000000e+000  1.277322e+002
    endloop
  endfacet
  facet normal  9.238797e-001  -0.000000e+000  3.826831e-001
    outer loop
      vertex -2.976777e+001 -5.000000e+000  1.277322e+002
      vertex -2.976777e+001  0.000000e+000  1.277322e+002
      vertex -3.050000e+001  0.000000e+000  1.295000e+002
    endloop
  endfacet
  facet normal  9.238797e-001  0.000000e+000  3.826831e-001
    outer loop
      vertex -2.976777e+001 -5.000000e+000  1.277322e+002
      vertex -3.050000e+001  0.000000e+000  1.295000e+002
      vertex -3.050000e+001 -5.000000e+000  1.295000e+002
    endloop
  endfacet
  facet normal -9.659258e-001  2.588190e-001  0.000000e+000
    outer loop
      vertex -9.500000e+000 -2.525000e+001  1.170000e+002
      vertex -9.500000e+000 -2.525000e+001  1.330000e+002
      vertex -8.863621e+000 -2.287500e+001  1.170000e+002
    endloop
  endfacet
  facet normal -9.659258e-001  2.588190e-001  0.000000e+000
    outer loop
      vertex -8.863621e+000 -2.287500e+001  1.170000e+002
      vertex -9.500000e+000 -2.525000e+001  1.330000e+002
      vertex -8.863621e+000 -2.287500e+001  1.330000e+002
    endloop
  endfacet
  facet normal -7.071068e-001  7.071068e-001  0.000000e+000
    outer loop
      vertex -8.863621e+000 -2.287500e+001  1.170000e+002
      vertex -8.863621e+000 -2.287500e+001  1.330000e+002
      vertex -7.125000e+000 -2.113638e+001  1.170000e+002
    endloop
  endfacet
  facet normal -7.071068e-001  7.071068e-001  0.000000e+000
    outer loop
      vertex -7.125000e+000 -2.113638e+001  1.170000e+002
      vertex -8.863621e+000 -2.287500e+001  1.330000e+002
      vertex -7.125000e+000 -2.113638e+001  1.330000e+002
    endloop
  endfacet
  facet normal -2.588190e-001  9.659258e-001  0.000000e+000
    outer loop
      vertex -7.125000e+000 -2.113638e+001  1.170000e+002
      vertex -7.125000e+000 -2.113638e+001  1.330000e+002
      vertex -4.750000e+000 -2.050000e+001  1.170000e+002
    endloop
  endfacet
  facet normal -2.588190e-001  9.659258e-001  0.000000e+000
    outer loop
      vertex -4.750000e+000 -2.050000e+001  1.170000e+002
      vertex -7.125000e+000 -2.113638e+001  1.330000e+002
      vertex -4.750000e+000 -2.050000e+001  1.330000e+002
    endloop
  endfacet
  facet normal  2.588190e-001  9.659258e-001  0.000000e+000
    outer loop
      vertex -4.750000e+000 -2.050000e+001  1.170000e+002
      vertex -4.750000e+000 -2.050000e+001  1.330000e+002
      vertex -2.375000e+000 -2.113638e+001  1.170000e+002
    endloop
  endfacet
  facet normal  2.588190e-001  9.659258e-001  -0.000000e+000
    outer loop
      vertex -2.375000e+000 -2.113638e+001  1.170000e+002
      vertex -4.750000e+000 -2.050000e+001  1.330000e+002
      vertex -2.375000e+000 -2.113638e+001  1.330000e+002
    endloop
  endfacet
  facet normal  7.071068e-001  7.071067e-001  0.000000e+000
    outer loop
      vertex -2.375000e+000 -2.113638e+001  1.170000e+002
      vertex -2.375000e+000 -2.113638e+001  1.330000e+002
      vertex -6.363794e-001 -2.287500e+001  1.170000e+002
    endloop
  endfacet
  facet normal  7.071068e-001  7.071067e-001  -0.000000e+000
    outer loop
      vertex -6.363794e-001 -2.287500e+001  1.170000e+002
      vertex -2.375000e+000 -2.113638e+001  1.330000e+002
      vertex -6.363794e-001 -2.287500e+001  1.330000e+002
    endloop
  endfacet
  facet normal  9.659258e-001  2.588190e-001  0.000000e+000
    outer loop
      vertex -6.363794e-001 -2.287500e+001  1.170000e+002
      vertex -6.363794e-001 -2.287500e+001  1.330000e+002
      vertex  8.881784e-016 -2.525000e+001  1.170000e+002
    endloop
  endfacet
  facet normal  9.659258e-001  2.588190e-001  -0.000000e+000
    outer loop
      vertex  8.881784e-016 -2.525000e+001  1.170000e+002
      vertex -6.363794e-001 -2.287500e+001  1.330000e+002
      vertex  8.881784e-016 -2.525000e+001  1.330000e+002
    endloop
  endfacet
  facet normal  0.000000e+000  -0.000000e+000  9.999999e-001
    outer loop
      vertex -7.500000e+000 -2.525000e+001  1.350000e+002
      vertex -6.974797e+000 -2.686641e+001  1.350000e+002
      vertex -6.974797e+000 -2.363359e+001  1.350000e+002
    endloop
  endfacet
  facet normal  0.000000e+000  0.000000e+000  1.000000e+000
    outer loop
      vertex -6.974797e+000 -2.363359e+001  1.350000e+002
      vertex -6.974797e+000 -2.686641e+001  1.350000e+002
      vertex -5.599797e+000 -2.263459e+001  1.350000e+002
    endloop
  endfacet
  facet normal  0.000000e+000  0.000000e+000  1.000000e+000
    outer loop
      vertex -5.599797e+000 -2.263459e+001  1.350000e+002
      vertex -6.974797e+000 -2.686641e+001  1.350000e+002
      vertex -5.599797e+000 -2.786541e+001  1.350000e+002
    endloop
  endfacet
  facet normal  0.000000e+000  0.000000e+000  1.000000e+000
    outer loop
      vertex -5.599797e+000 -2.263459e+001  1.350000e+002
      vertex -5.599797e+000 -2.786541e+001  1.350000e+002
      vertex -3.900203e+000 -2.263459e+001  1.350000e+002
    endloop
  endfacet
  facet normal  0.000000e+000  0.000000e+000  1.000000e+000
    outer loop
      vertex -3.900203e+000 -2.263459e+001  1.350000e+002
      vertex -5.599797e+000 -2.786541e+001  1.350000e+002
      vertex -3.900203e+000 -2.786541e+001  1.350000e+002
    endloop
  endfacet
  facet normal  0.000000e+000  0.000000e+000  1.000000e+000
    outer loop
      vertex -3.900203e+000 -2.263459e+001  1.350000e+002
      vertex -3.900203e+000 -2.786541e+001  1.350000e+002
      vertex -2.525203e+000 -2.363359e+001  1.350000e+002
    endloop
  endfacet
  facet normal  0.000000e+000  0.000000e+000  1.000000e+000
    outer loop
      vertex -2.525203e+000 -2.363359e+001  1.350000e+002
      vertex -3.900203e+000 -2.786541e+001  1.350000e+002
      vertex -2.525203e+000 -2.686641e+001  1.350000e+002
    endloop
  endfacet
  facet normal  0.000000e+000  0.000000e+000  9.999999e-001
    outer loop
      vertex -2.525203e+000 -2.363359e+001  1.350000e+002
      vertex -2.525203e+000 -2.686641e+001  1.350000e+002
      vertex -2.000000e+000 -2.525000e+001  1.350000e+002
    endloop
  endfacet
  facet normal -9.659259e-001 -2.588190e-001  0.000000e+000
    outer loop
      vertex -9.500000e+000 -2.525000e+001  1.100000e+002
      vertex -8.863621e+000 -2.762500e+001  1.100000e+002
      vertex -9.500000e+000 -2.525000e+001  1.170000e+002
    endloop
  endfacet
  facet normal  9.659258e-001 -2.588190e-001  0.000000e+000
    outer loop
      vertex  8.881784e-016 -2.525000e+001  1.330000e+002
      vertex -6.363794e-001 -2.762500e+001  1.330000e+002
      vertex  8.881784e-016 -2.525000e+001  1.170000e+002
    endloop
  endfacet
  facet normal -9.659258e-001 -2.588190e-001  0.000000e+000
    outer loop
      vertex -9.500000e+000 -2.525000e+001  1.330000e+002
      vertex -9.500000e+000 -2.525000e+001  1.170000e+002
      vertex -8.863621e+000 -2.762500e+001  1.330000e+002
    endloop
  endfacet
  facet normal -9.659258e-001 -2.588190e-001  -0.000000e+000
    outer loop
      vertex -8.863621e+000 -2.762500e+001  1.330000e+002
      vertex -9.500000e+000 -2.525000e+001  1.170000e+002
      vertex -8.863621e+000 -2.762500e+001  1.100000e+002
    endloop
  endfacet
  facet normal -7.071068e-001 -7.071068e-001  0.000000e+000
    outer loop
      vertex -8.863621e+000 -2.762500e+001  1.330000e+002
      vertex -8.863621e+000 -2.762500e+001  1.100000e+002
      vertex -7.125000e+000 -2.936362e+001  1.330000e+002
    endloop
  endfacet
  facet normal -7.071068e-001 -7.071068e-001  -0.000000e+000
    outer loop
      vertex -7.125000e+000 -2.936362e+001  1.330000e+002
      vertex -8.863621e+000 -2.762500e+001  1.100000e+002
      vertex -7.125000e+000 -2.936362e+001  1.100000e+002
    endloop
  endfacet
  facet normal -2.588190e-001 -9.659258e-001  0.000000e+000
    outer loop
      vertex -7.125000e+000 -2.936362e+001  1.330000e+002
      vertex -7.125000e+000 -2.936362e+001  1.100000e+002
      vertex -4.750000e+000 -3.000000e+001  1.330000e+002
    endloop
  endfacet
  facet normal -2.588190e-001 -9.659258e-001  -0.000000e+000
    outer loop
      vertex -4.750000e+000 -3.000000e+001  1.330000e+002
      vertex -7.125000e+000 -2.936362e+001  1.100000e+002
      vertex -4.750000e+000 -3.000000e+001  1.100000e+002
    endloop
  endfacet
  facet normal  2.588190e-001 -9.659258e-001  0.000000e+000
    outer loop
      vertex -4.750000e+000 -3.000000e+001  1.330000e+002
      vertex -4.750000e+000 -3.000000e+001  1.100000e+002
      vertex -2.375000e+000 -2.936362e+001  1.330000e+002
    endloop
  endfacet
  facet normal  2.588190e-001 -9.659258e-001  0.000000e+000
    outer loop
      vertex -2.375000e+000 -2.936362e+001  1.330000e+002
      vertex -4.750000e+000 -3.000000e+001  1.100000e+002
      vertex -2.375000e+000 -2.936362e+001  1.100000e+002
    endloop
  endfacet
  facet normal  7.071068e-001 -7.071067e-001  0.000000e+000
    outer loop
      vertex -2.375000e+000 -2.936362e+001  1.330000e+002
      vertex -2.375000e+000 -2.936362e+001  1.100000e+002
      vertex -6.363794e-001 -2.762500e+001  1.330000e+002
    endloop
  endfacet
  facet normal  7.071068e-001 -7.071067e-001  0.000000e+000
    outer loop
      vertex -6.363794e-001 -2.762500e+001  1.330000e+002
      vertex -2.375000e+000 -2.936362e+001  1.100000e+002
      vertex -6.363794e-001 -2.762500e+001  1.100000e+002
    endloop
  endfacet
  facet normal  9.659258e-001 -2.588190e-001  0.000000e+000
    outer loop
      vertex -6.363794e-001 -2.762500e+001  1.330000e+002
      vertex -6.363794e-001 -2.762500e+001  1.100000e+002
      vertex  8.881784e-016 -2.525000e+001  1.170000e+002
    endloop
  endfacet
  facet normal  9.659259e-001 -2.588191e-001 -1.225592e-016
    outer loop
      vertex  8.881784e-016 -2.525000e+001  1.170000e+002
      vertex -6.363794e-001 -2.762500e+001  1.100000e+002
      vertex  0.000000e+000 -2.525000e+001  1.100000e+002
    endloop
  endfacet
  facet normal  3.806865e-001 -1.020046e-001  9.190609e-001
    outer loop
      vertex -2.000000e+000 -2.525000e+001  1.350000e+002
      vertex -1.143685e+000 -2.733211e+001  1.344142e+002
      vertex -5.857865e-001 -2.525000e+001  1.344142e+002
    endloop
  endfacet
  facet normal  3.546016e-001 -1.152171e-001  9.278916e-001
    outer loop
      vertex -2.000000e+000 -2.525000e+001  1.350000e+002
      vertex -2.525203e+000 -2.686641e+001  1.350000e+002
      vertex -1.143685e+000 -2.733211e+001  1.344142e+002
    endloop
  endfacet
  facet normal -3.546017e-001 -1.152171e-001  9.278916e-001
    outer loop
      vertex -7.500000e+000 -2.525000e+001  1.350000e+002
      vertex -8.356315e+000 -2.733211e+001  1.344142e+002
      vertex -6.974797e+000 -2.686641e+001  1.350000e+002
    endloop
  endfacet
  facet normal -3.806866e-001 -1.020046e-001  9.190608e-001
    outer loop
      vertex -7.500000e+000 -2.525000e+001  1.350000e+002
      vertex -8.914213e+000 -2.525000e+001  1.344142e+002
      vertex -8.356315e+000 -2.733211e+001  1.344142e+002
    endloop
  endfacet
  facet normal -2.106466e-001 -2.899299e-001  9.335784e-001
    outer loop
      vertex -6.832107e+000 -2.885632e+001  1.344142e+002
      vertex -5.599797e+000 -2.786541e+001  1.350000e+002
      vertex -6.974797e+000 -2.686641e+001  1.350000e+002
    endloop
  endfacet
  facet normal -2.893516e-001 -2.893516e-001  9.124424e-001
    outer loop
      vertex -6.832107e+000 -2.885632e+001  1.344142e+002
      vertex -6.974797e+000 -2.686641e+001  1.350000e+002
      vertex -8.356315e+000 -2.733211e+001  1.344142e+002
    endloop
  endfacet
  facet normal  0.000000e+000 -3.537599e-001  9.353363e-001
    outer loop
      vertex -4.750000e+000 -2.941421e+001  1.344142e+002
      vertex -3.900203e+000 -2.786541e+001  1.350000e+002
      vertex -5.599797e+000 -2.786541e+001  1.350000e+002
    endloop
  endfacet
  facet normal -1.079766e-001 -4.029750e-001  9.088190e-001
    outer loop
      vertex -4.750000e+000 -2.941421e+001  1.344142e+002
      vertex -5.599797e+000 -2.786541e+001  1.350000e+002
      vertex -6.832107e+000 -2.885632e+001  1.344142e+002
    endloop
  endfacet
  facet normal  2.106466e-001 -2.899299e-001  9.335784e-001
    outer loop
      vertex -2.667893e+000 -2.885632e+001  1.344142e+002
      vertex -2.525203e+000 -2.686641e+001  1.350000e+002
      vertex -3.900203e+000 -2.786541e+001  1.350000e+002
    endloop
  endfacet
  facet normal  1.079766e-001 -4.029751e-001  9.088191e-001
    outer loop
      vertex -2.667893e+000 -2.885632e+001  1.344142e+002
      vertex -3.900203e+000 -2.786541e+001  1.350000e+002
      vertex -4.750000e+000 -2.941421e+001  1.344142e+002
    endloop
  endfacet
  facet normal  2.893516e-001 -2.893516e-001  9.124424e-001
    outer loop
      vertex -1.143685e+000 -2.733211e+001  1.344142e+002
      vertex -2.525203e+000 -2.686641e+001  1.350000e+002
      vertex -2.667893e+000 -2.885632e+001  1.344142e+002
    endloop
  endfacet
  facet normal -8.968089e-001 -2.402990e-001  3.714702e-001
    outer loop
      vertex -8.914213e+000 -2.525000e+001  1.344142e+002
      vertex -9.500000e+000 -2.525000e+001  1.330000e+002
      vertex -8.356315e+000 -2.733211e+001  1.344142e+002
    endloop
  endfacet
  facet normal -8.968089e-001 -2.402992e-001  3.714700e-001
    outer loop
      vertex -8.356315e+000 -2.733211e+001  1.344142e+002
      vertex -9.500000e+000 -2.525000e+001  1.330000e+002
      vertex -8.863621e+000 -2.762500e+001  1.330000e+002
    endloop
  endfacet
  facet normal -6.565098e-001 -6.565098e-001  3.714698e-001
    outer loop
      vertex -8.356315e+000 -2.733211e+001  1.344142e+002
      vertex -8.863621e+000 -2.762500e+001  1.330000e+002
      vertex -6.832107e+000 -2.885632e+001  1.344142e+002
    endloop
  endfacet
  facet normal -6.565098e-001 -6.565098e-001  3.714698e-001
    outer loop
      vertex -6.832107e+000 -2.885632e+001  1.344142e+002
      vertex -8.863621e+000 -2.762500e+001  1.330000e+002
      vertex -7.125000e+000 -2.936362e+001  1.330000e+002
    endloop
  endfacet
  facet normal -2.402988e-001 -8.968093e-001  3.714696e-001
    outer loop
      vertex -6.832107e+000 -2.885632e+001  1.344142e+002
      vertex -7.125000e+000 -2.936362e+001  1.330000e+002
      vertex -4.750000e+000 -2.941421e+001  1.344142e+002
    endloop
  endfacet
  facet normal -2.402992e-001 -8.968089e-001  3.714703e-001
    outer loop
      vertex -4.750000e+000 -2.941421e+001  1.344142e+002
      vertex -7.125000e+000 -2.936362e+001  1.330000e+002
      vertex -4.750000e+000 -3.000000e+001  1.330000e+002
    endloop
  endfacet
  facet normal  2.402987e-001 -8.968090e-001  3.714703e-001
    outer loop
      vertex -4.750000e+000 -2.941421e+001  1.344142e+002
      vertex -4.750000e+000 -3.000000e+001  1.330000e+002
      vertex -2.667893e+000 -2.885632e+001  1.344142e+002
    endloop
  endfacet
  facet normal  2.402993e-001 -8.968091e-001  3.714696e-001
    outer loop
      vertex -2.667893e+000 -2.885632e+001  1.344142e+002
      vertex -4.750000e+000 -3.000000e+001  1.330000e+002
      vertex -2.375000e+000 -2.936362e+001  1.330000e+002
    endloop
  endfacet
  facet normal  6.565099e-001 -6.565098e-001  3.714697e-001
    outer loop
      vertex -2.667893e+000 -2.885632e+001  1.344142e+002
      vertex -2.375000e+000 -2.936362e+001  1.330000e+002
      vertex -1.143685e+000 -2.733211e+001  1.344142e+002
    endloop
  endfacet
  facet normal  6.565098e-001 -6.565098e-001  3.714697e-001
    outer loop
      vertex -1.143685e+000 -2.733211e+001  1.344142e+002
      vertex -2.375000e+000 -2.936362e+001  1.330000e+002
      vertex -6.363794e-001 -2.762500e+001  1.330000e+002
    endloop
  endfacet
  facet normal  8.968091e-001 -2.402992e-001  3.714699e-001
    outer loop
      vertex -1.143685e+000 -2.733211e+001  1.344142e+002
      vertex -6.363794e-001 -2.762500e+001  1.330000e+002
      vertex -5.857865e-001 -2.525000e+001  1.344142e+002
    endloop
  endfacet
  facet normal  8.968089e-001 -2.402992e-001  3.714700e-001
    outer loop
      vertex -5.857865e-001 -2.525000e+001  1.344142e+002
      vertex -6.363794e-001 -2.762500e+001  1.330000e+002
      vertex  8.881784e-016 -2.525000e+001  1.330000e+002
    endloop
  endfacet
  facet normal -3.806866e-001  1.020046e-001  9.190608e-001
    outer loop
      vertex -7.500000e+000 -2.525000e+001  1.350000e+002
      vertex -8.356315e+000 -2.316789e+001  1.344142e+002
      vertex -8.914213e+000 -2.525000e+001  1.344142e+002
    endloop
  endfacet
  facet normal -3.546017e-001  1.152171e-001  9.278916e-001
    outer loop
      vertex -7.500000e+000 -2.525000e+001  1.350000e+002
      vertex -6.974797e+000 -2.363359e+001  1.350000e+002
      vertex -8.356315e+000 -2.316789e+001  1.344142e+002
    endloop
  endfacet
  facet normal  3.546016e-001  1.152171e-001  9.278916e-001
    outer loop
      vertex -2.000000e+000 -2.525000e+001  1.350000e+002
      vertex -1.143685e+000 -2.316789e+001  1.344142e+002
      vertex -2.525203e+000 -2.363359e+001  1.350000e+002
    endloop
  endfacet
  facet normal  3.806865e-001  1.020046e-001  9.190609e-001
    outer loop
      vertex -2.000000e+000 -2.525000e+001  1.350000e+002
      vertex -5.857865e-001 -2.525000e+001  1.344142e+002
      vertex -1.143685e+000 -2.316789e+001  1.344142e+002
    endloop
  endfacet
  facet normal  2.106466e-001  2.899299e-001  9.335784e-001
    outer loop
      vertex -2.667893e+000 -2.164368e+001  1.344142e+002
      vertex -3.900203e+000 -2.263459e+001  1.350000e+002
      vertex -2.525203e+000 -2.363359e+001  1.350000e+002
    endloop
  endfacet
  facet normal  2.893516e-001  2.893516e-001  9.124424e-001
    outer loop
      vertex -2.667893e+000 -2.164368e+001  1.344142e+002
      vertex -2.525203e+000 -2.363359e+001  1.350000e+002
      vertex -1.143685e+000 -2.316789e+001  1.344142e+002
    endloop
  endfacet
  facet normal  -0.000000e+000  3.537599e-001  9.353363e-001
    outer loop
      vertex -4.750000e+000 -2.108579e+001  1.344142e+002
      vertex -5.599797e+000 -2.263459e+001  1.350000e+002
      vertex -3.900203e+000 -2.263459e+001  1.350000e+002
    endloop
  endfacet
  facet normal  1.079766e-001  4.029751e-001  9.088191e-001
    outer loop
      vertex -4.750000e+000 -2.108579e+001  1.344142e+002
      vertex -3.900203e+000 -2.263459e+001  1.350000e+002
      vertex -2.667893e+000 -2.164368e+001  1.344142e+002
    endloop
  endfacet
  facet normal -2.106466e-001  2.899299e-001  9.335784e-001
    outer loop
      vertex -6.832107e+000 -2.164368e+001  1.344142e+002
      vertex -6.974797e+000 -2.363359e+001  1.350000e+002
      vertex -5.599797e+000 -2.263459e+001  1.350000e+002
    endloop
  endfacet
  facet normal -1.079766e-001  4.029750e-001  9.088190e-001
    outer loop
      vertex -6.832107e+000 -2.164368e+001  1.344142e+002
      vertex -5.599797e+000 -2.263459e+001  1.350000e+002
      vertex -4.750000e+000 -2.108579e+001  1.344142e+002
    endloop
  endfacet
  facet normal -2.893516e-001  2.893516e-001  9.124424e-001
    outer loop
      vertex -8.356315e+000 -2.316789e+001  1.344142e+002
      vertex -6.974797e+000 -2.363359e+001  1.350000e+002
      vertex -6.832107e+000 -2.164368e+001  1.344142e+002
    endloop
  endfacet
  facet normal  8.968090e-001  2.402991e-001  3.714701e-001
    outer loop
      vertex -5.857865e-001 -2.525000e+001  1.344142e+002
      vertex  8.881784e-016 -2.525000e+001  1.330000e+002
      vertex -1.143685e+000 -2.316789e+001  1.344142e+002
    endloop
  endfacet
  facet normal  8.968090e-001  2.402993e-001  3.714699e-001
    outer loop
      vertex -1.143685e+000 -2.316789e+001  1.344142e+002
      vertex  8.881784e-016 -2.525000e+001  1.330000e+002
      vertex -6.363794e-001 -2.287500e+001  1.330000e+002
    endloop
  endfacet
  facet normal  6.565099e-001  6.565098e-001  3.714697e-001
    outer loop
      vertex -1.143685e+000 -2.316789e+001  1.344142e+002
      vertex -6.363794e-001 -2.287500e+001  1.330000e+002
      vertex -2.667893e+000 -2.164368e+001  1.344142e+002
    endloop
  endfacet
  facet normal  6.565099e-001  6.565098e-001  3.714697e-001
    outer loop
      vertex -2.667893e+000 -2.164368e+001  1.344142e+002
      vertex -6.363794e-001 -2.287500e+001  1.330000e+002
      vertex -2.375000e+000 -2.113638e+001  1.330000e+002
    endloop
  endfacet
  facet normal  2.402988e-001  8.968093e-001  3.714696e-001
    outer loop
      vertex -2.667893e+000 -2.164368e+001  1.344142e+002
      vertex -2.375000e+000 -2.113638e+001  1.330000e+002
      vertex -4.750000e+000 -2.108579e+001  1.344142e+002
    endloop
  endfacet
  facet normal  2.402992e-001  8.968089e-001  3.714703e-001
    outer loop
      vertex -4.750000e+000 -2.108579e+001  1.344142e+002
      vertex -2.375000e+000 -2.113638e+001  1.330000e+002
      vertex -4.750000e+000 -2.050000e+001  1.330000e+002
    endloop
  endfacet
  facet normal -2.402987e-001  8.968090e-001  3.714703e-001
    outer loop
      vertex -4.750000e+000 -2.108579e+001  1.344142e+002
      vertex -4.750000e+000 -2.050000e+001  1.330000e+002
      vertex -6.832107e+000 -2.164368e+001  1.344142e+002
    endloop
  endfacet
  facet normal -2.402993e-001  8.968091e-001  3.714696e-001
    outer loop
      vertex -6.832107e+000 -2.164368e+001  1.344142e+002
      vertex -4.750000e+000 -2.050000e+001  1.330000e+002
      vertex -7.125000e+000 -2.113638e+001  1.330000e+002
    endloop
  endfacet
  facet normal -6.565098e-001  6.565098e-001  3.714698e-001
    outer loop
      vertex -6.832107e+000 -2.164368e+001  1.344142e+002
      vertex -7.125000e+000 -2.113638e+001  1.330000e+002
      vertex -8.356315e+000 -2.316789e+001  1.344142e+002
    endloop
  endfacet
  facet normal -6.565098e-001  6.565098e-001  3.714698e-001
    outer loop
      vertex -8.356315e+000 -2.316789e+001  1.344142e+002
      vertex -7.125000e+000 -2.113638e+001  1.330000e+002
      vertex -8.863621e+000 -2.287500e+001  1.330000e+002
    endloop
  endfacet
  facet normal -8.968090e-001  2.402990e-001  3.714700e-001
    outer loop
      vertex -8.356315e+000 -2.316789e+001  1.344142e+002
      vertex -8.863621e+000 -2.287500e+001  1.330000e+002
      vertex -8.914213e+000 -2.525000e+001  1.344142e+002
    endloop
  endfacet
  facet normal -8.968089e-001  2.402992e-001  3.714703e-001
    outer loop
      vertex -8.914213e+000 -2.525000e+001  1.344142e+002
      vertex -8.863621e+000 -2.287500e+001  1.330000e+002
      vertex -9.500000e+000 -2.525000e+001  1.330000e+002
    endloop
  endfacet
  facet normal  0.000000e+000  0.000000e+000  1.000000e+000
    outer loop
      vertex -9.500000e+000 -2.525000e+001  1.170000e+002
      vertex -8.863621e+000 -2.287500e+001  1.170000e+002
      vertex -9.500000e+000 -5.000000e+000  1.170000e+002
    endloop
  endfacet
  facet normal  -0.000000e+000  0.000000e+000  1.000000e+000
    outer loop
      vertex  0.000000e+000 -5.000000e+000  1.170000e+002
      vertex -9.500000e+000 -5.000000e+000  1.170000e+002
      vertex -8.863621e+000 -2.287500e+001  1.170000e+002
    endloop
  endfacet
  facet normal  0.000000e+000  0.000000e+000  1.000000e+000
    outer loop
      vertex  0.000000e+000 -5.000000e+000  1.170000e+002
      vertex -8.863621e+000 -2.287500e+001  1.170000e+002
      vertex -7.125000e+000 -2.113638e+001  1.170000e+002
    endloop
  endfacet
  facet normal  0.000000e+000  0.000000e+000  1.000000e+000
    outer loop
      vertex  0.000000e+000 -5.000000e+000  1.170000e+002
      vertex -7.125000e+000 -2.113638e+001  1.170000e+002
      vertex -4.750000e+000 -2.050000e+001  1.170000e+002
    endloop
  endfacet
  facet normal  -0.000000e+000  0.000000e+000  1.000000e+000
    outer loop
      vertex  0.000000e+000 -5.000000e+000  1.170000e+002
      vertex -4.750000e+000 -2.050000e+001  1.170000e+002
      vertex -2.375000e+000 -2.113638e+001  1.170000e+002
    endloop
  endfacet
  facet normal  -0.000000e+000  0.000000e+000  1.000000e+000
    outer loop
      vertex  0.000000e+000 -5.000000e+000  1.170000e+002
      vertex -2.375000e+000 -2.113638e+001  1.170000e+002
      vertex -6.363794e-001 -2.287500e+001  1.170000e+002
    endloop
  endfacet
  facet normal  -0.000000e+000  0.000000e+000  9.999999e-001
    outer loop
      vertex  0.000000e+000 -5.000000e+000  1.170000e+002
      vertex -6.363794e-001 -2.287500e+001  1.170000e+002
      vertex  8.881784e-016 -2.525000e+001  1.170000e+002
    endloop
  endfacet
  facet normal -9.999999e-001  0.000000e+000  0.000000e+000
    outer loop
      vertex -9.500000e+000 -2.525000e+001  1.100000e+002
      vertex -9.500000e+000 -2.525000e+001  1.170000e+002
      vertex -9.500000e+000 -5.000000e+000  1.100000e+002
    endloop
  endfacet
  facet normal -9.999999e-001  0.000000e+000  0.000000e+000
    outer loop
      vertex -9.500000e+000 -5.000000e+000  1.100000e+002
      vertex -9.500000e+000 -2.525000e+001  1.170000e+002
      vertex -9.500000e+000 -5.000000e+000  1.170000e+002
    endloop
  endfacet
  facet normal  9.999999e-001  4.386066e-017 -1.268826e-016
    outer loop
      vertex  8.881784e-016 -2.525000e+001  1.170000e+002
      vertex  0.000000e+000 -2.525000e+001  1.100000e+002
      vertex  0.000000e+000 -5.000000e+000  1.170000e+002
    endloop
  endfacet
  facet normal  1.000000e+000  0.000000e+000  0.000000e+000
    outer loop
      vertex  0.000000e+000 -5.000000e+000  1.170000e+002
      vertex  0.000000e+000 -2.525000e+001  1.100000e+002
      vertex  0.000000e+000  0.000000e+000  1.100000e+002
    endloop
  endfacet
  facet normal  1.000000e+000  0.000000e+000  0.000000e+000
    outer loop
      vertex  0.000000e+000 -5.000000e+000  1.170000e+002
      vertex  0.000000e+000  0.000000e+000  1.100000e+002
      vertex  0.000000e+000 -5.000000e+000  1.350000e+002
    endloop
  endfacet
  facet normal  1.000000e+000  -0.000000e+000  0.000000e+000
    outer loop
      vertex  0.000000e+000 -5.000000e+000  1.350000e+002
      vertex  0.000000e+000  0.000000e+000  1.100000e+002
      vertex  0.000000e+000  0.000000e+000  1.350000e+002
    endloop
  endfacet
  facet normal -1.000000e+000  0.000000e+000  0.000000e+000
    outer loop
      vertex -3.500000e+001  0.000000e+000  1.350000e+002
      vertex -3.500000e+001  0.000000e+000  1.100000e+002
      vertex -3.500000e+001 -5.000000e+000  1.350000e+002
    endloop
  endfacet
  facet normal -1.000000e+000  0.000000e+000  0.000000e+000
    outer loop
      vertex -3.500000e+001 -5.000000e+000  1.350000e+002
      vertex -3.500000e+001  0.000000e+000  1.100000e+002
      vertex -3.500000e+001 -5.000000e+000  1.100000e+002
    endloop
  endfacet
  facet normal  0.000000e+000  0.000000e+000  1.000000e+000
    outer loop
      vertex  0.000000e+000 -5.000000e+000  1.350000e+002
      vertex  0.000000e+000  0.000000e+000  1.350000e+002
      vertex -3.500000e+001 -5.000000e+000  1.350000e+002
    endloop
  endfacet
  facet normal  0.000000e+000  0.000000e+000  1.000000e+000
    outer loop
      vertex -3.500000e+001 -5.000000e+000  1.350000e+002
      vertex  0.000000e+000  0.000000e+000  1.350000e+002
      vertex -3.500000e+001  0.000000e+000  1.350000e+002
    endloop
  endfacet
  facet normal  0.000000e+000  0.000000e+000 -1.000000e+000
    outer loop
      vertex -9.500000e+000 -5.000000e+000  1.100000e+002
      vertex -3.500000e+001 -5.000000e+000  1.100000e+002
      vertex -3.500000e+001  0.000000e+000  1.100000e+002
    endloop
  endfacet
  facet normal  0.000000e+000  0.000000e+000 -1.000000e+000
    outer loop
      vertex -9.500000e+000 -5.000000e+000  1.100000e+002
      vertex -3.500000e+001  0.000000e+000  1.100000e+002
      vertex  0.000000e+000  0.000000e+000  1.100000e+002
    endloop
  endfacet
  facet normal  0.000000e+000  -0.000000e+000 -9.999999e-001
    outer loop
      vertex -9.500000e+000 -5.000000e+000  1.100000e+002
      vertex  0.000000e+000  0.000000e+000  1.100000e+002
      vertex  0.000000e+000 -2.525000e+001  1.100000e+002
    endloop
  endfacet
  facet normal  -0.000000e+000  0.000000e+000 -1.000000e+000
    outer loop
      vertex -9.500000e+000 -5.000000e+000  1.100000e+002
      vertex  0.000000e+000 -2.525000e+001  1.100000e+002
      vertex -6.363794e-001 -2.762500e+001  1.100000e+002
    endloop
  endfacet
  facet normal  -0.000000e+000  0.000000e+000 -1.000000e+000
    outer loop
      vertex -9.500000e+000 -5.000000e+000  1.100000e+002
      vertex -6.363794e-001 -2.762500e+001  1.100000e+002
      vertex -2.375000e+000 -2.936362e+001  1.100000e+002
    endloop
  endfacet
  facet normal  -0.000000e+000  0.000000e+000 -1.000000e+000
    outer loop
      vertex -9.500000e+000 -5.000000e+000  1.100000e+002
      vertex -2.375000e+000 -2.936362e+001  1.100000e+002
      vertex -4.750000e+000 -3.000000e+001  1.100000e+002
    endloop
  endfacet
  facet normal  0.000000e+000  0.000000e+000 -1.000000e+000
    outer loop
      vertex -9.500000e+000 -5.000000e+000  1.100000e+002
      vertex -4.750000e+000 -3.000000e+001  1.100000e+002
      vertex -7.125000e+000 -2.936362e+001  1.100000e+002
    endloop
  endfacet
  facet normal  0.000000e+000  0.000000e+000 -1.000000e+000
    outer loop
      vertex -9.500000e+000 -5.000000e+000  1.100000e+002
      vertex -7.125000e+000 -2.936362e+001  1.100000e+002
      vertex -8.863621e+000 -2.762500e+001  1.100000e+002
    endloop
  endfacet
  facet normal  0.000000e+000  0.000000e+000 -1.000000e+000
    outer loop
      vertex -9.500000e+000 -5.000000e+000  1.100000e+002
      vertex -8.863621e+000 -2.762500e+001  1.100000e+002
      vertex -9.500000e+000 -2.525000e+001  1.100000e+002
    endloop
  endfacet
endsolid CATIA STL
