solid CATIA STL
  facet normal  0.000000e+000  0.000000e+000 -1.000000e+000
    outer loop
      vertex -9.000000e+000 -1.525000e+001  7.000000e+000
      vertex -1.333013e+001 -1.775000e+001  7.000000e+000
      vertex -1.150000e+001 -1.591987e+001  7.000000e+000
    endloop
  endfacet
  facet normal  0.000000e+000  -0.000000e+000 -1.000000e+000
    outer loop
      vertex -1.400000e+001 -2.025000e+001  7.000000e+000
      vertex -1.333013e+001 -1.775000e+001  7.000000e+000
      vertex -4.750000e+000 -2.025000e+001  7.000000e+000
    endloop
  endfacet
  facet normal  -0.000000e+000  0.000000e+000 -1.000000e+000
    outer loop
      vertex -1.400000e+001 -2.025000e+001  7.000000e+000
      vertex -4.750000e+000 -2.025000e+001  7.000000e+000
      vertex -7.250000e+000 -2.091987e+001  7.000000e+000
    endloop
  endfacet
  facet normal  -0.000000e+000  0.000000e+000 -1.000000e+000
    outer loop
      vertex -1.400000e+001 -2.025000e+001  7.000000e+000
      vertex -7.250000e+000 -2.091987e+001  7.000000e+000
      vertex -9.080127e+000 -2.275000e+001  7.000000e+000
    endloop
  endfacet
  facet normal  -0.000000e+000  0.000000e+000 -9.999999e-001
    outer loop
      vertex -1.400000e+001 -2.025000e+001  7.000000e+000
      vertex -9.080127e+000 -2.275000e+001  7.000000e+000
      vertex -9.750000e+000 -2.525000e+001  7.000000e+000
    endloop
  endfacet
  facet normal  -0.000000e+000  -0.000000e+000 -1.000000e+000
    outer loop
      vertex -1.400000e+001 -2.025000e+001  7.000000e+000
      vertex -9.750000e+000 -2.525000e+001  7.000000e+000
      vertex -9.080127e+000 -2.775000e+001  7.000000e+000
    endloop
  endfacet
  facet normal  0.000000e+000  0.000000e+000 -1.000000e+000
    outer loop
      vertex -1.400000e+001 -3.025000e+001  7.000000e+000
      vertex -1.400000e+001 -2.025000e+001  7.000000e+000
      vertex -9.080127e+000 -2.775000e+001  7.000000e+000
    endloop
  endfacet
  facet normal  0.000000e+000  -0.000000e+000 -1.000000e+000
    outer loop
      vertex -1.400000e+001 -3.025000e+001  7.000000e+000
      vertex -9.080127e+000 -2.775000e+001  7.000000e+000
      vertex -7.250000e+000 -2.958013e+001  7.000000e+000
    endloop
  endfacet
  facet normal  0.000000e+000  -0.000000e+000 -1.000000e+000
    outer loop
      vertex -1.400000e+001 -3.025000e+001  7.000000e+000
      vertex -7.250000e+000 -2.958013e+001  7.000000e+000
      vertex -4.750000e+000 -3.025000e+001  7.000000e+000
    endloop
  endfacet
  facet normal  -0.000000e+000  0.000000e+000 -1.000000e+000
    outer loop
      vertex -1.400000e+001 -3.025000e+001  7.000000e+000
      vertex -4.750000e+000 -3.025000e+001  7.000000e+000
      vertex -1.150000e+001 -3.458013e+001  7.000000e+000
    endloop
  endfacet
  facet normal  0.000000e+000  0.000000e+000 -9.999999e-001
    outer loop
      vertex -1.400000e+001 -3.025000e+001  7.000000e+000
      vertex -1.150000e+001 -3.458013e+001  7.000000e+000
      vertex -1.333013e+001 -3.275000e+001  7.000000e+000
    endloop
  endfacet
  facet normal  0.000000e+000  0.000000e+000 -1.000000e+000
    outer loop
      vertex  3.000000e+000 -1.525000e+001  7.000000e+000
      vertex -4.198730e-001 -2.775000e+001  7.000000e+000
      vertex  2.500000e-001 -2.525000e+001  7.000000e+000
    endloop
  endfacet
  facet normal  0.000000e+000  0.000000e+000 -1.000000e+000
    outer loop
      vertex  3.000000e+000 -1.525000e+001  7.000000e+000
      vertex  2.500000e-001 -2.525000e+001  7.000000e+000
      vertex -4.198730e-001 -2.275000e+001  7.000000e+000
    endloop
  endfacet
  facet normal  0.000000e+000  0.000000e+000 -1.000000e+000
    outer loop
      vertex  3.000000e+000 -1.525000e+001  7.000000e+000
      vertex -4.198730e-001 -2.275000e+001  7.000000e+000
      vertex -2.250000e+000 -2.091987e+001  7.000000e+000
    endloop
  endfacet
  facet normal  0.000000e+000  0.000000e+000 -1.000000e+000
    outer loop
      vertex  3.000000e+000 -1.525000e+001  7.000000e+000
      vertex -2.250000e+000 -2.091987e+001  7.000000e+000
      vertex -4.750000e+000 -2.025000e+001  7.000000e+000
    endloop
  endfacet
  facet normal  0.000000e+000  0.000000e+000 -1.000000e+000
    outer loop
      vertex  3.000000e+000 -1.525000e+001  7.000000e+000
      vertex -4.750000e+000 -2.025000e+001  7.000000e+000
      vertex -1.333013e+001 -1.775000e+001  7.000000e+000
    endloop
  endfacet
  facet normal  0.000000e+000  0.000000e+000 -1.000000e+000
    outer loop
      vertex  3.000000e+000 -1.525000e+001  7.000000e+000
      vertex -1.333013e+001 -1.775000e+001  7.000000e+000
      vertex -9.000000e+000 -1.525000e+001  7.000000e+000
    endloop
  endfacet
  facet normal  0.000000e+000  0.000000e+000 -1.000000e+000
    outer loop
      vertex  3.000000e+000 -3.525000e+001  7.000000e+000
      vertex -9.000000e+000 -3.525000e+001  7.000000e+000
      vertex -1.150000e+001 -3.458013e+001  7.000000e+000
    endloop
  endfacet
  facet normal  0.000000e+000  0.000000e+000 -1.000000e+000
    outer loop
      vertex  3.000000e+000 -3.525000e+001  7.000000e+000
      vertex -1.150000e+001 -3.458013e+001  7.000000e+000
      vertex -4.750000e+000 -3.025000e+001  7.000000e+000
    endloop
  endfacet
  facet normal  0.000000e+000  0.000000e+000 -1.000000e+000
    outer loop
      vertex  3.000000e+000 -3.525000e+001  7.000000e+000
      vertex -4.750000e+000 -3.025000e+001  7.000000e+000
      vertex -2.250000e+000 -2.958013e+001  7.000000e+000
    endloop
  endfacet
  facet normal  0.000000e+000  0.000000e+000 -1.000000e+000
    outer loop
      vertex  3.000000e+000 -3.525000e+001  7.000000e+000
      vertex -2.250000e+000 -2.958013e+001  7.000000e+000
      vertex -4.198730e-001 -2.775000e+001  7.000000e+000
    endloop
  endfacet
  facet normal  0.000000e+000  0.000000e+000 -1.000000e+000
    outer loop
      vertex  3.000000e+000 -3.525000e+001  7.000000e+000
      vertex -4.198730e-001 -2.775000e+001  7.000000e+000
      vertex  3.000000e+000 -1.525000e+001  7.000000e+000
    endloop
  endfacet
  facet normal -1.000000e+000  0.000000e+000  0.000000e+000
    outer loop
      vertex -1.400000e+001 -2.025000e+001  7.000000e+000
      vertex -1.400000e+001 -3.025000e+001  7.000000e+000
      vertex -1.400000e+001 -2.025000e+001  2.500000e+001
    endloop
  endfacet
  facet normal -1.000000e+000  -0.000000e+000  0.000000e+000
    outer loop
      vertex -1.400000e+001 -2.025000e+001  2.500000e+001
      vertex -1.400000e+001 -3.025000e+001  7.000000e+000
      vertex -1.400000e+001 -3.025000e+001  2.500000e+001
    endloop
  endfacet
  facet normal  0.000000e+000  0.000000e+000  1.000000e+000
    outer loop
      vertex -1.400000e+001 -2.025000e+001  2.500000e+001
      vertex -1.400000e+001 -3.025000e+001  2.500000e+001
      vertex -9.080127e+000 -2.275000e+001  2.500000e+001
    endloop
  endfacet
  facet normal  0.000000e+000  -0.000000e+000  1.000000e+000
    outer loop
      vertex -1.400000e+001 -2.025000e+001  2.500000e+001
      vertex -9.080127e+000 -2.275000e+001  2.500000e+001
      vertex -7.250000e+000 -2.091987e+001  2.500000e+001
    endloop
  endfacet
  facet normal  0.000000e+000  -0.000000e+000  1.000000e+000
    outer loop
      vertex -1.400000e+001 -2.025000e+001  2.500000e+001
      vertex -7.250000e+000 -2.091987e+001  2.500000e+001
      vertex -4.750000e+000 -2.025000e+001  2.500000e+001
    endloop
  endfacet
  facet normal  0.000000e+000  0.000000e+000  1.000000e+000
    outer loop
      vertex -1.400000e+001 -2.025000e+001  2.500000e+001
      vertex -4.750000e+000 -2.025000e+001  2.500000e+001
      vertex -1.333013e+001 -1.775000e+001  2.500000e+001
    endloop
  endfacet
  facet normal  -0.000000e+000  0.000000e+000  1.000000e+000
    outer loop
      vertex  3.000000e+000 -1.525000e+001  2.500000e+001
      vertex -9.000000e+000 -1.525000e+001  2.500000e+001
      vertex -4.750000e+000 -2.025000e+001  2.500000e+001
    endloop
  endfacet
  facet normal  -0.000000e+000  0.000000e+000  1.000000e+000
    outer loop
      vertex  3.000000e+000 -1.525000e+001  2.500000e+001
      vertex -4.750000e+000 -2.025000e+001  2.500000e+001
      vertex -2.250000e+000 -2.091987e+001  2.500000e+001
    endloop
  endfacet
  facet normal  -0.000000e+000  0.000000e+000  1.000000e+000
    outer loop
      vertex  3.000000e+000 -1.525000e+001  2.500000e+001
      vertex -2.250000e+000 -2.091987e+001  2.500000e+001
      vertex -4.198730e-001 -2.275000e+001  2.500000e+001
    endloop
  endfacet
  facet normal  -0.000000e+000  0.000000e+000  1.000000e+000
    outer loop
      vertex  3.000000e+000 -1.525000e+001  2.500000e+001
      vertex -4.198730e-001 -2.275000e+001  2.500000e+001
      vertex  8.000000e+000 -3.525000e+001  2.500000e+001
    endloop
  endfacet
  facet normal  0.000000e+000  0.000000e+000  1.000000e+000
    outer loop
      vertex -1.400000e+001 -3.025000e+001  2.500000e+001
      vertex -4.750000e+000 -3.025000e+001  2.500000e+001
      vertex -7.250000e+000 -2.958013e+001  2.500000e+001
    endloop
  endfacet
  facet normal  0.000000e+000  0.000000e+000  1.000000e+000
    outer loop
      vertex -1.400000e+001 -3.025000e+001  2.500000e+001
      vertex -7.250000e+000 -2.958013e+001  2.500000e+001
      vertex -9.080127e+000 -2.775000e+001  2.500000e+001
    endloop
  endfacet
  facet normal  0.000000e+000  0.000000e+000  9.999999e-001
    outer loop
      vertex -1.400000e+001 -3.025000e+001  2.500000e+001
      vertex -9.080127e+000 -2.775000e+001  2.500000e+001
      vertex -9.750000e+000 -2.525000e+001  2.500000e+001
    endloop
  endfacet
  facet normal  0.000000e+000  -0.000000e+000  1.000000e+000
    outer loop
      vertex -1.400000e+001 -3.025000e+001  2.500000e+001
      vertex -9.750000e+000 -2.525000e+001  2.500000e+001
      vertex -9.080127e+000 -2.275000e+001  2.500000e+001
    endloop
  endfacet
  facet normal  0.000000e+000  0.000000e+000  1.000000e+000
    outer loop
      vertex  8.000000e+000 -3.525000e+001  2.500000e+001
      vertex -4.198730e-001 -2.275000e+001  2.500000e+001
      vertex  2.500000e-001 -2.525000e+001  2.500000e+001
    endloop
  endfacet
  facet normal  0.000000e+000  0.000000e+000  9.999999e-001
    outer loop
      vertex  8.000000e+000 -3.525000e+001  2.500000e+001
      vertex  2.500000e-001 -2.525000e+001  2.500000e+001
      vertex -4.198730e-001 -2.775000e+001  2.500000e+001
    endloop
  endfacet
  facet normal  0.000000e+000  0.000000e+000  1.000000e+000
    outer loop
      vertex  8.000000e+000 -3.525000e+001  2.500000e+001
      vertex -4.198730e-001 -2.775000e+001  2.500000e+001
      vertex -2.250000e+000 -2.958013e+001  2.500000e+001
    endloop
  endfacet
  facet normal  0.000000e+000  0.000000e+000  1.000000e+000
    outer loop
      vertex  8.000000e+000 -3.525000e+001  2.500000e+001
      vertex -2.250000e+000 -2.958013e+001  2.500000e+001
      vertex -4.750000e+000 -3.025000e+001  2.500000e+001
    endloop
  endfacet
  facet normal  -0.000000e+000  0.000000e+000  9.999999e-001
    outer loop
      vertex  8.000000e+000  7.105427e-015  2.500000e+001
      vertex  3.000000e+000  7.105427e-015  2.500000e+001
      vertex  8.000000e+000 -3.525000e+001  2.500000e+001
    endloop
  endfacet
  facet normal  0.000000e+000  0.000000e+000  1.000000e+000
    outer loop
      vertex  8.000000e+000 -3.525000e+001  2.500000e+001
      vertex  3.000000e+000  7.105427e-015  2.500000e+001
      vertex  3.000000e+000 -1.525000e+001  2.500000e+001
    endloop
  endfacet
  facet normal  -0.000000e+000  0.000000e+000  1.000000e+000
    outer loop
      vertex -4.750000e+000 -3.025000e+001  2.500000e+001
      vertex -1.400000e+001 -3.025000e+001  2.500000e+001
      vertex  8.000000e+000 -3.525000e+001  2.500000e+001
    endloop
  endfacet
  facet normal  0.000000e+000  0.000000e+000  1.000000e+000
    outer loop
      vertex  8.000000e+000 -3.525000e+001  2.500000e+001
      vertex -1.400000e+001 -3.025000e+001  2.500000e+001
      vertex -9.000000e+000 -3.525000e+001  2.500000e+001
    endloop
  endfacet
  facet normal  -0.000000e+000  -0.000000e+000  1.000000e+000
    outer loop
      vertex -1.400000e+001 -3.025000e+001  2.500000e+001
      vertex -1.333013e+001 -3.275000e+001  2.500000e+001
      vertex -9.000000e+000 -3.525000e+001  2.500000e+001
    endloop
  endfacet
  facet normal  0.000000e+000  0.000000e+000  1.000000e+000
    outer loop
      vertex -9.000000e+000 -3.525000e+001  2.500000e+001
      vertex -1.333013e+001 -3.275000e+001  2.500000e+001
      vertex -1.150000e+001 -3.458013e+001  2.500000e+001
    endloop
  endfacet
  facet normal  0.000000e+000  0.000000e+000  1.000000e+000
    outer loop
      vertex -4.750000e+000 -2.025000e+001  2.500000e+001
      vertex -9.000000e+000 -1.525000e+001  2.500000e+001
      vertex -1.333013e+001 -1.775000e+001  2.500000e+001
    endloop
  endfacet
  facet normal  0.000000e+000  0.000000e+000  1.000000e+000
    outer loop
      vertex -1.333013e+001 -1.775000e+001  2.500000e+001
      vertex -9.000000e+000 -1.525000e+001  2.500000e+001
      vertex -1.150000e+001 -1.591987e+001  2.500000e+001
    endloop
  endfacet
  facet normal  0.000000e+000  1.000000e+000  0.000000e+000
    outer loop
      vertex -9.000000e+000 -1.525000e+001  2.500000e+001
      vertex  3.000000e+000 -1.525000e+001  2.500000e+001
      vertex -9.000000e+000 -1.525000e+001  7.000000e+000
    endloop
  endfacet
  facet normal  0.000000e+000  1.000000e+000  0.000000e+000
    outer loop
      vertex -9.000000e+000 -1.525000e+001  7.000000e+000
      vertex  3.000000e+000 -1.525000e+001  2.500000e+001
      vertex  3.000000e+000 -1.525000e+001  7.000000e+000
    endloop
  endfacet
  facet normal -2.588191e-001  9.659258e-001  0.000000e+000
    outer loop
      vertex -9.000000e+000 -1.525000e+001  2.500000e+001
      vertex -9.000000e+000 -1.525000e+001  7.000000e+000
      vertex -1.150000e+001 -1.591987e+001  2.500000e+001
    endloop
  endfacet
  facet normal -2.588191e-001  9.659258e-001  0.000000e+000
    outer loop
      vertex -1.150000e+001 -1.591987e+001  2.500000e+001
      vertex -9.000000e+000 -1.525000e+001  7.000000e+000
      vertex -1.150000e+001 -1.591987e+001  7.000000e+000
    endloop
  endfacet
  facet normal -7.071068e-001  7.071068e-001  0.000000e+000
    outer loop
      vertex -1.150000e+001 -1.591987e+001  2.500000e+001
      vertex -1.150000e+001 -1.591987e+001  7.000000e+000
      vertex -1.333013e+001 -1.775000e+001  2.500000e+001
    endloop
  endfacet
  facet normal -7.071068e-001  7.071068e-001  0.000000e+000
    outer loop
      vertex -1.333013e+001 -1.775000e+001  2.500000e+001
      vertex -1.150000e+001 -1.591987e+001  7.000000e+000
      vertex -1.333013e+001 -1.775000e+001  7.000000e+000
    endloop
  endfacet
  facet normal -9.659258e-001  2.588191e-001  0.000000e+000
    outer loop
      vertex -1.333013e+001 -1.775000e+001  2.500000e+001
      vertex -1.333013e+001 -1.775000e+001  7.000000e+000
      vertex -1.400000e+001 -2.025000e+001  2.500000e+001
    endloop
  endfacet
  facet normal -9.659258e-001  2.588191e-001  0.000000e+000
    outer loop
      vertex -1.400000e+001 -2.025000e+001  2.500000e+001
      vertex -1.333013e+001 -1.775000e+001  7.000000e+000
      vertex -1.400000e+001 -2.025000e+001  7.000000e+000
    endloop
  endfacet
  facet normal  -0.000000e+000 -1.000000e+000  0.000000e+000
    outer loop
      vertex  3.000000e+000 -3.525000e+001  0.000000e+000
      vertex  8.000000e+000 -3.525000e+001  3.552714e-015
      vertex  3.000000e+000 -3.525000e+001  7.000000e+000
    endloop
  endfacet
  facet normal  0.000000e+000 -1.000000e+000  0.000000e+000
    outer loop
      vertex  3.000000e+000 -3.525000e+001  7.000000e+000
      vertex  8.000000e+000 -3.525000e+001  3.552714e-015
      vertex  8.000000e+000 -3.525000e+001  2.500000e+001
    endloop
  endfacet
  facet normal  0.000000e+000 -1.000000e+000  0.000000e+000
    outer loop
      vertex  3.000000e+000 -3.525000e+001  7.000000e+000
      vertex  8.000000e+000 -3.525000e+001  2.500000e+001
      vertex -9.000000e+000 -3.525000e+001  7.000000e+000
    endloop
  endfacet
  facet normal  0.000000e+000 -1.000000e+000  0.000000e+000
    outer loop
      vertex -9.000000e+000 -3.525000e+001  7.000000e+000
      vertex  8.000000e+000 -3.525000e+001  2.500000e+001
      vertex -9.000000e+000 -3.525000e+001  2.500000e+001
    endloop
  endfacet
  facet normal -2.588188e-001 -9.659259e-001  -0.000000e+000
    outer loop
      vertex -9.000000e+000 -3.525000e+001  7.000000e+000
      vertex -9.000000e+000 -3.525000e+001  2.500000e+001
      vertex -1.150000e+001 -3.458013e+001  7.000000e+000
    endloop
  endfacet
  facet normal -2.588188e-001 -9.659259e-001  0.000000e+000
    outer loop
      vertex -1.150000e+001 -3.458013e+001  7.000000e+000
      vertex -9.000000e+000 -3.525000e+001  2.500000e+001
      vertex -1.150000e+001 -3.458013e+001  2.500000e+001
    endloop
  endfacet
  facet normal -7.071069e-001 -7.071066e-001  -0.000000e+000
    outer loop
      vertex -1.150000e+001 -3.458013e+001  7.000000e+000
      vertex -1.150000e+001 -3.458013e+001  2.500000e+001
      vertex -1.333013e+001 -3.275000e+001  7.000000e+000
    endloop
  endfacet
  facet normal -7.071069e-001 -7.071066e-001  0.000000e+000
    outer loop
      vertex -1.333013e+001 -3.275000e+001  7.000000e+000
      vertex -1.150000e+001 -3.458013e+001  2.500000e+001
      vertex -1.333013e+001 -3.275000e+001  2.500000e+001
    endloop
  endfacet
  facet normal -9.659258e-001 -2.588191e-001  -0.000000e+000
    outer loop
      vertex -1.333013e+001 -3.275000e+001  7.000000e+000
      vertex -1.333013e+001 -3.275000e+001  2.500000e+001
      vertex -1.400000e+001 -3.025000e+001  7.000000e+000
    endloop
  endfacet
  facet normal -9.659258e-001 -2.588191e-001  0.000000e+000
    outer loop
      vertex -1.400000e+001 -3.025000e+001  7.000000e+000
      vertex -1.333013e+001 -3.275000e+001  2.500000e+001
      vertex -1.400000e+001 -3.025000e+001  2.500000e+001
    endloop
  endfacet
  facet normal  0.000000e+000  0.000000e+000  1.000000e+000
    outer loop
      vertex  3.000000e+000  5.000000e+000  5.000000e+001
      vertex  8.000000e+000  5.000000e+000  5.000000e+001
      vertex  3.000000e+000  2.000000e+001  5.000000e+001
    endloop
  endfacet
  facet normal  -0.000000e+000  0.000000e+000  1.000000e+000
    outer loop
      vertex  3.000000e+000  2.000000e+001  5.000000e+001
      vertex  8.000000e+000  5.000000e+000  5.000000e+001
      vertex  8.000000e+000  2.000000e+001  5.000000e+001
    endloop
  endfacet
  facet normal -9.999999e-001  0.000000e+000  0.000000e+000
    outer loop
      vertex  3.000000e+000  1.073223e+001  1.723223e+001
      vertex  3.000000e+000  1.250000e+001  1.650000e+001
      vertex  3.000000e+000 -1.525000e+001  2.500000e+001
    endloop
  endfacet
  facet normal -1.000000e+000  0.000000e+000  0.000000e+000
    outer loop
      vertex  3.000000e+000  1.250000e+001  8.500000e+000
      vertex  3.000000e+000  1.250000e+001  1.650000e+001
      vertex  3.000000e+000  1.426777e+001  7.767767e+000
    endloop
  endfacet
  facet normal -1.000000e+000  -0.000000e+000  -0.000000e+000
    outer loop
      vertex  3.000000e+000 -3.525000e+001  7.000000e+000
      vertex  3.000000e+000 -1.525000e+001  7.000000e+000
      vertex  3.000000e+000  1.000000e+001  6.000000e+000
    endloop
  endfacet
  facet normal -1.000000e+000  -0.000000e+000  -0.000000e+000
    outer loop
      vertex  3.000000e+000 -3.525000e+001  7.000000e+000
      vertex  3.000000e+000  1.000000e+001  6.000000e+000
      vertex  3.000000e+000  1.073223e+001  4.232233e+000
    endloop
  endfacet
  facet normal -1.000000e+000  -0.000000e+000  -0.000000e+000
    outer loop
      vertex  3.000000e+000 -3.525000e+001  7.000000e+000
      vertex  3.000000e+000  1.073223e+001  4.232233e+000
      vertex  3.000000e+000  1.250000e+001  3.500000e+000
    endloop
  endfacet
  facet normal -1.000000e+000  -0.000000e+000  0.000000e+000
    outer loop
      vertex  3.000000e+000 -3.525000e+001  7.000000e+000
      vertex  3.000000e+000  1.250000e+001  3.500000e+000
      vertex  3.000000e+000 -3.525000e+001  0.000000e+000
    endloop
  endfacet
  facet normal -1.000000e+000  0.000000e+000  0.000000e+000
    outer loop
      vertex  3.000000e+000 -1.525000e+001  7.000000e+000
      vertex  3.000000e+000 -1.525000e+001  2.500000e+001
      vertex  3.000000e+000  1.250000e+001  1.650000e+001
    endloop
  endfacet
  facet normal -1.000000e+000  0.000000e+000  -0.000000e+000
    outer loop
      vertex  3.000000e+000 -1.525000e+001  7.000000e+000
      vertex  3.000000e+000  1.250000e+001  1.650000e+001
      vertex  3.000000e+000  1.250000e+001  8.500000e+000
    endloop
  endfacet
  facet normal -1.000000e+000  0.000000e+000  0.000000e+000
    outer loop
      vertex  3.000000e+000 -1.525000e+001  7.000000e+000
      vertex  3.000000e+000  1.250000e+001  8.500000e+000
      vertex  3.000000e+000  1.073223e+001  7.767767e+000
    endloop
  endfacet
  facet normal -1.000000e+000  0.000000e+000  0.000000e+000
    outer loop
      vertex  3.000000e+000 -1.525000e+001  7.000000e+000
      vertex  3.000000e+000  1.073223e+001  7.767767e+000
      vertex  3.000000e+000  1.000000e+001  6.000000e+000
    endloop
  endfacet
  facet normal -9.999999e-001  -0.000000e+000  0.000000e+000
    outer loop
      vertex  3.000000e+000  7.105427e-015  2.500000e+001
      vertex  3.000000e+000  1.250000e+001  2.150000e+001
      vertex  3.000000e+000  1.073223e+001  2.076777e+001
    endloop
  endfacet
  facet normal -1.000000e+000  -0.000000e+000  0.000000e+000
    outer loop
      vertex  3.000000e+000  7.105427e-015  2.500000e+001
      vertex  3.000000e+000  1.073223e+001  2.076777e+001
      vertex  3.000000e+000  1.000000e+001  1.900000e+001
    endloop
  endfacet
  facet normal -1.000000e+000  -0.000000e+000  -0.000000e+000
    outer loop
      vertex  3.000000e+000  7.105427e-015  2.500000e+001
      vertex  3.000000e+000  1.000000e+001  1.900000e+001
      vertex  3.000000e+000  1.073223e+001  1.723223e+001
    endloop
  endfacet
  facet normal -1.000000e+000  0.000000e+000  0.000000e+000
    outer loop
      vertex  3.000000e+000  7.105427e-015  2.500000e+001
      vertex  3.000000e+000  1.073223e+001  1.723223e+001
      vertex  3.000000e+000 -1.525000e+001  2.500000e+001
    endloop
  endfacet
  facet normal -1.000000e+000  0.000000e+000  0.000000e+000
    outer loop
      vertex  3.000000e+000  1.250000e+001  2.150000e+001
      vertex  3.000000e+000  7.105427e-015  2.500000e+001
      vertex  3.000000e+000  7.105427e-015  4.500000e+001
    endloop
  endfacet
  facet normal -1.000000e+000  0.000000e+000  0.000000e+000
    outer loop
      vertex  3.000000e+000  1.250000e+001  2.150000e+001
      vertex  3.000000e+000  7.105427e-015  4.500000e+001
      vertex  3.000000e+000  6.698730e-001  4.750000e+001
    endloop
  endfacet
  facet normal -1.000000e+000  0.000000e+000  0.000000e+000
    outer loop
      vertex  3.000000e+000  1.250000e+001  2.150000e+001
      vertex  3.000000e+000  6.698730e-001  4.750000e+001
      vertex  3.000000e+000  2.500000e+000  4.933013e+001
    endloop
  endfacet
  facet normal -1.000000e+000  0.000000e+000  0.000000e+000
    outer loop
      vertex  3.000000e+000  1.250000e+001  2.150000e+001
      vertex  3.000000e+000  2.500000e+000  4.933013e+001
      vertex  3.000000e+000  5.000000e+000  5.000000e+001
    endloop
  endfacet
  facet normal -1.000000e+000  0.000000e+000  0.000000e+000
    outer loop
      vertex  3.000000e+000  1.250000e+001  2.150000e+001
      vertex  3.000000e+000  5.000000e+000  5.000000e+001
      vertex  3.000000e+000  2.000000e+001  5.000000e+001
    endloop
  endfacet
  facet normal -1.000000e+000  0.000000e+000  -0.000000e+000
    outer loop
      vertex  3.000000e+000  1.250000e+001  2.150000e+001
      vertex  3.000000e+000  2.000000e+001  5.000000e+001
      vertex  3.000000e+000  2.250000e+001  4.933013e+001
    endloop
  endfacet
  facet normal -1.000000e+000  0.000000e+000  -0.000000e+000
    outer loop
      vertex  3.000000e+000  1.250000e+001  2.150000e+001
      vertex  3.000000e+000  2.250000e+001  4.933013e+001
      vertex  3.000000e+000  2.433013e+001  4.750000e+001
    endloop
  endfacet
  facet normal -1.000000e+000  0.000000e+000  -0.000000e+000
    outer loop
      vertex  3.000000e+000  1.250000e+001  2.150000e+001
      vertex  3.000000e+000  2.433013e+001  4.750000e+001
      vertex  3.000000e+000  2.500000e+001  4.500000e+001
    endloop
  endfacet
  facet normal -9.999999e-001  0.000000e+000  0.000000e+000
    outer loop
      vertex  3.000000e+000  1.250000e+001  2.150000e+001
      vertex  3.000000e+000  2.500000e+001  4.500000e+001
      vertex  3.000000e+000  1.426777e+001  2.076777e+001
    endloop
  endfacet
  facet normal -1.000000e+000  0.000000e+000  0.000000e+000
    outer loop
      vertex  3.000000e+000  2.500000e+001  0.000000e+000
      vertex  3.000000e+000 -3.525000e+001  0.000000e+000
      vertex  3.000000e+000  1.250000e+001  3.500000e+000
    endloop
  endfacet
  facet normal -9.999999e-001  0.000000e+000  0.000000e+000
    outer loop
      vertex  3.000000e+000  2.500000e+001  0.000000e+000
      vertex  3.000000e+000  1.250000e+001  3.500000e+000
      vertex  3.000000e+000  1.426777e+001  4.232233e+000
    endloop
  endfacet
  facet normal -1.000000e+000  0.000000e+000  0.000000e+000
    outer loop
      vertex  3.000000e+000  2.500000e+001  0.000000e+000
      vertex  3.000000e+000  1.426777e+001  4.232233e+000
      vertex  3.000000e+000  1.500000e+001  6.000000e+000
    endloop
  endfacet
  facet normal -1.000000e+000  0.000000e+000  0.000000e+000
    outer loop
      vertex  3.000000e+000  2.500000e+001  0.000000e+000
      vertex  3.000000e+000  1.500000e+001  6.000000e+000
      vertex  3.000000e+000  1.426777e+001  7.767767e+000
    endloop
  endfacet
  facet normal -1.000000e+000  0.000000e+000  0.000000e+000
    outer loop
      vertex  3.000000e+000  2.500000e+001  0.000000e+000
      vertex  3.000000e+000  1.426777e+001  7.767767e+000
      vertex  3.000000e+000  1.250000e+001  1.650000e+001
    endloop
  endfacet
  facet normal -1.000000e+000  0.000000e+000  0.000000e+000
    outer loop
      vertex  3.000000e+000  2.500000e+001  0.000000e+000
      vertex  3.000000e+000  1.250000e+001  1.650000e+001
      vertex  3.000000e+000  1.426777e+001  1.723223e+001
    endloop
  endfacet
  facet normal -1.000000e+000  0.000000e+000  0.000000e+000
    outer loop
      vertex  3.000000e+000  2.500000e+001  0.000000e+000
      vertex  3.000000e+000  1.426777e+001  1.723223e+001
      vertex  3.000000e+000  1.500000e+001  1.900000e+001
    endloop
  endfacet
  facet normal -1.000000e+000  0.000000e+000  0.000000e+000
    outer loop
      vertex  3.000000e+000  2.500000e+001  0.000000e+000
      vertex  3.000000e+000  1.500000e+001  1.900000e+001
      vertex  3.000000e+000  1.426777e+001  2.076777e+001
    endloop
  endfacet
  facet normal -1.000000e+000  0.000000e+000  0.000000e+000
    outer loop
      vertex  3.000000e+000  2.500000e+001  0.000000e+000
      vertex  3.000000e+000  1.426777e+001  2.076777e+001
      vertex  3.000000e+000  2.500000e+001  4.500000e+001
    endloop
  endfacet
  facet normal  1.000000e+000  0.000000e+000  0.000000e+000
    outer loop
      vertex  8.000000e+000  1.426777e+001  7.767767e+000
      vertex  8.000000e+000  1.250000e+001  1.650000e+001
      vertex  8.000000e+000  1.250000e+001  8.500000e+000
    endloop
  endfacet
  facet normal  9.999999e-001  0.000000e+000  -0.000000e+000
    outer loop
      vertex  8.000000e+000  1.250000e+001  2.150000e+001
      vertex  8.000000e+000  1.426777e+001  2.076777e+001
      vertex  8.000000e+000  2.500000e+001  4.500000e+001
    endloop
  endfacet
  facet normal  1.000000e+000  0.000000e+000  0.000000e+000
    outer loop
      vertex  8.000000e+000  1.250000e+001  2.150000e+001
      vertex  8.000000e+000  2.500000e+001  4.500000e+001
      vertex  8.000000e+000  2.433013e+001  4.750000e+001
    endloop
  endfacet
  facet normal  1.000000e+000  0.000000e+000  0.000000e+000
    outer loop
      vertex  8.000000e+000  1.250000e+001  2.150000e+001
      vertex  8.000000e+000  2.433013e+001  4.750000e+001
      vertex  8.000000e+000  2.250000e+001  4.933013e+001
    endloop
  endfacet
  facet normal  1.000000e+000  0.000000e+000  0.000000e+000
    outer loop
      vertex  8.000000e+000  1.250000e+001  2.150000e+001
      vertex  8.000000e+000  2.250000e+001  4.933013e+001
      vertex  8.000000e+000  2.000000e+001  5.000000e+001
    endloop
  endfacet
  facet normal  1.000000e+000  0.000000e+000  0.000000e+000
    outer loop
      vertex  8.000000e+000  1.250000e+001  2.150000e+001
      vertex  8.000000e+000  2.000000e+001  5.000000e+001
      vertex  8.000000e+000  5.000000e+000  5.000000e+001
    endloop
  endfacet
  facet normal  1.000000e+000  0.000000e+000  0.000000e+000
    outer loop
      vertex  8.000000e+000  1.250000e+001  2.150000e+001
      vertex  8.000000e+000  5.000000e+000  5.000000e+001
      vertex  8.000000e+000  2.500000e+000  4.933013e+001
    endloop
  endfacet
  facet normal  1.000000e+000  0.000000e+000  0.000000e+000
    outer loop
      vertex  8.000000e+000  1.250000e+001  2.150000e+001
      vertex  8.000000e+000  2.500000e+000  4.933013e+001
      vertex  8.000000e+000  6.698730e-001  4.750000e+001
    endloop
  endfacet
  facet normal  1.000000e+000  0.000000e+000  0.000000e+000
    outer loop
      vertex  8.000000e+000  1.250000e+001  2.150000e+001
      vertex  8.000000e+000  6.698730e-001  4.750000e+001
      vertex  8.000000e+000  7.105427e-015  4.500000e+001
    endloop
  endfacet
  facet normal  1.000000e+000  0.000000e+000  0.000000e+000
    outer loop
      vertex  8.000000e+000  1.250000e+001  2.150000e+001
      vertex  8.000000e+000  7.105427e-015  4.500000e+001
      vertex  8.000000e+000  7.105427e-015  2.500000e+001
    endloop
  endfacet
  facet normal  9.999999e-001  0.000000e+000  0.000000e+000
    outer loop
      vertex  8.000000e+000  1.250000e+001  2.150000e+001
      vertex  8.000000e+000  7.105427e-015  2.500000e+001
      vertex  8.000000e+000  1.073223e+001  2.076777e+001
    endloop
  endfacet
  facet normal  1.000000e+000  0.000000e+000  0.000000e+000
    outer loop
      vertex  8.000000e+000 -3.525000e+001  3.552714e-015
      vertex  8.000000e+000  2.500000e+001  0.000000e+000
      vertex  8.000000e+000  1.250000e+001  3.500000e+000
    endloop
  endfacet
  facet normal  1.000000e+000  0.000000e+000  0.000000e+000
    outer loop
      vertex  8.000000e+000 -3.525000e+001  3.552714e-015
      vertex  8.000000e+000  1.250000e+001  3.500000e+000
      vertex  8.000000e+000  1.073223e+001  4.232233e+000
    endloop
  endfacet
  facet normal  1.000000e+000  0.000000e+000  0.000000e+000
    outer loop
      vertex  8.000000e+000 -3.525000e+001  3.552714e-015
      vertex  8.000000e+000  1.073223e+001  4.232233e+000
      vertex  8.000000e+000  1.000000e+001  6.000000e+000
    endloop
  endfacet
  facet normal  1.000000e+000  0.000000e+000  -0.000000e+000
    outer loop
      vertex  8.000000e+000 -3.525000e+001  3.552714e-015
      vertex  8.000000e+000  1.000000e+001  6.000000e+000
      vertex  8.000000e+000  1.073223e+001  7.767767e+000
    endloop
  endfacet
  facet normal  9.999999e-001  0.000000e+000  -0.000000e+000
    outer loop
      vertex  8.000000e+000 -3.525000e+001  3.552714e-015
      vertex  8.000000e+000  1.073223e+001  7.767767e+000
      vertex  8.000000e+000  1.250000e+001  8.500000e+000
    endloop
  endfacet
  facet normal  1.000000e+000  0.000000e+000  -0.000000e+000
    outer loop
      vertex  8.000000e+000 -3.525000e+001  3.552714e-015
      vertex  8.000000e+000  1.250000e+001  8.500000e+000
      vertex  8.000000e+000  1.250000e+001  1.650000e+001
    endloop
  endfacet
  facet normal  1.000000e+000  0.000000e+000  0.000000e+000
    outer loop
      vertex  8.000000e+000 -3.525000e+001  3.552714e-015
      vertex  8.000000e+000  1.250000e+001  1.650000e+001
      vertex  8.000000e+000  1.073223e+001  1.723223e+001
    endloop
  endfacet
  facet normal  1.000000e+000  0.000000e+000  0.000000e+000
    outer loop
      vertex  8.000000e+000 -3.525000e+001  3.552714e-015
      vertex  8.000000e+000  1.073223e+001  1.723223e+001
      vertex  8.000000e+000  1.000000e+001  1.900000e+001
    endloop
  endfacet
  facet normal  1.000000e+000  0.000000e+000  -0.000000e+000
    outer loop
      vertex  8.000000e+000 -3.525000e+001  3.552714e-015
      vertex  8.000000e+000  1.000000e+001  1.900000e+001
      vertex  8.000000e+000  1.073223e+001  2.076777e+001
    endloop
  endfacet
  facet normal  1.000000e+000  0.000000e+000  0.000000e+000
    outer loop
      vertex  8.000000e+000 -3.525000e+001  3.552714e-015
      vertex  8.000000e+000  1.073223e+001  2.076777e+001
      vertex  8.000000e+000  7.105427e-015  2.500000e+001
    endloop
  endfacet
  facet normal  1.000000e+000  0.000000e+000  0.000000e+000
    outer loop
      vertex  8.000000e+000 -3.525000e+001  3.552714e-015
      vertex  8.000000e+000  7.105427e-015  2.500000e+001
      vertex  8.000000e+000 -3.525000e+001  2.500000e+001
    endloop
  endfacet
  facet normal  1.000000e+000  0.000000e+000  0.000000e+000
    outer loop
      vertex  8.000000e+000  2.500000e+001  0.000000e+000
      vertex  8.000000e+000  2.500000e+001  4.500000e+001
      vertex  8.000000e+000  1.426777e+001  2.076777e+001
    endloop
  endfacet
  facet normal  1.000000e+000  0.000000e+000  0.000000e+000
    outer loop
      vertex  8.000000e+000  2.500000e+001  0.000000e+000
      vertex  8.000000e+000  1.426777e+001  2.076777e+001
      vertex  8.000000e+000  1.500000e+001  1.900000e+001
    endloop
  endfacet
  facet normal  1.000000e+000  0.000000e+000  0.000000e+000
    outer loop
      vertex  8.000000e+000  2.500000e+001  0.000000e+000
      vertex  8.000000e+000  1.500000e+001  1.900000e+001
      vertex  8.000000e+000  1.426777e+001  1.723223e+001
    endloop
  endfacet
  facet normal  1.000000e+000  0.000000e+000  0.000000e+000
    outer loop
      vertex  8.000000e+000  2.500000e+001  0.000000e+000
      vertex  8.000000e+000  1.426777e+001  1.723223e+001
      vertex  8.000000e+000  1.250000e+001  1.650000e+001
    endloop
  endfacet
  facet normal  1.000000e+000  0.000000e+000  0.000000e+000
    outer loop
      vertex  8.000000e+000  2.500000e+001  0.000000e+000
      vertex  8.000000e+000  1.250000e+001  1.650000e+001
      vertex  8.000000e+000  1.426777e+001  7.767767e+000
    endloop
  endfacet
  facet normal  1.000000e+000  0.000000e+000  0.000000e+000
    outer loop
      vertex  8.000000e+000  2.500000e+001  0.000000e+000
      vertex  8.000000e+000  1.426777e+001  7.767767e+000
      vertex  8.000000e+000  1.500000e+001  6.000000e+000
    endloop
  endfacet
  facet normal  1.000000e+000  0.000000e+000  0.000000e+000
    outer loop
      vertex  8.000000e+000  2.500000e+001  0.000000e+000
      vertex  8.000000e+000  1.500000e+001  6.000000e+000
      vertex  8.000000e+000  1.426777e+001  4.232233e+000
    endloop
  endfacet
  facet normal  9.999999e-001  0.000000e+000  0.000000e+000
    outer loop
      vertex  8.000000e+000  2.500000e+001  0.000000e+000
      vertex  8.000000e+000  1.426777e+001  4.232233e+000
      vertex  8.000000e+000  1.250000e+001  3.500000e+000
    endloop
  endfacet
  facet normal  0.000000e+000 -1.000000e+000  0.000000e+000
    outer loop
      vertex  3.000000e+000  7.105427e-015  2.500000e+001
      vertex  8.000000e+000  7.105427e-015  2.500000e+001
      vertex  3.000000e+000  7.105427e-015  4.500000e+001
    endloop
  endfacet
  facet normal  0.000000e+000 -1.000000e+000  0.000000e+000
    outer loop
      vertex  3.000000e+000  7.105427e-015  4.500000e+001
      vertex  8.000000e+000  7.105427e-015  2.500000e+001
      vertex  8.000000e+000  7.105427e-015  4.500000e+001
    endloop
  endfacet
  facet normal  0.000000e+000 -9.659259e-001  2.588191e-001
    outer loop
      vertex  3.000000e+000  7.105427e-015  4.500000e+001
      vertex  8.000000e+000  7.105427e-015  4.500000e+001
      vertex  3.000000e+000  6.698730e-001  4.750000e+001
    endloop
  endfacet
  facet normal  0.000000e+000 -9.659259e-001  2.588191e-001
    outer loop
      vertex  3.000000e+000  6.698730e-001  4.750000e+001
      vertex  8.000000e+000  7.105427e-015  4.500000e+001
      vertex  8.000000e+000  6.698730e-001  4.750000e+001
    endloop
  endfacet
  facet normal  0.000000e+000 -7.071069e-001  7.071066e-001
    outer loop
      vertex  3.000000e+000  6.698730e-001  4.750000e+001
      vertex  8.000000e+000  6.698730e-001  4.750000e+001
      vertex  3.000000e+000  2.500000e+000  4.933013e+001
    endloop
  endfacet
  facet normal  0.000000e+000 -7.071069e-001  7.071066e-001
    outer loop
      vertex  3.000000e+000  2.500000e+000  4.933013e+001
      vertex  8.000000e+000  6.698730e-001  4.750000e+001
      vertex  8.000000e+000  2.500000e+000  4.933013e+001
    endloop
  endfacet
  facet normal  0.000000e+000 -2.588188e-001  9.659259e-001
    outer loop
      vertex  3.000000e+000  2.500000e+000  4.933013e+001
      vertex  8.000000e+000  2.500000e+000  4.933013e+001
      vertex  3.000000e+000  5.000000e+000  5.000000e+001
    endloop
  endfacet
  facet normal  0.000000e+000 -2.588188e-001  9.659259e-001
    outer loop
      vertex  3.000000e+000  5.000000e+000  5.000000e+001
      vertex  8.000000e+000  2.500000e+000  4.933013e+001
      vertex  8.000000e+000  5.000000e+000  5.000000e+001
    endloop
  endfacet
  facet normal  0.000000e+000  1.000000e+000  0.000000e+000
    outer loop
      vertex  8.000000e+000  2.500000e+001  0.000000e+000
      vertex  3.000000e+000  2.500000e+001  0.000000e+000
      vertex  8.000000e+000  2.500000e+001  4.500000e+001
    endloop
  endfacet
  facet normal  0.000000e+000  1.000000e+000  0.000000e+000
    outer loop
      vertex  8.000000e+000  2.500000e+001  4.500000e+001
      vertex  3.000000e+000  2.500000e+001  0.000000e+000
      vertex  3.000000e+000  2.500000e+001  4.500000e+001
    endloop
  endfacet
  facet normal  0.000000e+000  2.588188e-001  9.659259e-001
    outer loop
      vertex  3.000000e+000  2.000000e+001  5.000000e+001
      vertex  8.000000e+000  2.000000e+001  5.000000e+001
      vertex  3.000000e+000  2.250000e+001  4.933013e+001
    endloop
  endfacet
  facet normal  -0.000000e+000  2.588188e-001  9.659259e-001
    outer loop
      vertex  3.000000e+000  2.250000e+001  4.933013e+001
      vertex  8.000000e+000  2.000000e+001  5.000000e+001
      vertex  8.000000e+000  2.250000e+001  4.933013e+001
    endloop
  endfacet
  facet normal  0.000000e+000  7.071068e-001  7.071068e-001
    outer loop
      vertex  3.000000e+000  2.250000e+001  4.933013e+001
      vertex  8.000000e+000  2.250000e+001  4.933013e+001
      vertex  3.000000e+000  2.433013e+001  4.750000e+001
    endloop
  endfacet
  facet normal  -0.000000e+000  7.071068e-001  7.071068e-001
    outer loop
      vertex  3.000000e+000  2.433013e+001  4.750000e+001
      vertex  8.000000e+000  2.250000e+001  4.933013e+001
      vertex  8.000000e+000  2.433013e+001  4.750000e+001
    endloop
  endfacet
  facet normal  0.000000e+000  9.659259e-001  2.588188e-001
    outer loop
      vertex  3.000000e+000  2.433013e+001  4.750000e+001
      vertex  8.000000e+000  2.433013e+001  4.750000e+001
      vertex  3.000000e+000  2.500000e+001  4.500000e+001
    endloop
  endfacet
  facet normal  -0.000000e+000  9.659259e-001  2.588188e-001
    outer loop
      vertex  3.000000e+000  2.500000e+001  4.500000e+001
      vertex  8.000000e+000  2.433013e+001  4.750000e+001
      vertex  8.000000e+000  2.500000e+001  4.500000e+001
    endloop
  endfacet
  facet normal  0.000000e+000 -5.896621e-017 -1.000000e+000
    outer loop
      vertex  8.000000e+000  2.500000e+001  0.000000e+000
      vertex  8.000000e+000 -3.525000e+001  3.552714e-015
      vertex  3.000000e+000  2.500000e+001  0.000000e+000
    endloop
  endfacet
  facet normal  7.105427e-016  0.000000e+000 -1.000000e+000
    outer loop
      vertex  3.000000e+000  2.500000e+001  0.000000e+000
      vertex  8.000000e+000 -3.525000e+001  3.552714e-015
      vertex  3.000000e+000 -3.525000e+001  0.000000e+000
    endloop
  endfacet
  facet normal  0.000000e+000  3.826835e-001 -9.238796e-001
    outer loop
      vertex  3.000000e+000  1.250000e+001  8.500000e+000
      vertex  8.000000e+000  1.073223e+001  7.767767e+000
      vertex  3.000000e+000  1.073223e+001  7.767767e+000
    endloop
  endfacet
  facet normal  0.000000e+000  9.238796e-001 -3.826835e-001
    outer loop
      vertex  3.000000e+000  1.073223e+001  7.767767e+000
      vertex  8.000000e+000  1.073223e+001  7.767767e+000
      vertex  8.000000e+000  1.000000e+001  6.000000e+000
    endloop
  endfacet
  facet normal  0.000000e+000  9.238796e-001 -3.826835e-001
    outer loop
      vertex  3.000000e+000  1.073223e+001  7.767767e+000
      vertex  8.000000e+000  1.000000e+001  6.000000e+000
      vertex  3.000000e+000  1.000000e+001  6.000000e+000
    endloop
  endfacet
  facet normal  0.000000e+000  3.826835e-001 -9.238796e-001
    outer loop
      vertex  8.000000e+000  1.073223e+001  7.767767e+000
      vertex  3.000000e+000  1.250000e+001  8.500000e+000
      vertex  8.000000e+000  1.250000e+001  8.500000e+000
    endloop
  endfacet
  facet normal  -0.000000e+000 -3.826835e-001 -9.238796e-001
    outer loop
      vertex  8.000000e+000  1.250000e+001  8.500000e+000
      vertex  3.000000e+000  1.250000e+001  8.500000e+000
      vertex  3.000000e+000  1.426777e+001  7.767767e+000
    endloop
  endfacet
  facet normal  0.000000e+000 -3.826835e-001 -9.238796e-001
    outer loop
      vertex  8.000000e+000  1.250000e+001  8.500000e+000
      vertex  3.000000e+000  1.426777e+001  7.767767e+000
      vertex  8.000000e+000  1.426777e+001  7.767767e+000
    endloop
  endfacet
  facet normal  -0.000000e+000 -9.238796e-001 -3.826835e-001
    outer loop
      vertex  8.000000e+000  1.426777e+001  7.767767e+000
      vertex  3.000000e+000  1.426777e+001  7.767767e+000
      vertex  3.000000e+000  1.500000e+001  6.000000e+000
    endloop
  endfacet
  facet normal  0.000000e+000 -9.238796e-001 -3.826835e-001
    outer loop
      vertex  8.000000e+000  1.426777e+001  7.767767e+000
      vertex  3.000000e+000  1.500000e+001  6.000000e+000
      vertex  8.000000e+000  1.500000e+001  6.000000e+000
    endloop
  endfacet
  facet normal  0.000000e+000 -3.826835e-001  9.238796e-001
    outer loop
      vertex  3.000000e+000  1.250000e+001  3.500000e+000
      vertex  8.000000e+000  1.426777e+001  4.232233e+000
      vertex  3.000000e+000  1.426777e+001  4.232233e+000
    endloop
  endfacet
  facet normal  0.000000e+000 -9.238796e-001  3.826835e-001
    outer loop
      vertex  3.000000e+000  1.426777e+001  4.232233e+000
      vertex  8.000000e+000  1.426777e+001  4.232233e+000
      vertex  8.000000e+000  1.500000e+001  6.000000e+000
    endloop
  endfacet
  facet normal  0.000000e+000 -9.238796e-001  3.826835e-001
    outer loop
      vertex  3.000000e+000  1.426777e+001  4.232233e+000
      vertex  8.000000e+000  1.500000e+001  6.000000e+000
      vertex  3.000000e+000  1.500000e+001  6.000000e+000
    endloop
  endfacet
  facet normal  0.000000e+000 -3.826835e-001  9.238796e-001
    outer loop
      vertex  8.000000e+000  1.426777e+001  4.232233e+000
      vertex  3.000000e+000  1.250000e+001  3.500000e+000
      vertex  8.000000e+000  1.250000e+001  3.500000e+000
    endloop
  endfacet
  facet normal  0.000000e+000  3.826835e-001  9.238796e-001
    outer loop
      vertex  8.000000e+000  1.250000e+001  3.500000e+000
      vertex  3.000000e+000  1.250000e+001  3.500000e+000
      vertex  3.000000e+000  1.073223e+001  4.232233e+000
    endloop
  endfacet
  facet normal  -0.000000e+000  3.826835e-001  9.238796e-001
    outer loop
      vertex  8.000000e+000  1.250000e+001  3.500000e+000
      vertex  3.000000e+000  1.073223e+001  4.232233e+000
      vertex  8.000000e+000  1.073223e+001  4.232233e+000
    endloop
  endfacet
  facet normal  0.000000e+000  9.238796e-001  3.826835e-001
    outer loop
      vertex  8.000000e+000  1.073223e+001  4.232233e+000
      vertex  3.000000e+000  1.073223e+001  4.232233e+000
      vertex  3.000000e+000  1.000000e+001  6.000000e+000
    endloop
  endfacet
  facet normal  -0.000000e+000  9.238796e-001  3.826835e-001
    outer loop
      vertex  8.000000e+000  1.073223e+001  4.232233e+000
      vertex  3.000000e+000  1.000000e+001  6.000000e+000
      vertex  8.000000e+000  1.000000e+001  6.000000e+000
    endloop
  endfacet
  facet normal  0.000000e+000  3.826835e-001 -9.238796e-001
    outer loop
      vertex  3.000000e+000  1.250000e+001  2.150000e+001
      vertex  8.000000e+000  1.073223e+001  2.076777e+001
      vertex  3.000000e+000  1.073223e+001  2.076777e+001
    endloop
  endfacet
  facet normal  0.000000e+000  9.238796e-001 -3.826835e-001
    outer loop
      vertex  3.000000e+000  1.073223e+001  2.076777e+001
      vertex  8.000000e+000  1.073223e+001  2.076777e+001
      vertex  8.000000e+000  1.000000e+001  1.900000e+001
    endloop
  endfacet
  facet normal  0.000000e+000  9.238796e-001 -3.826835e-001
    outer loop
      vertex  3.000000e+000  1.073223e+001  2.076777e+001
      vertex  8.000000e+000  1.000000e+001  1.900000e+001
      vertex  3.000000e+000  1.000000e+001  1.900000e+001
    endloop
  endfacet
  facet normal  0.000000e+000  3.826835e-001 -9.238796e-001
    outer loop
      vertex  8.000000e+000  1.073223e+001  2.076777e+001
      vertex  3.000000e+000  1.250000e+001  2.150000e+001
      vertex  8.000000e+000  1.250000e+001  2.150000e+001
    endloop
  endfacet
  facet normal  -0.000000e+000 -3.826835e-001 -9.238796e-001
    outer loop
      vertex  8.000000e+000  1.250000e+001  2.150000e+001
      vertex  3.000000e+000  1.250000e+001  2.150000e+001
      vertex  3.000000e+000  1.426777e+001  2.076777e+001
    endloop
  endfacet
  facet normal  0.000000e+000 -3.826835e-001 -9.238796e-001
    outer loop
      vertex  8.000000e+000  1.250000e+001  2.150000e+001
      vertex  3.000000e+000  1.426777e+001  2.076777e+001
      vertex  8.000000e+000  1.426777e+001  2.076777e+001
    endloop
  endfacet
  facet normal  -0.000000e+000 -9.238796e-001 -3.826835e-001
    outer loop
      vertex  8.000000e+000  1.426777e+001  2.076777e+001
      vertex  3.000000e+000  1.426777e+001  2.076777e+001
      vertex  3.000000e+000  1.500000e+001  1.900000e+001
    endloop
  endfacet
  facet normal  0.000000e+000 -9.238796e-001 -3.826835e-001
    outer loop
      vertex  8.000000e+000  1.426777e+001  2.076777e+001
      vertex  3.000000e+000  1.500000e+001  1.900000e+001
      vertex  8.000000e+000  1.500000e+001  1.900000e+001
    endloop
  endfacet
  facet normal  0.000000e+000 -3.826835e-001  9.238796e-001
    outer loop
      vertex  3.000000e+000  1.250000e+001  1.650000e+001
      vertex  8.000000e+000  1.426777e+001  1.723223e+001
      vertex  3.000000e+000  1.426777e+001  1.723223e+001
    endloop
  endfacet
  facet normal  0.000000e+000 -9.238796e-001  3.826835e-001
    outer loop
      vertex  3.000000e+000  1.426777e+001  1.723223e+001
      vertex  8.000000e+000  1.426777e+001  1.723223e+001
      vertex  8.000000e+000  1.500000e+001  1.900000e+001
    endloop
  endfacet
  facet normal  0.000000e+000 -9.238796e-001  3.826835e-001
    outer loop
      vertex  3.000000e+000  1.426777e+001  1.723223e+001
      vertex  8.000000e+000  1.500000e+001  1.900000e+001
      vertex  3.000000e+000  1.500000e+001  1.900000e+001
    endloop
  endfacet
  facet normal  0.000000e+000 -3.826835e-001  9.238796e-001
    outer loop
      vertex  8.000000e+000  1.426777e+001  1.723223e+001
      vertex  3.000000e+000  1.250000e+001  1.650000e+001
      vertex  8.000000e+000  1.250000e+001  1.650000e+001
    endloop
  endfacet
  facet normal  0.000000e+000  3.826835e-001  9.238796e-001
    outer loop
      vertex  8.000000e+000  1.250000e+001  1.650000e+001
      vertex  3.000000e+000  1.250000e+001  1.650000e+001
      vertex  3.000000e+000  1.073223e+001  1.723223e+001
    endloop
  endfacet
  facet normal  -0.000000e+000  3.826835e-001  9.238796e-001
    outer loop
      vertex  8.000000e+000  1.250000e+001  1.650000e+001
      vertex  3.000000e+000  1.073223e+001  1.723223e+001
      vertex  8.000000e+000  1.073223e+001  1.723223e+001
    endloop
  endfacet
  facet normal  0.000000e+000  9.238796e-001  3.826835e-001
    outer loop
      vertex  8.000000e+000  1.073223e+001  1.723223e+001
      vertex  3.000000e+000  1.073223e+001  1.723223e+001
      vertex  3.000000e+000  1.000000e+001  1.900000e+001
    endloop
  endfacet
  facet normal  -0.000000e+000  9.238796e-001  3.826835e-001
    outer loop
      vertex  8.000000e+000  1.073223e+001  1.723223e+001
      vertex  3.000000e+000  1.000000e+001  1.900000e+001
      vertex  8.000000e+000  1.000000e+001  1.900000e+001
    endloop
  endfacet
  facet normal -2.588188e-001  9.659259e-001  0.000000e+000
    outer loop
      vertex -4.750000e+000 -3.025000e+001  7.000000e+000
      vertex -2.250000e+000 -2.958013e+001  2.500000e+001
      vertex -2.250000e+000 -2.958013e+001  7.000000e+000
    endloop
  endfacet
  facet normal -7.071069e-001  7.071067e-001  0.000000e+000
    outer loop
      vertex -2.250000e+000 -2.958013e+001  7.000000e+000
      vertex -2.250000e+000 -2.958013e+001  2.500000e+001
      vertex -4.198730e-001 -2.775000e+001  2.500000e+001
    endloop
  endfacet
  facet normal -7.071069e-001  7.071067e-001  0.000000e+000
    outer loop
      vertex -2.250000e+000 -2.958013e+001  7.000000e+000
      vertex -4.198730e-001 -2.775000e+001  2.500000e+001
      vertex -4.198730e-001 -2.775000e+001  7.000000e+000
    endloop
  endfacet
  facet normal -9.659258e-001  2.588191e-001  0.000000e+000
    outer loop
      vertex -4.198730e-001 -2.775000e+001  7.000000e+000
      vertex -4.198730e-001 -2.775000e+001  2.500000e+001
      vertex  2.500000e-001 -2.525000e+001  2.500000e+001
    endloop
  endfacet
  facet normal -9.659258e-001  2.588191e-001  0.000000e+000
    outer loop
      vertex -4.198730e-001 -2.775000e+001  7.000000e+000
      vertex  2.500000e-001 -2.525000e+001  2.500000e+001
      vertex  2.500000e-001 -2.525000e+001  7.000000e+000
    endloop
  endfacet
  facet normal -2.588188e-001  9.659259e-001  0.000000e+000
    outer loop
      vertex -2.250000e+000 -2.958013e+001  2.500000e+001
      vertex -4.750000e+000 -3.025000e+001  7.000000e+000
      vertex -4.750000e+000 -3.025000e+001  2.500000e+001
    endloop
  endfacet
  facet normal  2.588188e-001  9.659259e-001  0.000000e+000
    outer loop
      vertex -4.750000e+000 -3.025000e+001  2.500000e+001
      vertex -4.750000e+000 -3.025000e+001  7.000000e+000
      vertex -7.250000e+000 -2.958013e+001  7.000000e+000
    endloop
  endfacet
  facet normal  2.588188e-001  9.659259e-001  -0.000000e+000
    outer loop
      vertex -4.750000e+000 -3.025000e+001  2.500000e+001
      vertex -7.250000e+000 -2.958013e+001  7.000000e+000
      vertex -7.250000e+000 -2.958013e+001  2.500000e+001
    endloop
  endfacet
  facet normal  7.071069e-001  7.071066e-001  0.000000e+000
    outer loop
      vertex -7.250000e+000 -2.958013e+001  2.500000e+001
      vertex -7.250000e+000 -2.958013e+001  7.000000e+000
      vertex -9.080127e+000 -2.775000e+001  7.000000e+000
    endloop
  endfacet
  facet normal  7.071069e-001  7.071066e-001  -0.000000e+000
    outer loop
      vertex -7.250000e+000 -2.958013e+001  2.500000e+001
      vertex -9.080127e+000 -2.775000e+001  7.000000e+000
      vertex -9.080127e+000 -2.775000e+001  2.500000e+001
    endloop
  endfacet
  facet normal  9.659258e-001  2.588191e-001  0.000000e+000
    outer loop
      vertex -9.080127e+000 -2.775000e+001  2.500000e+001
      vertex -9.080127e+000 -2.775000e+001  7.000000e+000
      vertex -9.750000e+000 -2.525000e+001  7.000000e+000
    endloop
  endfacet
  facet normal  9.659258e-001  2.588191e-001  -0.000000e+000
    outer loop
      vertex -9.080127e+000 -2.775000e+001  2.500000e+001
      vertex -9.750000e+000 -2.525000e+001  7.000000e+000
      vertex -9.750000e+000 -2.525000e+001  2.500000e+001
    endloop
  endfacet
  facet normal  2.588188e-001 -9.659259e-001  0.000000e+000
    outer loop
      vertex -4.750000e+000 -2.025000e+001  7.000000e+000
      vertex -7.250000e+000 -2.091987e+001  2.500000e+001
      vertex -7.250000e+000 -2.091987e+001  7.000000e+000
    endloop
  endfacet
  facet normal  7.071069e-001 -7.071066e-001  0.000000e+000
    outer loop
      vertex -7.250000e+000 -2.091987e+001  7.000000e+000
      vertex -7.250000e+000 -2.091987e+001  2.500000e+001
      vertex -9.080127e+000 -2.275000e+001  2.500000e+001
    endloop
  endfacet
  facet normal  7.071069e-001 -7.071066e-001  0.000000e+000
    outer loop
      vertex -7.250000e+000 -2.091987e+001  7.000000e+000
      vertex -9.080127e+000 -2.275000e+001  2.500000e+001
      vertex -9.080127e+000 -2.275000e+001  7.000000e+000
    endloop
  endfacet
  facet normal  9.659258e-001 -2.588191e-001  0.000000e+000
    outer loop
      vertex -9.080127e+000 -2.275000e+001  7.000000e+000
      vertex -9.080127e+000 -2.275000e+001  2.500000e+001
      vertex -9.750000e+000 -2.525000e+001  2.500000e+001
    endloop
  endfacet
  facet normal  9.659258e-001 -2.588191e-001  0.000000e+000
    outer loop
      vertex -9.080127e+000 -2.275000e+001  7.000000e+000
      vertex -9.750000e+000 -2.525000e+001  2.500000e+001
      vertex -9.750000e+000 -2.525000e+001  7.000000e+000
    endloop
  endfacet
  facet normal  2.588188e-001 -9.659259e-001  0.000000e+000
    outer loop
      vertex -7.250000e+000 -2.091987e+001  2.500000e+001
      vertex -4.750000e+000 -2.025000e+001  7.000000e+000
      vertex -4.750000e+000 -2.025000e+001  2.500000e+001
    endloop
  endfacet
  facet normal -2.588188e-001 -9.659259e-001  -0.000000e+000
    outer loop
      vertex -4.750000e+000 -2.025000e+001  2.500000e+001
      vertex -4.750000e+000 -2.025000e+001  7.000000e+000
      vertex -2.250000e+000 -2.091987e+001  7.000000e+000
    endloop
  endfacet
  facet normal -2.588188e-001 -9.659259e-001  0.000000e+000
    outer loop
      vertex -4.750000e+000 -2.025000e+001  2.500000e+001
      vertex -2.250000e+000 -2.091987e+001  7.000000e+000
      vertex -2.250000e+000 -2.091987e+001  2.500000e+001
    endloop
  endfacet
  facet normal -7.071069e-001 -7.071067e-001  -0.000000e+000
    outer loop
      vertex -2.250000e+000 -2.091987e+001  2.500000e+001
      vertex -2.250000e+000 -2.091987e+001  7.000000e+000
      vertex -4.198730e-001 -2.275000e+001  7.000000e+000
    endloop
  endfacet
  facet normal -7.071069e-001 -7.071067e-001  0.000000e+000
    outer loop
      vertex -2.250000e+000 -2.091987e+001  2.500000e+001
      vertex -4.198730e-001 -2.275000e+001  7.000000e+000
      vertex -4.198730e-001 -2.275000e+001  2.500000e+001
    endloop
  endfacet
  facet normal -9.659258e-001 -2.588191e-001  -0.000000e+000
    outer loop
      vertex -4.198730e-001 -2.275000e+001  2.500000e+001
      vertex -4.198730e-001 -2.275000e+001  7.000000e+000
      vertex  2.500000e-001 -2.525000e+001  7.000000e+000
    endloop
  endfacet
  facet normal -9.659258e-001 -2.588191e-001  0.000000e+000
    outer loop
      vertex -4.198730e-001 -2.275000e+001  2.500000e+001
      vertex  2.500000e-001 -2.525000e+001  7.000000e+000
      vertex  2.500000e-001 -2.525000e+001  2.500000e+001
    endloop
  endfacet
endsolid CATIA STL
