solid CATIA STL
  facet normal  0.000000e+000 -4.338838e-001  9.009688e-001
    outer loop
      vertex -2.650000e+001  1.390756e+000  8.906700e+000
      vertex  2.650000e+001  3.896811e+000  1.011355e+001
      vertex -2.650000e+001  3.896811e+000  1.011355e+001
    endloop
  endfacet
  facet normal  0.000000e+000 -7.818315e-001  6.234897e-001
    outer loop
      vertex -2.650000e+001  3.896811e+000  1.011355e+001
      vertex  2.650000e+001  3.896811e+000  1.011355e+001
      vertex  2.650000e+001  5.631055e+000  1.228823e+001
    endloop
  endfacet
  facet normal  0.000000e+000 -7.818315e-001  6.234897e-001
    outer loop
      vertex -2.650000e+001  3.896811e+000  1.011355e+001
      vertex  2.650000e+001  5.631055e+000  1.228823e+001
      vertex -2.650000e+001  5.631055e+000  1.228823e+001
    endloop
  endfacet
  facet normal  0.000000e+000 -9.749279e-001  2.225210e-001
    outer loop
      vertex -2.650000e+001  5.631055e+000  1.228823e+001
      vertex  2.650000e+001  5.631055e+000  1.228823e+001
      vertex  2.650000e+001  6.250000e+000  1.500000e+001
    endloop
  endfacet
  facet normal  0.000000e+000 -9.749279e-001  2.225210e-001
    outer loop
      vertex -2.650000e+001  5.631055e+000  1.228823e+001
      vertex  2.650000e+001  6.250000e+000  1.500000e+001
      vertex -2.650000e+001  6.250000e+000  1.500000e+001
    endloop
  endfacet
  facet normal  0.000000e+000 -4.338838e-001  9.009688e-001
    outer loop
      vertex  2.650000e+001  3.896811e+000  1.011355e+001
      vertex -2.650000e+001  1.390756e+000  8.906700e+000
      vertex  2.650000e+001  1.390756e+000  8.906700e+000
    endloop
  endfacet
  facet normal  0.000000e+000  0.000000e+000  1.000000e+000
    outer loop
      vertex  2.650000e+001  1.390756e+000  8.906700e+000
      vertex -2.650000e+001  1.390756e+000  8.906700e+000
      vertex -2.650000e+001 -1.390756e+000  8.906700e+000
    endloop
  endfacet
  facet normal  0.000000e+000  0.000000e+000  1.000000e+000
    outer loop
      vertex  2.650000e+001  1.390756e+000  8.906700e+000
      vertex -2.650000e+001 -1.390756e+000  8.906700e+000
      vertex  2.650000e+001 -1.390756e+000  8.906700e+000
    endloop
  endfacet
  facet normal  0.000000e+000  4.338838e-001  9.009688e-001
    outer loop
      vertex  2.650000e+001 -1.390756e+000  8.906700e+000
      vertex -2.650000e+001 -1.390756e+000  8.906700e+000
      vertex -2.650000e+001 -3.896811e+000  1.011355e+001
    endloop
  endfacet
  facet normal  -0.000000e+000  4.338838e-001  9.009688e-001
    outer loop
      vertex  2.650000e+001 -1.390756e+000  8.906700e+000
      vertex -2.650000e+001 -3.896811e+000  1.011355e+001
      vertex  2.650000e+001 -3.896811e+000  1.011355e+001
    endloop
  endfacet
  facet normal  0.000000e+000  7.818315e-001  6.234897e-001
    outer loop
      vertex  2.650000e+001 -3.896811e+000  1.011355e+001
      vertex -2.650000e+001 -3.896811e+000  1.011355e+001
      vertex -2.650000e+001 -5.631055e+000  1.228823e+001
    endloop
  endfacet
  facet normal  -0.000000e+000  7.818315e-001  6.234897e-001
    outer loop
      vertex  2.650000e+001 -3.896811e+000  1.011355e+001
      vertex -2.650000e+001 -5.631055e+000  1.228823e+001
      vertex  2.650000e+001 -5.631055e+000  1.228823e+001
    endloop
  endfacet
  facet normal  0.000000e+000  9.749279e-001  2.225210e-001
    outer loop
      vertex  2.650000e+001 -5.631055e+000  1.228823e+001
      vertex -2.650000e+001 -5.631055e+000  1.228823e+001
      vertex -2.650000e+001 -6.250000e+000  1.500000e+001
    endloop
  endfacet
  facet normal  -0.000000e+000  9.749279e-001  2.225210e-001
    outer loop
      vertex  2.650000e+001 -5.631055e+000  1.228823e+001
      vertex -2.650000e+001 -6.250000e+000  1.500000e+001
      vertex  2.650000e+001 -6.250000e+000  1.500000e+001
    endloop
  endfacet
  facet normal -1.000000e+000  0.000000e+000  0.000000e+000
    outer loop
      vertex -2.650000e+001 -2.650000e+001  0.000000e+000
      vertex -2.650000e+001 -2.650000e+001  1.500000e+001
      vertex -2.650000e+001 -6.250000e+000  1.500000e+001
    endloop
  endfacet
  facet normal -1.000000e+000  0.000000e+000  -0.000000e+000
    outer loop
      vertex -2.650000e+001 -2.650000e+001  0.000000e+000
      vertex -2.650000e+001 -6.250000e+000  1.500000e+001
      vertex -2.650000e+001 -5.631055e+000  1.228823e+001
    endloop
  endfacet
  facet normal -1.000000e+000  0.000000e+000  -0.000000e+000
    outer loop
      vertex -2.650000e+001 -2.650000e+001  0.000000e+000
      vertex -2.650000e+001 -5.631055e+000  1.228823e+001
      vertex -2.650000e+001 -3.896811e+000  1.011355e+001
    endloop
  endfacet
  facet normal -1.000000e+000  0.000000e+000  -0.000000e+000
    outer loop
      vertex -2.650000e+001 -2.650000e+001  0.000000e+000
      vertex -2.650000e+001 -3.896811e+000  1.011355e+001
      vertex -2.650000e+001 -1.390756e+000  8.906700e+000
    endloop
  endfacet
  facet normal -1.000000e+000  0.000000e+000  -0.000000e+000
    outer loop
      vertex -2.650000e+001 -2.650000e+001  0.000000e+000
      vertex -2.650000e+001 -1.390756e+000  8.906700e+000
      vertex -2.650000e+001  1.390756e+000  8.906700e+000
    endloop
  endfacet
  facet normal -1.000000e+000  0.000000e+000  -0.000000e+000
    outer loop
      vertex -2.650000e+001 -2.650000e+001  0.000000e+000
      vertex -2.650000e+001  1.390756e+000  8.906700e+000
      vertex -2.650000e+001  2.650000e+001  0.000000e+000
    endloop
  endfacet
  facet normal -1.000000e+000  0.000000e+000  0.000000e+000
    outer loop
      vertex -2.650000e+001  2.650000e+001  0.000000e+000
      vertex -2.650000e+001  1.390756e+000  8.906700e+000
      vertex -2.650000e+001  3.896811e+000  1.011355e+001
    endloop
  endfacet
  facet normal -1.000000e+000  0.000000e+000  0.000000e+000
    outer loop
      vertex -2.650000e+001  2.650000e+001  0.000000e+000
      vertex -2.650000e+001  3.896811e+000  1.011355e+001
      vertex -2.650000e+001  5.631055e+000  1.228823e+001
    endloop
  endfacet
  facet normal -1.000000e+000  0.000000e+000  0.000000e+000
    outer loop
      vertex -2.650000e+001  2.650000e+001  0.000000e+000
      vertex -2.650000e+001  5.631055e+000  1.228823e+001
      vertex -2.650000e+001  6.250000e+000  1.500000e+001
    endloop
  endfacet
  facet normal -1.000000e+000  0.000000e+000  0.000000e+000
    outer loop
      vertex -2.650000e+001  2.650000e+001  0.000000e+000
      vertex -2.650000e+001  6.250000e+000  1.500000e+001
      vertex -2.650000e+001  2.650000e+001  1.500000e+001
    endloop
  endfacet
  facet normal  1.000000e+000  0.000000e+000  0.000000e+000
    outer loop
      vertex  2.650000e+001  2.650000e+001  0.000000e+000
      vertex  2.650000e+001  2.650000e+001  1.500000e+001
      vertex  2.650000e+001  6.250000e+000  1.500000e+001
    endloop
  endfacet
  facet normal  1.000000e+000  0.000000e+000  0.000000e+000
    outer loop
      vertex  2.650000e+001  2.650000e+001  0.000000e+000
      vertex  2.650000e+001  6.250000e+000  1.500000e+001
      vertex  2.650000e+001  5.631055e+000  1.228823e+001
    endloop
  endfacet
  facet normal  1.000000e+000  0.000000e+000  0.000000e+000
    outer loop
      vertex  2.650000e+001  2.650000e+001  0.000000e+000
      vertex  2.650000e+001  5.631055e+000  1.228823e+001
      vertex  2.650000e+001  3.896811e+000  1.011355e+001
    endloop
  endfacet
  facet normal  1.000000e+000  0.000000e+000  0.000000e+000
    outer loop
      vertex  2.650000e+001  2.650000e+001  0.000000e+000
      vertex  2.650000e+001  3.896811e+000  1.011355e+001
      vertex  2.650000e+001  1.390756e+000  8.906700e+000
    endloop
  endfacet
  facet normal  1.000000e+000  0.000000e+000  0.000000e+000
    outer loop
      vertex  2.650000e+001  2.650000e+001  0.000000e+000
      vertex  2.650000e+001  1.390756e+000  8.906700e+000
      vertex  2.650000e+001 -1.390756e+000  8.906700e+000
    endloop
  endfacet
  facet normal  1.000000e+000  0.000000e+000  0.000000e+000
    outer loop
      vertex  2.650000e+001  2.650000e+001  0.000000e+000
      vertex  2.650000e+001 -1.390756e+000  8.906700e+000
      vertex  2.650000e+001 -2.650000e+001  0.000000e+000
    endloop
  endfacet
  facet normal  1.000000e+000  0.000000e+000  0.000000e+000
    outer loop
      vertex  2.650000e+001 -2.650000e+001  0.000000e+000
      vertex  2.650000e+001 -1.390756e+000  8.906700e+000
      vertex  2.650000e+001 -3.896811e+000  1.011355e+001
    endloop
  endfacet
  facet normal  1.000000e+000  0.000000e+000  0.000000e+000
    outer loop
      vertex  2.650000e+001 -2.650000e+001  0.000000e+000
      vertex  2.650000e+001 -3.896811e+000  1.011355e+001
      vertex  2.650000e+001 -5.631055e+000  1.228823e+001
    endloop
  endfacet
  facet normal  1.000000e+000  0.000000e+000  0.000000e+000
    outer loop
      vertex  2.650000e+001 -2.650000e+001  0.000000e+000
      vertex  2.650000e+001 -5.631055e+000  1.228823e+001
      vertex  2.650000e+001 -6.250000e+000  1.500000e+001
    endloop
  endfacet
  facet normal  1.000000e+000  0.000000e+000  0.000000e+000
    outer loop
      vertex  2.650000e+001 -2.650000e+001  0.000000e+000
      vertex  2.650000e+001 -6.250000e+000  1.500000e+001
      vertex  2.650000e+001 -2.650000e+001  1.500000e+001
    endloop
  endfacet
  facet normal  0.000000e+000  0.000000e+000  1.000000e+000
    outer loop
      vertex -2.650000e+001  6.250000e+000  1.500000e+001
      vertex  2.650000e+001  6.250000e+000  1.500000e+001
      vertex  1.883435e+001  1.543215e+001  1.500000e+001
    endloop
  endfacet
  facet normal  0.000000e+000  0.000000e+000  9.999999e-001
    outer loop
      vertex -2.650000e+001  6.250000e+000  1.500000e+001
      vertex  1.883435e+001  1.543215e+001  1.500000e+001
      vertex  1.716565e+001  1.543215e+001  1.500000e+001
    endloop
  endfacet
  facet normal  0.000000e+000  0.000000e+000  1.000000e+000
    outer loop
      vertex -2.650000e+001  6.250000e+000  1.500000e+001
      vertex  1.716565e+001  1.543215e+001  1.500000e+001
      vertex -1.716565e+001  1.543215e+001  1.500000e+001
    endloop
  endfacet
  facet normal  0.000000e+000  0.000000e+000  9.999999e-001
    outer loop
      vertex -2.650000e+001  6.250000e+000  1.500000e+001
      vertex -1.716565e+001  1.543215e+001  1.500000e+001
      vertex -1.883435e+001  1.543215e+001  1.500000e+001
    endloop
  endfacet
  facet normal  0.000000e+000  0.000000e+000  1.000000e+000
    outer loop
      vertex -2.650000e+001  6.250000e+000  1.500000e+001
      vertex -1.883435e+001  1.543215e+001  1.500000e+001
      vertex -2.018435e+001  1.641298e+001  1.500000e+001
    endloop
  endfacet
  facet normal  0.000000e+000  0.000000e+000  1.000000e+000
    outer loop
      vertex -2.650000e+001  6.250000e+000  1.500000e+001
      vertex -2.018435e+001  1.641298e+001  1.500000e+001
      vertex -2.070000e+001  1.800000e+001  1.500000e+001
    endloop
  endfacet
  facet normal  0.000000e+000  -0.000000e+000  1.000000e+000
    outer loop
      vertex -2.650000e+001  6.250000e+000  1.500000e+001
      vertex -2.070000e+001  1.800000e+001  1.500000e+001
      vertex -2.018435e+001  1.958702e+001  1.500000e+001
    endloop
  endfacet
  facet normal  0.000000e+000  0.000000e+000  9.999999e-001
    outer loop
      vertex -2.650000e+001  6.250000e+000  1.500000e+001
      vertex -2.018435e+001  1.958702e+001  1.500000e+001
      vertex -2.650000e+001  2.650000e+001  1.500000e+001
    endloop
  endfacet
  facet normal  -0.000000e+000  0.000000e+000  1.000000e+000
    outer loop
      vertex  2.650000e+001  2.650000e+001  1.500000e+001
      vertex -2.650000e+001  2.650000e+001  1.500000e+001
      vertex  1.716565e+001  2.056785e+001  1.500000e+001
    endloop
  endfacet
  facet normal  0.000000e+000  0.000000e+000  1.000000e+000
    outer loop
      vertex  2.650000e+001  2.650000e+001  1.500000e+001
      vertex  1.716565e+001  2.056785e+001  1.500000e+001
      vertex  1.883435e+001  2.056785e+001  1.500000e+001
    endloop
  endfacet
  facet normal  -0.000000e+000  0.000000e+000  1.000000e+000
    outer loop
      vertex  2.650000e+001  2.650000e+001  1.500000e+001
      vertex  1.883435e+001  2.056785e+001  1.500000e+001
      vertex  2.018435e+001  1.958702e+001  1.500000e+001
    endloop
  endfacet
  facet normal  -0.000000e+000  0.000000e+000  9.999999e-001
    outer loop
      vertex  2.650000e+001  2.650000e+001  1.500000e+001
      vertex  2.018435e+001  1.958702e+001  1.500000e+001
      vertex  2.650000e+001  6.250000e+000  1.500000e+001
    endloop
  endfacet
  facet normal  0.000000e+000  -0.000000e+000  1.000000e+000
    outer loop
      vertex -2.650000e+001  2.650000e+001  1.500000e+001
      vertex -2.018435e+001  1.958702e+001  1.500000e+001
      vertex -1.883435e+001  2.056785e+001  1.500000e+001
    endloop
  endfacet
  facet normal  0.000000e+000  -0.000000e+000  1.000000e+000
    outer loop
      vertex -2.650000e+001  2.650000e+001  1.500000e+001
      vertex -1.883435e+001  2.056785e+001  1.500000e+001
      vertex -1.716565e+001  2.056785e+001  1.500000e+001
    endloop
  endfacet
  facet normal  0.000000e+000  -0.000000e+000  1.000000e+000
    outer loop
      vertex -2.650000e+001  2.650000e+001  1.500000e+001
      vertex -1.716565e+001  2.056785e+001  1.500000e+001
      vertex  1.716565e+001  2.056785e+001  1.500000e+001
    endloop
  endfacet
  facet normal  0.000000e+000  0.000000e+000  1.000000e+000
    outer loop
      vertex  2.650000e+001  6.250000e+000  1.500000e+001
      vertex  2.018435e+001  1.958702e+001  1.500000e+001
      vertex  2.070000e+001  1.800000e+001  1.500000e+001
    endloop
  endfacet
  facet normal  0.000000e+000  0.000000e+000  1.000000e+000
    outer loop
      vertex  2.650000e+001  6.250000e+000  1.500000e+001
      vertex  2.070000e+001  1.800000e+001  1.500000e+001
      vertex  2.018435e+001  1.641298e+001  1.500000e+001
    endloop
  endfacet
  facet normal  0.000000e+000  0.000000e+000  1.000000e+000
    outer loop
      vertex  2.650000e+001  6.250000e+000  1.500000e+001
      vertex  2.018435e+001  1.641298e+001  1.500000e+001
      vertex  1.883435e+001  1.543215e+001  1.500000e+001
    endloop
  endfacet
  facet normal  -0.000000e+000  0.000000e+000  1.000000e+000
    outer loop
      vertex  1.716565e+001  2.056785e+001  1.500000e+001
      vertex -1.716565e+001  2.056785e+001  1.500000e+001
      vertex  1.581565e+001  1.958702e+001  1.500000e+001
    endloop
  endfacet
  facet normal  0.000000e+000  0.000000e+000  1.000000e+000
    outer loop
      vertex  1.581565e+001  1.958702e+001  1.500000e+001
      vertex -1.716565e+001  2.056785e+001  1.500000e+001
      vertex -1.581565e+001  1.958702e+001  1.500000e+001
    endloop
  endfacet
  facet normal  -0.000000e+000  0.000000e+000  1.000000e+000
    outer loop
      vertex  1.581565e+001  1.958702e+001  1.500000e+001
      vertex -1.581565e+001  1.958702e+001  1.500000e+001
      vertex  1.530000e+001  1.800000e+001  1.500000e+001
    endloop
  endfacet
  facet normal  0.000000e+000  0.000000e+000  1.000000e+000
    outer loop
      vertex  1.530000e+001  1.800000e+001  1.500000e+001
      vertex -1.581565e+001  1.958702e+001  1.500000e+001
      vertex -1.530000e+001  1.800000e+001  1.500000e+001
    endloop
  endfacet
  facet normal  -0.000000e+000  0.000000e+000  1.000000e+000
    outer loop
      vertex  1.530000e+001  1.800000e+001  1.500000e+001
      vertex -1.530000e+001  1.800000e+001  1.500000e+001
      vertex  1.581565e+001  1.641298e+001  1.500000e+001
    endloop
  endfacet
  facet normal  0.000000e+000  0.000000e+000  1.000000e+000
    outer loop
      vertex  1.581565e+001  1.641298e+001  1.500000e+001
      vertex -1.530000e+001  1.800000e+001  1.500000e+001
      vertex -1.581565e+001  1.641298e+001  1.500000e+001
    endloop
  endfacet
  facet normal  -0.000000e+000  0.000000e+000  1.000000e+000
    outer loop
      vertex  1.581565e+001  1.641298e+001  1.500000e+001
      vertex -1.581565e+001  1.641298e+001  1.500000e+001
      vertex  1.716565e+001  1.543215e+001  1.500000e+001
    endloop
  endfacet
  facet normal  0.000000e+000  0.000000e+000  1.000000e+000
    outer loop
      vertex  1.716565e+001  1.543215e+001  1.500000e+001
      vertex -1.581565e+001  1.641298e+001  1.500000e+001
      vertex -1.716565e+001  1.543215e+001  1.500000e+001
    endloop
  endfacet
  facet normal  -0.000000e+000  0.000000e+000  1.000000e+000
    outer loop
      vertex  2.650000e+001 -6.250000e+000  1.500000e+001
      vertex -2.650000e+001 -6.250000e+000  1.500000e+001
      vertex  1.716565e+001 -1.543215e+001  1.500000e+001
    endloop
  endfacet
  facet normal  0.000000e+000  0.000000e+000  9.999999e-001
    outer loop
      vertex  2.650000e+001 -6.250000e+000  1.500000e+001
      vertex  1.716565e+001 -1.543215e+001  1.500000e+001
      vertex  1.883435e+001 -1.543215e+001  1.500000e+001
    endloop
  endfacet
  facet normal  -0.000000e+000  0.000000e+000  1.000000e+000
    outer loop
      vertex  2.650000e+001 -6.250000e+000  1.500000e+001
      vertex  1.883435e+001 -1.543215e+001  1.500000e+001
      vertex  2.018435e+001 -1.641298e+001  1.500000e+001
    endloop
  endfacet
  facet normal  -0.000000e+000  0.000000e+000  9.999999e-001
    outer loop
      vertex  2.650000e+001 -6.250000e+000  1.500000e+001
      vertex  2.018435e+001 -1.641298e+001  1.500000e+001
      vertex  2.650000e+001 -2.650000e+001  1.500000e+001
    endloop
  endfacet
  facet normal  0.000000e+000  0.000000e+000  1.000000e+000
    outer loop
      vertex -2.650000e+001 -2.650000e+001  1.500000e+001
      vertex  2.650000e+001 -2.650000e+001  1.500000e+001
      vertex  1.883435e+001 -2.056785e+001  1.500000e+001
    endloop
  endfacet
  facet normal  0.000000e+000  0.000000e+000  1.000000e+000
    outer loop
      vertex -2.650000e+001 -2.650000e+001  1.500000e+001
      vertex  1.883435e+001 -2.056785e+001  1.500000e+001
      vertex  1.716565e+001 -2.056785e+001  1.500000e+001
    endloop
  endfacet
  facet normal  0.000000e+000  0.000000e+000  1.000000e+000
    outer loop
      vertex -2.650000e+001 -2.650000e+001  1.500000e+001
      vertex  1.716565e+001 -2.056785e+001  1.500000e+001
      vertex -1.716565e+001 -2.056785e+001  1.500000e+001
    endloop
  endfacet
  facet normal  0.000000e+000  0.000000e+000  1.000000e+000
    outer loop
      vertex -2.650000e+001 -2.650000e+001  1.500000e+001
      vertex -1.716565e+001 -2.056785e+001  1.500000e+001
      vertex -1.883435e+001 -2.056785e+001  1.500000e+001
    endloop
  endfacet
  facet normal  0.000000e+000  0.000000e+000  1.000000e+000
    outer loop
      vertex -2.650000e+001 -2.650000e+001  1.500000e+001
      vertex -1.883435e+001 -2.056785e+001  1.500000e+001
      vertex -2.018435e+001 -1.958702e+001  1.500000e+001
    endloop
  endfacet
  facet normal  0.000000e+000  0.000000e+000  1.000000e+000
    outer loop
      vertex -2.650000e+001 -2.650000e+001  1.500000e+001
      vertex -2.018435e+001 -1.958702e+001  1.500000e+001
      vertex -2.070000e+001 -1.800000e+001  1.500000e+001
    endloop
  endfacet
  facet normal  0.000000e+000  -0.000000e+000  1.000000e+000
    outer loop
      vertex -2.650000e+001 -2.650000e+001  1.500000e+001
      vertex -2.070000e+001 -1.800000e+001  1.500000e+001
      vertex -2.018435e+001 -1.641298e+001  1.500000e+001
    endloop
  endfacet
  facet normal  0.000000e+000  0.000000e+000  9.999999e-001
    outer loop
      vertex -2.650000e+001 -2.650000e+001  1.500000e+001
      vertex -2.018435e+001 -1.641298e+001  1.500000e+001
      vertex -2.650000e+001 -6.250000e+000  1.500000e+001
    endloop
  endfacet
  facet normal  0.000000e+000  -0.000000e+000  1.000000e+000
    outer loop
      vertex -2.650000e+001 -6.250000e+000  1.500000e+001
      vertex -2.018435e+001 -1.641298e+001  1.500000e+001
      vertex -1.883435e+001 -1.543215e+001  1.500000e+001
    endloop
  endfacet
  facet normal  0.000000e+000  -0.000000e+000  9.999999e-001
    outer loop
      vertex -2.650000e+001 -6.250000e+000  1.500000e+001
      vertex -1.883435e+001 -1.543215e+001  1.500000e+001
      vertex -1.716565e+001 -1.543215e+001  1.500000e+001
    endloop
  endfacet
  facet normal  0.000000e+000  -0.000000e+000  1.000000e+000
    outer loop
      vertex -2.650000e+001 -6.250000e+000  1.500000e+001
      vertex -1.716565e+001 -1.543215e+001  1.500000e+001
      vertex  1.716565e+001 -1.543215e+001  1.500000e+001
    endloop
  endfacet
  facet normal  0.000000e+000  0.000000e+000  1.000000e+000
    outer loop
      vertex  2.650000e+001 -2.650000e+001  1.500000e+001
      vertex  2.018435e+001 -1.641298e+001  1.500000e+001
      vertex  2.070000e+001 -1.800000e+001  1.500000e+001
    endloop
  endfacet
  facet normal  0.000000e+000  0.000000e+000  1.000000e+000
    outer loop
      vertex  2.650000e+001 -2.650000e+001  1.500000e+001
      vertex  2.070000e+001 -1.800000e+001  1.500000e+001
      vertex  2.018435e+001 -1.958702e+001  1.500000e+001
    endloop
  endfacet
  facet normal  0.000000e+000  0.000000e+000  1.000000e+000
    outer loop
      vertex  2.650000e+001 -2.650000e+001  1.500000e+001
      vertex  2.018435e+001 -1.958702e+001  1.500000e+001
      vertex  1.883435e+001 -2.056785e+001  1.500000e+001
    endloop
  endfacet
  facet normal  -0.000000e+000  0.000000e+000  1.000000e+000
    outer loop
      vertex  1.716565e+001 -1.543215e+001  1.500000e+001
      vertex -1.716565e+001 -1.543215e+001  1.500000e+001
      vertex  1.581565e+001 -1.641298e+001  1.500000e+001
    endloop
  endfacet
  facet normal  0.000000e+000  0.000000e+000  1.000000e+000
    outer loop
      vertex  1.581565e+001 -1.641298e+001  1.500000e+001
      vertex -1.716565e+001 -1.543215e+001  1.500000e+001
      vertex -1.581565e+001 -1.641298e+001  1.500000e+001
    endloop
  endfacet
  facet normal  -0.000000e+000  0.000000e+000  1.000000e+000
    outer loop
      vertex  1.581565e+001 -1.641298e+001  1.500000e+001
      vertex -1.581565e+001 -1.641298e+001  1.500000e+001
      vertex  1.530000e+001 -1.800000e+001  1.500000e+001
    endloop
  endfacet
  facet normal  0.000000e+000  0.000000e+000  1.000000e+000
    outer loop
      vertex  1.530000e+001 -1.800000e+001  1.500000e+001
      vertex -1.581565e+001 -1.641298e+001  1.500000e+001
      vertex -1.530000e+001 -1.800000e+001  1.500000e+001
    endloop
  endfacet
  facet normal  -0.000000e+000  0.000000e+000  1.000000e+000
    outer loop
      vertex  1.530000e+001 -1.800000e+001  1.500000e+001
      vertex -1.530000e+001 -1.800000e+001  1.500000e+001
      vertex  1.581565e+001 -1.958702e+001  1.500000e+001
    endloop
  endfacet
  facet normal  0.000000e+000  0.000000e+000  1.000000e+000
    outer loop
      vertex  1.581565e+001 -1.958702e+001  1.500000e+001
      vertex -1.530000e+001 -1.800000e+001  1.500000e+001
      vertex -1.581565e+001 -1.958702e+001  1.500000e+001
    endloop
  endfacet
  facet normal  -0.000000e+000  0.000000e+000  1.000000e+000
    outer loop
      vertex  1.581565e+001 -1.958702e+001  1.500000e+001
      vertex -1.581565e+001 -1.958702e+001  1.500000e+001
      vertex  1.716565e+001 -2.056785e+001  1.500000e+001
    endloop
  endfacet
  facet normal  0.000000e+000  0.000000e+000  1.000000e+000
    outer loop
      vertex  1.716565e+001 -2.056785e+001  1.500000e+001
      vertex -1.581565e+001 -1.958702e+001  1.500000e+001
      vertex -1.716565e+001 -2.056785e+001  1.500000e+001
    endloop
  endfacet
  facet normal  0.000000e+000  -0.000000e+000 -1.000000e+000
    outer loop
      vertex -2.018435e+001 -1.641298e+001  0.000000e+000
      vertex -1.883435e+001  1.543215e+001  0.000000e+000
      vertex -1.883435e+001 -1.543215e+001  0.000000e+000
    endloop
  endfacet
  facet normal  0.000000e+000  0.000000e+000 -1.000000e+000
    outer loop
      vertex -2.650000e+001 -2.650000e+001  0.000000e+000
      vertex -2.650000e+001  2.650000e+001  0.000000e+000
      vertex -2.070000e+001  1.800000e+001  0.000000e+000
    endloop
  endfacet
  facet normal  0.000000e+000  -0.000000e+000 -1.000000e+000
    outer loop
      vertex -2.650000e+001 -2.650000e+001  0.000000e+000
      vertex -2.070000e+001  1.800000e+001  0.000000e+000
      vertex -2.018435e+001  1.641298e+001  0.000000e+000
    endloop
  endfacet
  facet normal  0.000000e+000  -0.000000e+000 -1.000000e+000
    outer loop
      vertex -2.650000e+001 -2.650000e+001  0.000000e+000
      vertex -2.018435e+001  1.641298e+001  0.000000e+000
      vertex -1.883435e+001  1.543215e+001  0.000000e+000
    endloop
  endfacet
  facet normal  0.000000e+000  0.000000e+000 -1.000000e+000
    outer loop
      vertex -2.650000e+001 -2.650000e+001  0.000000e+000
      vertex -1.883435e+001  1.543215e+001  0.000000e+000
      vertex -2.018435e+001 -1.641298e+001  0.000000e+000
    endloop
  endfacet
  facet normal  0.000000e+000  0.000000e+000 -1.000000e+000
    outer loop
      vertex -2.650000e+001 -2.650000e+001  0.000000e+000
      vertex -2.018435e+001 -1.641298e+001  0.000000e+000
      vertex -2.070000e+001 -1.800000e+001  0.000000e+000
    endloop
  endfacet
  facet normal  0.000000e+000  -0.000000e+000 -1.000000e+000
    outer loop
      vertex -2.650000e+001 -2.650000e+001  0.000000e+000
      vertex -2.070000e+001 -1.800000e+001  0.000000e+000
      vertex -2.018435e+001 -1.958702e+001  0.000000e+000
    endloop
  endfacet
  facet normal  0.000000e+000  -0.000000e+000 -1.000000e+000
    outer loop
      vertex -2.650000e+001 -2.650000e+001  0.000000e+000
      vertex -2.018435e+001 -1.958702e+001  0.000000e+000
      vertex -1.883435e+001 -2.056785e+001  0.000000e+000
    endloop
  endfacet
  facet normal  0.000000e+000  -0.000000e+000 -1.000000e+000
    outer loop
      vertex -2.650000e+001 -2.650000e+001  0.000000e+000
      vertex -1.883435e+001 -2.056785e+001  0.000000e+000
      vertex -1.716565e+001 -2.056785e+001  0.000000e+000
    endloop
  endfacet
  facet normal  0.000000e+000  -0.000000e+000 -1.000000e+000
    outer loop
      vertex -2.650000e+001 -2.650000e+001  0.000000e+000
      vertex -1.716565e+001 -2.056785e+001  0.000000e+000
      vertex  1.716565e+001 -2.056785e+001  0.000000e+000
    endloop
  endfacet
  facet normal  0.000000e+000  -0.000000e+000 -1.000000e+000
    outer loop
      vertex -2.650000e+001 -2.650000e+001  0.000000e+000
      vertex  1.716565e+001 -2.056785e+001  0.000000e+000
      vertex  1.883435e+001 -2.056785e+001  0.000000e+000
    endloop
  endfacet
  facet normal  0.000000e+000  -0.000000e+000 -1.000000e+000
    outer loop
      vertex -2.650000e+001 -2.650000e+001  0.000000e+000
      vertex  1.883435e+001 -2.056785e+001  0.000000e+000
      vertex  2.650000e+001 -2.650000e+001  0.000000e+000
    endloop
  endfacet
  facet normal  -0.000000e+000  0.000000e+000 -1.000000e+000
    outer loop
      vertex -2.650000e+001  2.650000e+001  0.000000e+000
      vertex  2.650000e+001  2.650000e+001  0.000000e+000
      vertex  1.883435e+001  2.056785e+001  0.000000e+000
    endloop
  endfacet
  facet normal  0.000000e+000  0.000000e+000 -1.000000e+000
    outer loop
      vertex -2.650000e+001  2.650000e+001  0.000000e+000
      vertex  1.883435e+001  2.056785e+001  0.000000e+000
      vertex  1.716565e+001  2.056785e+001  0.000000e+000
    endloop
  endfacet
  facet normal  0.000000e+000  0.000000e+000 -1.000000e+000
    outer loop
      vertex -2.650000e+001  2.650000e+001  0.000000e+000
      vertex  1.716565e+001  2.056785e+001  0.000000e+000
      vertex -1.716565e+001  2.056785e+001  0.000000e+000
    endloop
  endfacet
  facet normal  0.000000e+000  0.000000e+000 -1.000000e+000
    outer loop
      vertex -2.650000e+001  2.650000e+001  0.000000e+000
      vertex -1.716565e+001  2.056785e+001  0.000000e+000
      vertex -1.883435e+001  2.056785e+001  0.000000e+000
    endloop
  endfacet
  facet normal  -0.000000e+000  0.000000e+000 -1.000000e+000
    outer loop
      vertex -2.650000e+001  2.650000e+001  0.000000e+000
      vertex -1.883435e+001  2.056785e+001  0.000000e+000
      vertex -2.018435e+001  1.958702e+001  0.000000e+000
    endloop
  endfacet
  facet normal  -0.000000e+000  0.000000e+000 -1.000000e+000
    outer loop
      vertex -2.650000e+001  2.650000e+001  0.000000e+000
      vertex -2.018435e+001  1.958702e+001  0.000000e+000
      vertex -2.070000e+001  1.800000e+001  0.000000e+000
    endloop
  endfacet
  facet normal  0.000000e+000  0.000000e+000 -1.000000e+000
    outer loop
      vertex  2.650000e+001 -2.650000e+001  0.000000e+000
      vertex  1.883435e+001 -2.056785e+001  0.000000e+000
      vertex  2.018435e+001 -1.958702e+001  0.000000e+000
    endloop
  endfacet
  facet normal  0.000000e+000  0.000000e+000 -1.000000e+000
    outer loop
      vertex  2.650000e+001 -2.650000e+001  0.000000e+000
      vertex  2.018435e+001 -1.958702e+001  0.000000e+000
      vertex  2.070000e+001 -1.800000e+001  0.000000e+000
    endloop
  endfacet
  facet normal  0.000000e+000  0.000000e+000 -1.000000e+000
    outer loop
      vertex  2.650000e+001 -2.650000e+001  0.000000e+000
      vertex  2.070000e+001 -1.800000e+001  0.000000e+000
      vertex  2.018435e+001 -1.641298e+001  0.000000e+000
    endloop
  endfacet
  facet normal  0.000000e+000  0.000000e+000 -1.000000e+000
    outer loop
      vertex  2.650000e+001 -2.650000e+001  0.000000e+000
      vertex  2.018435e+001 -1.641298e+001  0.000000e+000
      vertex  1.883435e+001  1.543215e+001  0.000000e+000
    endloop
  endfacet
  facet normal  0.000000e+000  0.000000e+000 -1.000000e+000
    outer loop
      vertex  2.650000e+001 -2.650000e+001  0.000000e+000
      vertex  1.883435e+001  1.543215e+001  0.000000e+000
      vertex  2.018435e+001  1.641298e+001  0.000000e+000
    endloop
  endfacet
  facet normal  0.000000e+000  0.000000e+000 -1.000000e+000
    outer loop
      vertex  2.650000e+001 -2.650000e+001  0.000000e+000
      vertex  2.018435e+001  1.641298e+001  0.000000e+000
      vertex  2.070000e+001  1.800000e+001  0.000000e+000
    endloop
  endfacet
  facet normal  0.000000e+000  0.000000e+000 -1.000000e+000
    outer loop
      vertex  2.650000e+001  2.650000e+001  0.000000e+000
      vertex  2.650000e+001 -2.650000e+001  0.000000e+000
      vertex  2.070000e+001  1.800000e+001  0.000000e+000
    endloop
  endfacet
  facet normal  0.000000e+000  0.000000e+000 -1.000000e+000
    outer loop
      vertex  2.650000e+001  2.650000e+001  0.000000e+000
      vertex  2.070000e+001  1.800000e+001  0.000000e+000
      vertex  2.018435e+001  1.958702e+001  0.000000e+000
    endloop
  endfacet
  facet normal  0.000000e+000  0.000000e+000 -1.000000e+000
    outer loop
      vertex  2.650000e+001  2.650000e+001  0.000000e+000
      vertex  2.018435e+001  1.958702e+001  0.000000e+000
      vertex  1.883435e+001  2.056785e+001  0.000000e+000
    endloop
  endfacet
  facet normal  0.000000e+000  0.000000e+000 -1.000000e+000
    outer loop
      vertex  1.716565e+001  1.543215e+001  0.000000e+000
      vertex -1.716565e+001 -1.543215e+001  0.000000e+000
      vertex -1.716565e+001  1.543215e+001  0.000000e+000
    endloop
  endfacet
  facet normal  0.000000e+000  -0.000000e+000 -1.000000e+000
    outer loop
      vertex -1.716565e+001  1.543215e+001  0.000000e+000
      vertex -1.716565e+001 -1.543215e+001  0.000000e+000
      vertex -1.883435e+001 -1.543215e+001  0.000000e+000
    endloop
  endfacet
  facet normal  0.000000e+000  0.000000e+000 -1.000000e+000
    outer loop
      vertex -1.716565e+001  1.543215e+001  0.000000e+000
      vertex -1.883435e+001 -1.543215e+001  0.000000e+000
      vertex -1.883435e+001  1.543215e+001  0.000000e+000
    endloop
  endfacet
  facet normal  0.000000e+000  0.000000e+000 -1.000000e+000
    outer loop
      vertex  2.018435e+001 -1.641298e+001  0.000000e+000
      vertex  1.883435e+001 -1.543215e+001  0.000000e+000
      vertex  1.883435e+001  1.543215e+001  0.000000e+000
    endloop
  endfacet
  facet normal  0.000000e+000  -0.000000e+000 -1.000000e+000
    outer loop
      vertex  1.883435e+001  1.543215e+001  0.000000e+000
      vertex  1.883435e+001 -1.543215e+001  0.000000e+000
      vertex  1.716565e+001 -1.543215e+001  0.000000e+000
    endloop
  endfacet
  facet normal  0.000000e+000  0.000000e+000 -1.000000e+000
    outer loop
      vertex  1.883435e+001  1.543215e+001  0.000000e+000
      vertex  1.716565e+001 -1.543215e+001  0.000000e+000
      vertex  1.716565e+001  1.543215e+001  0.000000e+000
    endloop
  endfacet
  facet normal  0.000000e+000  0.000000e+000 -1.000000e+000
    outer loop
      vertex  1.530000e+001  1.800000e+001  0.000000e+000
      vertex -1.581565e+001  1.958702e+001  0.000000e+000
      vertex  1.581565e+001  1.958702e+001  0.000000e+000
    endloop
  endfacet
  facet normal  0.000000e+000  0.000000e+000 -1.000000e+000
    outer loop
      vertex  1.581565e+001  1.958702e+001  0.000000e+000
      vertex -1.581565e+001  1.958702e+001  0.000000e+000
      vertex -1.716565e+001  2.056785e+001  0.000000e+000
    endloop
  endfacet
  facet normal  0.000000e+000  0.000000e+000 -1.000000e+000
    outer loop
      vertex  1.581565e+001  1.958702e+001  0.000000e+000
      vertex -1.716565e+001  2.056785e+001  0.000000e+000
      vertex  1.716565e+001  2.056785e+001  0.000000e+000
    endloop
  endfacet
  facet normal  0.000000e+000  0.000000e+000 -1.000000e+000
    outer loop
      vertex -1.581565e+001  1.958702e+001  0.000000e+000
      vertex  1.530000e+001  1.800000e+001  0.000000e+000
      vertex -1.530000e+001  1.800000e+001  0.000000e+000
    endloop
  endfacet
  facet normal  0.000000e+000  0.000000e+000 -1.000000e+000
    outer loop
      vertex -1.530000e+001  1.800000e+001  0.000000e+000
      vertex  1.530000e+001  1.800000e+001  0.000000e+000
      vertex  1.581565e+001  1.641298e+001  0.000000e+000
    endloop
  endfacet
  facet normal  0.000000e+000  0.000000e+000 -1.000000e+000
    outer loop
      vertex -1.530000e+001  1.800000e+001  0.000000e+000
      vertex  1.581565e+001  1.641298e+001  0.000000e+000
      vertex -1.581565e+001  1.641298e+001  0.000000e+000
    endloop
  endfacet
  facet normal  0.000000e+000  0.000000e+000 -1.000000e+000
    outer loop
      vertex -1.581565e+001  1.641298e+001  0.000000e+000
      vertex  1.581565e+001  1.641298e+001  0.000000e+000
      vertex  1.716565e+001  1.543215e+001  0.000000e+000
    endloop
  endfacet
  facet normal  0.000000e+000  0.000000e+000 -1.000000e+000
    outer loop
      vertex -1.581565e+001  1.641298e+001  0.000000e+000
      vertex  1.716565e+001  1.543215e+001  0.000000e+000
      vertex -1.716565e+001  1.543215e+001  0.000000e+000
    endloop
  endfacet
  facet normal  0.000000e+000  0.000000e+000 -1.000000e+000
    outer loop
      vertex  1.716565e+001  1.543215e+001  0.000000e+000
      vertex  1.716565e+001 -1.543215e+001  0.000000e+000
      vertex -1.716565e+001 -1.543215e+001  0.000000e+000
    endloop
  endfacet
  facet normal  0.000000e+000  0.000000e+000 -1.000000e+000
    outer loop
      vertex -1.716565e+001 -1.543215e+001  0.000000e+000
      vertex  1.716565e+001 -1.543215e+001  0.000000e+000
      vertex  1.581565e+001 -1.641298e+001  0.000000e+000
    endloop
  endfacet
  facet normal  0.000000e+000  0.000000e+000 -1.000000e+000
    outer loop
      vertex -1.716565e+001 -1.543215e+001  0.000000e+000
      vertex  1.581565e+001 -1.641298e+001  0.000000e+000
      vertex -1.581565e+001 -1.641298e+001  0.000000e+000
    endloop
  endfacet
  facet normal  0.000000e+000  0.000000e+000 -1.000000e+000
    outer loop
      vertex -1.581565e+001 -1.641298e+001  0.000000e+000
      vertex  1.581565e+001 -1.641298e+001  0.000000e+000
      vertex  1.530000e+001 -1.800000e+001  0.000000e+000
    endloop
  endfacet
  facet normal  0.000000e+000  0.000000e+000 -1.000000e+000
    outer loop
      vertex -1.581565e+001 -1.641298e+001  0.000000e+000
      vertex  1.530000e+001 -1.800000e+001  0.000000e+000
      vertex -1.530000e+001 -1.800000e+001  0.000000e+000
    endloop
  endfacet
  facet normal  0.000000e+000  0.000000e+000 -1.000000e+000
    outer loop
      vertex -1.530000e+001 -1.800000e+001  0.000000e+000
      vertex  1.530000e+001 -1.800000e+001  0.000000e+000
      vertex  1.581565e+001 -1.958702e+001  0.000000e+000
    endloop
  endfacet
  facet normal  0.000000e+000  0.000000e+000 -1.000000e+000
    outer loop
      vertex -1.530000e+001 -1.800000e+001  0.000000e+000
      vertex  1.581565e+001 -1.958702e+001  0.000000e+000
      vertex -1.581565e+001 -1.958702e+001  0.000000e+000
    endloop
  endfacet
  facet normal  0.000000e+000  0.000000e+000 -1.000000e+000
    outer loop
      vertex -1.581565e+001 -1.958702e+001  0.000000e+000
      vertex  1.581565e+001 -1.958702e+001  0.000000e+000
      vertex  1.716565e+001 -2.056785e+001  0.000000e+000
    endloop
  endfacet
  facet normal  0.000000e+000  0.000000e+000 -1.000000e+000
    outer loop
      vertex -1.581565e+001 -1.958702e+001  0.000000e+000
      vertex  1.716565e+001 -2.056785e+001  0.000000e+000
      vertex -1.716565e+001 -2.056785e+001  0.000000e+000
    endloop
  endfacet
  facet normal -5.877849e-001  8.090172e-001  0.000000e+000
    outer loop
      vertex -1.716565e+001 -2.056785e+001  0.000000e+000
      vertex -1.581565e+001 -1.958702e+001  1.500000e+001
      vertex -1.581565e+001 -1.958702e+001  0.000000e+000
    endloop
  endfacet
  facet normal -9.510566e-001  3.090166e-001  0.000000e+000
    outer loop
      vertex -1.581565e+001 -1.958702e+001  0.000000e+000
      vertex -1.581565e+001 -1.958702e+001  1.500000e+001
      vertex -1.530000e+001 -1.800000e+001  1.500000e+001
    endloop
  endfacet
  facet normal -9.510566e-001  3.090166e-001  0.000000e+000
    outer loop
      vertex -1.581565e+001 -1.958702e+001  0.000000e+000
      vertex -1.530000e+001 -1.800000e+001  1.500000e+001
      vertex -1.530000e+001 -1.800000e+001  0.000000e+000
    endloop
  endfacet
  facet normal -5.877849e-001  8.090172e-001  0.000000e+000
    outer loop
      vertex -1.581565e+001 -1.958702e+001  1.500000e+001
      vertex -1.716565e+001 -2.056785e+001  0.000000e+000
      vertex -1.716565e+001 -2.056785e+001  1.500000e+001
    endloop
  endfacet
  facet normal  0.000000e+000  1.000000e+000  0.000000e+000
    outer loop
      vertex -1.716565e+001 -2.056785e+001  1.500000e+001
      vertex -1.716565e+001 -2.056785e+001  0.000000e+000
      vertex -1.883435e+001 -2.056785e+001  0.000000e+000
    endloop
  endfacet
  facet normal  0.000000e+000  1.000000e+000  0.000000e+000
    outer loop
      vertex -1.716565e+001 -2.056785e+001  1.500000e+001
      vertex -1.883435e+001 -2.056785e+001  0.000000e+000
      vertex -1.883435e+001 -2.056785e+001  1.500000e+001
    endloop
  endfacet
  facet normal  5.877852e-001  8.090171e-001  0.000000e+000
    outer loop
      vertex -1.883435e+001 -2.056785e+001  1.500000e+001
      vertex -1.883435e+001 -2.056785e+001  0.000000e+000
      vertex -2.018435e+001 -1.958702e+001  0.000000e+000
    endloop
  endfacet
  facet normal  5.877852e-001  8.090171e-001  -0.000000e+000
    outer loop
      vertex -1.883435e+001 -2.056785e+001  1.500000e+001
      vertex -2.018435e+001 -1.958702e+001  0.000000e+000
      vertex -2.018435e+001 -1.958702e+001  1.500000e+001
    endloop
  endfacet
  facet normal  9.510562e-001  3.090176e-001  0.000000e+000
    outer loop
      vertex -2.018435e+001 -1.958702e+001  1.500000e+001
      vertex -2.018435e+001 -1.958702e+001  0.000000e+000
      vertex -2.070000e+001 -1.800000e+001  0.000000e+000
    endloop
  endfacet
  facet normal  9.510562e-001  3.090176e-001  -0.000000e+000
    outer loop
      vertex -2.018435e+001 -1.958702e+001  1.500000e+001
      vertex -2.070000e+001 -1.800000e+001  0.000000e+000
      vertex -2.070000e+001 -1.800000e+001  1.500000e+001
    endloop
  endfacet
  facet normal  5.877855e-001 -8.090167e-001  0.000000e+000
    outer loop
      vertex -1.883435e+001 -1.543215e+001  0.000000e+000
      vertex -2.018435e+001 -1.641298e+001  1.500000e+001
      vertex -2.018435e+001 -1.641298e+001  0.000000e+000
    endloop
  endfacet
  facet normal  9.510562e-001 -3.090176e-001  0.000000e+000
    outer loop
      vertex -2.018435e+001 -1.641298e+001  0.000000e+000
      vertex -2.018435e+001 -1.641298e+001  1.500000e+001
      vertex -2.070000e+001 -1.800000e+001  1.500000e+001
    endloop
  endfacet
  facet normal  9.510562e-001 -3.090176e-001  0.000000e+000
    outer loop
      vertex -2.018435e+001 -1.641298e+001  0.000000e+000
      vertex -2.070000e+001 -1.800000e+001  1.500000e+001
      vertex -2.070000e+001 -1.800000e+001  0.000000e+000
    endloop
  endfacet
  facet normal  5.877855e-001 -8.090167e-001  0.000000e+000
    outer loop
      vertex -2.018435e+001 -1.641298e+001  1.500000e+001
      vertex -1.883435e+001 -1.543215e+001  0.000000e+000
      vertex -1.883435e+001 -1.543215e+001  1.500000e+001
    endloop
  endfacet
  facet normal  0.000000e+000 -1.000000e+000  0.000000e+000
    outer loop
      vertex -1.883435e+001 -1.543215e+001  1.500000e+001
      vertex -1.883435e+001 -1.543215e+001  0.000000e+000
      vertex -1.716565e+001 -1.543215e+001  0.000000e+000
    endloop
  endfacet
  facet normal  0.000000e+000 -1.000000e+000  0.000000e+000
    outer loop
      vertex -1.883435e+001 -1.543215e+001  1.500000e+001
      vertex -1.716565e+001 -1.543215e+001  0.000000e+000
      vertex -1.716565e+001 -1.543215e+001  1.500000e+001
    endloop
  endfacet
  facet normal -5.877853e-001 -8.090171e-001  -0.000000e+000
    outer loop
      vertex -1.716565e+001 -1.543215e+001  1.500000e+001
      vertex -1.716565e+001 -1.543215e+001  0.000000e+000
      vertex -1.581565e+001 -1.641298e+001  0.000000e+000
    endloop
  endfacet
  facet normal -5.877853e-001 -8.090171e-001  0.000000e+000
    outer loop
      vertex -1.716565e+001 -1.543215e+001  1.500000e+001
      vertex -1.581565e+001 -1.641298e+001  0.000000e+000
      vertex -1.581565e+001 -1.641298e+001  1.500000e+001
    endloop
  endfacet
  facet normal -9.510566e-001 -3.090166e-001  -0.000000e+000
    outer loop
      vertex -1.581565e+001 -1.641298e+001  1.500000e+001
      vertex -1.581565e+001 -1.641298e+001  0.000000e+000
      vertex -1.530000e+001 -1.800000e+001  0.000000e+000
    endloop
  endfacet
  facet normal -9.510566e-001 -3.090166e-001  0.000000e+000
    outer loop
      vertex -1.581565e+001 -1.641298e+001  1.500000e+001
      vertex -1.530000e+001 -1.800000e+001  0.000000e+000
      vertex -1.530000e+001 -1.800000e+001  1.500000e+001
    endloop
  endfacet
  facet normal  5.877853e-001 -8.090171e-001  0.000000e+000
    outer loop
      vertex  1.716565e+001 -1.543215e+001  0.000000e+000
      vertex  1.581565e+001 -1.641298e+001  1.500000e+001
      vertex  1.581565e+001 -1.641298e+001  0.000000e+000
    endloop
  endfacet
  facet normal  9.510566e-001 -3.090166e-001  0.000000e+000
    outer loop
      vertex  1.581565e+001 -1.641298e+001  0.000000e+000
      vertex  1.581565e+001 -1.641298e+001  1.500000e+001
      vertex  1.530000e+001 -1.800000e+001  1.500000e+001
    endloop
  endfacet
  facet normal  9.510566e-001 -3.090166e-001  0.000000e+000
    outer loop
      vertex  1.581565e+001 -1.641298e+001  0.000000e+000
      vertex  1.530000e+001 -1.800000e+001  1.500000e+001
      vertex  1.530000e+001 -1.800000e+001  0.000000e+000
    endloop
  endfacet
  facet normal  5.877853e-001 -8.090171e-001  0.000000e+000
    outer loop
      vertex  1.581565e+001 -1.641298e+001  1.500000e+001
      vertex  1.716565e+001 -1.543215e+001  0.000000e+000
      vertex  1.716565e+001 -1.543215e+001  1.500000e+001
    endloop
  endfacet
  facet normal  0.000000e+000 -1.000000e+000  0.000000e+000
    outer loop
      vertex  1.716565e+001 -1.543215e+001  1.500000e+001
      vertex  1.716565e+001 -1.543215e+001  0.000000e+000
      vertex  1.883435e+001 -1.543215e+001  0.000000e+000
    endloop
  endfacet
  facet normal  0.000000e+000 -1.000000e+000  0.000000e+000
    outer loop
      vertex  1.716565e+001 -1.543215e+001  1.500000e+001
      vertex  1.883435e+001 -1.543215e+001  0.000000e+000
      vertex  1.883435e+001 -1.543215e+001  1.500000e+001
    endloop
  endfacet
  facet normal -5.877855e-001 -8.090167e-001  -0.000000e+000
    outer loop
      vertex  1.883435e+001 -1.543215e+001  1.500000e+001
      vertex  1.883435e+001 -1.543215e+001  0.000000e+000
      vertex  2.018435e+001 -1.641298e+001  0.000000e+000
    endloop
  endfacet
  facet normal -5.877855e-001 -8.090167e-001  0.000000e+000
    outer loop
      vertex  1.883435e+001 -1.543215e+001  1.500000e+001
      vertex  2.018435e+001 -1.641298e+001  0.000000e+000
      vertex  2.018435e+001 -1.641298e+001  1.500000e+001
    endloop
  endfacet
  facet normal -9.510562e-001 -3.090176e-001  -0.000000e+000
    outer loop
      vertex  2.018435e+001 -1.641298e+001  1.500000e+001
      vertex  2.018435e+001 -1.641298e+001  0.000000e+000
      vertex  2.070000e+001 -1.800000e+001  0.000000e+000
    endloop
  endfacet
  facet normal -9.510562e-001 -3.090176e-001  0.000000e+000
    outer loop
      vertex  2.018435e+001 -1.641298e+001  1.500000e+001
      vertex  2.070000e+001 -1.800000e+001  0.000000e+000
      vertex  2.070000e+001 -1.800000e+001  1.500000e+001
    endloop
  endfacet
  facet normal -5.877852e-001  8.090171e-001  0.000000e+000
    outer loop
      vertex  1.883435e+001 -2.056785e+001  0.000000e+000
      vertex  2.018435e+001 -1.958702e+001  1.500000e+001
      vertex  2.018435e+001 -1.958702e+001  0.000000e+000
    endloop
  endfacet
  facet normal -9.510562e-001  3.090176e-001  0.000000e+000
    outer loop
      vertex  2.018435e+001 -1.958702e+001  0.000000e+000
      vertex  2.018435e+001 -1.958702e+001  1.500000e+001
      vertex  2.070000e+001 -1.800000e+001  1.500000e+001
    endloop
  endfacet
  facet normal -9.510562e-001  3.090176e-001  0.000000e+000
    outer loop
      vertex  2.018435e+001 -1.958702e+001  0.000000e+000
      vertex  2.070000e+001 -1.800000e+001  1.500000e+001
      vertex  2.070000e+001 -1.800000e+001  0.000000e+000
    endloop
  endfacet
  facet normal -5.877852e-001  8.090171e-001  0.000000e+000
    outer loop
      vertex  2.018435e+001 -1.958702e+001  1.500000e+001
      vertex  1.883435e+001 -2.056785e+001  0.000000e+000
      vertex  1.883435e+001 -2.056785e+001  1.500000e+001
    endloop
  endfacet
  facet normal  0.000000e+000  1.000000e+000  0.000000e+000
    outer loop
      vertex  1.883435e+001 -2.056785e+001  1.500000e+001
      vertex  1.883435e+001 -2.056785e+001  0.000000e+000
      vertex  1.716565e+001 -2.056785e+001  0.000000e+000
    endloop
  endfacet
  facet normal  0.000000e+000  1.000000e+000  0.000000e+000
    outer loop
      vertex  1.883435e+001 -2.056785e+001  1.500000e+001
      vertex  1.716565e+001 -2.056785e+001  0.000000e+000
      vertex  1.716565e+001 -2.056785e+001  1.500000e+001
    endloop
  endfacet
  facet normal  5.877849e-001  8.090172e-001  0.000000e+000
    outer loop
      vertex  1.716565e+001 -2.056785e+001  1.500000e+001
      vertex  1.716565e+001 -2.056785e+001  0.000000e+000
      vertex  1.581565e+001 -1.958702e+001  0.000000e+000
    endloop
  endfacet
  facet normal  5.877849e-001  8.090172e-001  -0.000000e+000
    outer loop
      vertex  1.716565e+001 -2.056785e+001  1.500000e+001
      vertex  1.581565e+001 -1.958702e+001  0.000000e+000
      vertex  1.581565e+001 -1.958702e+001  1.500000e+001
    endloop
  endfacet
  facet normal  9.510566e-001  3.090166e-001  0.000000e+000
    outer loop
      vertex  1.581565e+001 -1.958702e+001  1.500000e+001
      vertex  1.581565e+001 -1.958702e+001  0.000000e+000
      vertex  1.530000e+001 -1.800000e+001  0.000000e+000
    endloop
  endfacet
  facet normal  9.510566e-001  3.090166e-001  -0.000000e+000
    outer loop
      vertex  1.581565e+001 -1.958702e+001  1.500000e+001
      vertex  1.530000e+001 -1.800000e+001  0.000000e+000
      vertex  1.530000e+001 -1.800000e+001  1.500000e+001
    endloop
  endfacet
  facet normal -5.877853e-001  8.090171e-001  0.000000e+000
    outer loop
      vertex -1.716565e+001  1.543215e+001  0.000000e+000
      vertex -1.581565e+001  1.641298e+001  1.500000e+001
      vertex -1.581565e+001  1.641298e+001  0.000000e+000
    endloop
  endfacet
  facet normal -9.510566e-001  3.090166e-001  0.000000e+000
    outer loop
      vertex -1.581565e+001  1.641298e+001  0.000000e+000
      vertex -1.581565e+001  1.641298e+001  1.500000e+001
      vertex -1.530000e+001  1.800000e+001  1.500000e+001
    endloop
  endfacet
  facet normal -9.510566e-001  3.090166e-001  0.000000e+000
    outer loop
      vertex -1.581565e+001  1.641298e+001  0.000000e+000
      vertex -1.530000e+001  1.800000e+001  1.500000e+001
      vertex -1.530000e+001  1.800000e+001  0.000000e+000
    endloop
  endfacet
  facet normal -5.877853e-001  8.090171e-001  0.000000e+000
    outer loop
      vertex -1.581565e+001  1.641298e+001  1.500000e+001
      vertex -1.716565e+001  1.543215e+001  0.000000e+000
      vertex -1.716565e+001  1.543215e+001  1.500000e+001
    endloop
  endfacet
  facet normal  0.000000e+000  1.000000e+000  0.000000e+000
    outer loop
      vertex -1.716565e+001  1.543215e+001  1.500000e+001
      vertex -1.716565e+001  1.543215e+001  0.000000e+000
      vertex -1.883435e+001  1.543215e+001  0.000000e+000
    endloop
  endfacet
  facet normal  0.000000e+000  1.000000e+000  0.000000e+000
    outer loop
      vertex -1.716565e+001  1.543215e+001  1.500000e+001
      vertex -1.883435e+001  1.543215e+001  0.000000e+000
      vertex -1.883435e+001  1.543215e+001  1.500000e+001
    endloop
  endfacet
  facet normal  5.877855e-001  8.090167e-001  0.000000e+000
    outer loop
      vertex -1.883435e+001  1.543215e+001  1.500000e+001
      vertex -1.883435e+001  1.543215e+001  0.000000e+000
      vertex -2.018435e+001  1.641298e+001  0.000000e+000
    endloop
  endfacet
  facet normal  5.877855e-001  8.090167e-001  -0.000000e+000
    outer loop
      vertex -1.883435e+001  1.543215e+001  1.500000e+001
      vertex -2.018435e+001  1.641298e+001  0.000000e+000
      vertex -2.018435e+001  1.641298e+001  1.500000e+001
    endloop
  endfacet
  facet normal  9.510562e-001  3.090176e-001  0.000000e+000
    outer loop
      vertex -2.018435e+001  1.641298e+001  1.500000e+001
      vertex -2.018435e+001  1.641298e+001  0.000000e+000
      vertex -2.070000e+001  1.800000e+001  0.000000e+000
    endloop
  endfacet
  facet normal  9.510562e-001  3.090176e-001  -0.000000e+000
    outer loop
      vertex -2.018435e+001  1.641298e+001  1.500000e+001
      vertex -2.070000e+001  1.800000e+001  0.000000e+000
      vertex -2.070000e+001  1.800000e+001  1.500000e+001
    endloop
  endfacet
  facet normal  5.877852e-001 -8.090171e-001  0.000000e+000
    outer loop
      vertex -1.883435e+001  2.056785e+001  0.000000e+000
      vertex -2.018435e+001  1.958702e+001  1.500000e+001
      vertex -2.018435e+001  1.958702e+001  0.000000e+000
    endloop
  endfacet
  facet normal  9.510562e-001 -3.090176e-001  0.000000e+000
    outer loop
      vertex -2.018435e+001  1.958702e+001  0.000000e+000
      vertex -2.018435e+001  1.958702e+001  1.500000e+001
      vertex -2.070000e+001  1.800000e+001  1.500000e+001
    endloop
  endfacet
  facet normal  9.510562e-001 -3.090176e-001  0.000000e+000
    outer loop
      vertex -2.018435e+001  1.958702e+001  0.000000e+000
      vertex -2.070000e+001  1.800000e+001  1.500000e+001
      vertex -2.070000e+001  1.800000e+001  0.000000e+000
    endloop
  endfacet
  facet normal  5.877852e-001 -8.090171e-001  0.000000e+000
    outer loop
      vertex -2.018435e+001  1.958702e+001  1.500000e+001
      vertex -1.883435e+001  2.056785e+001  0.000000e+000
      vertex -1.883435e+001  2.056785e+001  1.500000e+001
    endloop
  endfacet
  facet normal  0.000000e+000 -1.000000e+000  0.000000e+000
    outer loop
      vertex -1.883435e+001  2.056785e+001  1.500000e+001
      vertex -1.883435e+001  2.056785e+001  0.000000e+000
      vertex -1.716565e+001  2.056785e+001  0.000000e+000
    endloop
  endfacet
  facet normal  0.000000e+000 -1.000000e+000  0.000000e+000
    outer loop
      vertex -1.883435e+001  2.056785e+001  1.500000e+001
      vertex -1.716565e+001  2.056785e+001  0.000000e+000
      vertex -1.716565e+001  2.056785e+001  1.500000e+001
    endloop
  endfacet
  facet normal -5.877849e-001 -8.090172e-001  -0.000000e+000
    outer loop
      vertex -1.716565e+001  2.056785e+001  1.500000e+001
      vertex -1.716565e+001  2.056785e+001  0.000000e+000
      vertex -1.581565e+001  1.958702e+001  0.000000e+000
    endloop
  endfacet
  facet normal -5.877849e-001 -8.090172e-001  0.000000e+000
    outer loop
      vertex -1.716565e+001  2.056785e+001  1.500000e+001
      vertex -1.581565e+001  1.958702e+001  0.000000e+000
      vertex -1.581565e+001  1.958702e+001  1.500000e+001
    endloop
  endfacet
  facet normal -9.510566e-001 -3.090166e-001  -0.000000e+000
    outer loop
      vertex -1.581565e+001  1.958702e+001  1.500000e+001
      vertex -1.581565e+001  1.958702e+001  0.000000e+000
      vertex -1.530000e+001  1.800000e+001  0.000000e+000
    endloop
  endfacet
  facet normal -9.510566e-001 -3.090166e-001  0.000000e+000
    outer loop
      vertex -1.581565e+001  1.958702e+001  1.500000e+001
      vertex -1.530000e+001  1.800000e+001  0.000000e+000
      vertex -1.530000e+001  1.800000e+001  1.500000e+001
    endloop
  endfacet
  facet normal  5.877849e-001 -8.090172e-001  0.000000e+000
    outer loop
      vertex  1.716565e+001  2.056785e+001  0.000000e+000
      vertex  1.581565e+001  1.958702e+001  1.500000e+001
      vertex  1.581565e+001  1.958702e+001  0.000000e+000
    endloop
  endfacet
  facet normal  9.510566e-001 -3.090166e-001  0.000000e+000
    outer loop
      vertex  1.581565e+001  1.958702e+001  0.000000e+000
      vertex  1.581565e+001  1.958702e+001  1.500000e+001
      vertex  1.530000e+001  1.800000e+001  1.500000e+001
    endloop
  endfacet
  facet normal  9.510566e-001 -3.090166e-001  0.000000e+000
    outer loop
      vertex  1.581565e+001  1.958702e+001  0.000000e+000
      vertex  1.530000e+001  1.800000e+001  1.500000e+001
      vertex  1.530000e+001  1.800000e+001  0.000000e+000
    endloop
  endfacet
  facet normal  5.877849e-001 -8.090172e-001  0.000000e+000
    outer loop
      vertex  1.581565e+001  1.958702e+001  1.500000e+001
      vertex  1.716565e+001  2.056785e+001  0.000000e+000
      vertex  1.716565e+001  2.056785e+001  1.500000e+001
    endloop
  endfacet
  facet normal  0.000000e+000 -1.000000e+000  0.000000e+000
    outer loop
      vertex  1.716565e+001  2.056785e+001  1.500000e+001
      vertex  1.716565e+001  2.056785e+001  0.000000e+000
      vertex  1.883435e+001  2.056785e+001  0.000000e+000
    endloop
  endfacet
  facet normal  0.000000e+000 -1.000000e+000  0.000000e+000
    outer loop
      vertex  1.716565e+001  2.056785e+001  1.500000e+001
      vertex  1.883435e+001  2.056785e+001  0.000000e+000
      vertex  1.883435e+001  2.056785e+001  1.500000e+001
    endloop
  endfacet
  facet normal -5.877852e-001 -8.090171e-001  -0.000000e+000
    outer loop
      vertex  1.883435e+001  2.056785e+001  1.500000e+001
      vertex  1.883435e+001  2.056785e+001  0.000000e+000
      vertex  2.018435e+001  1.958702e+001  0.000000e+000
    endloop
  endfacet
  facet normal -5.877852e-001 -8.090171e-001  0.000000e+000
    outer loop
      vertex  1.883435e+001  2.056785e+001  1.500000e+001
      vertex  2.018435e+001  1.958702e+001  0.000000e+000
      vertex  2.018435e+001  1.958702e+001  1.500000e+001
    endloop
  endfacet
  facet normal -9.510562e-001 -3.090176e-001  -0.000000e+000
    outer loop
      vertex  2.018435e+001  1.958702e+001  1.500000e+001
      vertex  2.018435e+001  1.958702e+001  0.000000e+000
      vertex  2.070000e+001  1.800000e+001  0.000000e+000
    endloop
  endfacet
  facet normal -9.510562e-001 -3.090176e-001  0.000000e+000
    outer loop
      vertex  2.018435e+001  1.958702e+001  1.500000e+001
      vertex  2.070000e+001  1.800000e+001  0.000000e+000
      vertex  2.070000e+001  1.800000e+001  1.500000e+001
    endloop
  endfacet
  facet normal -5.877855e-001  8.090167e-001  0.000000e+000
    outer loop
      vertex  1.883435e+001  1.543215e+001  0.000000e+000
      vertex  2.018435e+001  1.641298e+001  1.500000e+001
      vertex  2.018435e+001  1.641298e+001  0.000000e+000
    endloop
  endfacet
  facet normal -9.510562e-001  3.090176e-001  0.000000e+000
    outer loop
      vertex  2.018435e+001  1.641298e+001  0.000000e+000
      vertex  2.018435e+001  1.641298e+001  1.500000e+001
      vertex  2.070000e+001  1.800000e+001  1.500000e+001
    endloop
  endfacet
  facet normal -9.510562e-001  3.090176e-001  0.000000e+000
    outer loop
      vertex  2.018435e+001  1.641298e+001  0.000000e+000
      vertex  2.070000e+001  1.800000e+001  1.500000e+001
      vertex  2.070000e+001  1.800000e+001  0.000000e+000
    endloop
  endfacet
  facet normal -5.877855e-001  8.090167e-001  0.000000e+000
    outer loop
      vertex  2.018435e+001  1.641298e+001  1.500000e+001
      vertex  1.883435e+001  1.543215e+001  0.000000e+000
      vertex  1.883435e+001  1.543215e+001  1.500000e+001
    endloop
  endfacet
  facet normal  0.000000e+000  1.000000e+000  0.000000e+000
    outer loop
      vertex  1.883435e+001  1.543215e+001  1.500000e+001
      vertex  1.883435e+001  1.543215e+001  0.000000e+000
      vertex  1.716565e+001  1.543215e+001  0.000000e+000
    endloop
  endfacet
  facet normal  0.000000e+000  1.000000e+000  0.000000e+000
    outer loop
      vertex  1.883435e+001  1.543215e+001  1.500000e+001
      vertex  1.716565e+001  1.543215e+001  0.000000e+000
      vertex  1.716565e+001  1.543215e+001  1.500000e+001
    endloop
  endfacet
  facet normal  5.877853e-001  8.090171e-001  0.000000e+000
    outer loop
      vertex  1.716565e+001  1.543215e+001  1.500000e+001
      vertex  1.716565e+001  1.543215e+001  0.000000e+000
      vertex  1.581565e+001  1.641298e+001  0.000000e+000
    endloop
  endfacet
  facet normal  5.877853e-001  8.090171e-001  -0.000000e+000
    outer loop
      vertex  1.716565e+001  1.543215e+001  1.500000e+001
      vertex  1.581565e+001  1.641298e+001  0.000000e+000
      vertex  1.581565e+001  1.641298e+001  1.500000e+001
    endloop
  endfacet
  facet normal  9.510566e-001  3.090166e-001  0.000000e+000
    outer loop
      vertex  1.581565e+001  1.641298e+001  1.500000e+001
      vertex  1.581565e+001  1.641298e+001  0.000000e+000
      vertex  1.530000e+001  1.800000e+001  0.000000e+000
    endloop
  endfacet
  facet normal  9.510566e-001  3.090166e-001  -0.000000e+000
    outer loop
      vertex  1.581565e+001  1.641298e+001  1.500000e+001
      vertex  1.530000e+001  1.800000e+001  0.000000e+000
      vertex  1.530000e+001  1.800000e+001  1.500000e+001
    endloop
  endfacet
  facet normal  0.000000e+000  1.000000e+000  0.000000e+000
    outer loop
      vertex -2.650000e+001  2.650000e+001  1.500000e+001
      vertex  2.650000e+001  2.650000e+001  1.500000e+001
      vertex -2.650000e+001  2.650000e+001  0.000000e+000
    endloop
  endfacet
  facet normal  0.000000e+000  1.000000e+000  0.000000e+000
    outer loop
      vertex -2.650000e+001  2.650000e+001  0.000000e+000
      vertex  2.650000e+001  2.650000e+001  1.500000e+001
      vertex  2.650000e+001  2.650000e+001  0.000000e+000
    endloop
  endfacet
  facet normal  0.000000e+000 -1.000000e+000  0.000000e+000
    outer loop
      vertex  2.650000e+001 -2.650000e+001  1.500000e+001
      vertex -2.650000e+001 -2.650000e+001  1.500000e+001
      vertex  2.650000e+001 -2.650000e+001  0.000000e+000
    endloop
  endfacet
  facet normal  0.000000e+000 -1.000000e+000  0.000000e+000
    outer loop
      vertex  2.650000e+001 -2.650000e+001  0.000000e+000
      vertex -2.650000e+001 -2.650000e+001  1.500000e+001
      vertex -2.650000e+001 -2.650000e+001  0.000000e+000
    endloop
  endfacet
endsolid CATIA STL
