solid CATIA STL
  facet normal  0.000000e+000  0.000000e+000  9.999999e-001
    outer loop
      vertex -1.767767e-001  1.767767e-001  5.400000e+000
      vertex  1.767767e-001  1.767767e-001  5.400000e+000
      vertex  2.599070e-017  2.500000e-001  5.400000e+000
    endloop
  endfacet
  facet normal  -0.000000e+000  0.000000e+000  1.000000e+000
    outer loop
      vertex  1.767767e-001  1.767767e-001  5.400000e+000
      vertex -1.767767e-001  1.767767e-001  5.400000e+000
      vertex  2.500000e-001 -6.924266e-017  5.400000e+000
    endloop
  endfacet
  facet normal  0.000000e+000  0.000000e+000  9.999999e-001
    outer loop
      vertex  2.500000e-001 -6.924266e-017  5.400000e+000
      vertex -1.767767e-001  1.767767e-001  5.400000e+000
      vertex -2.500000e-001  2.260281e-017  5.400000e+000
    endloop
  endfacet
  facet normal  0.000000e+000  0.000000e+000  9.999999e-001
    outer loop
      vertex  2.500000e-001 -6.924266e-017  5.400000e+000
      vertex -2.500000e-001  2.260281e-017  5.400000e+000
      vertex  1.767767e-001 -1.767767e-001  5.400000e+000
    endloop
  endfacet
  facet normal  0.000000e+000  0.000000e+000  1.000000e+000
    outer loop
      vertex  1.767767e-001 -1.767767e-001  5.400000e+000
      vertex -2.500000e-001  2.260281e-017  5.400000e+000
      vertex -1.767767e-001 -1.767767e-001  5.400000e+000
    endloop
  endfacet
  facet normal  -0.000000e+000  0.000000e+000  9.999999e-001
    outer loop
      vertex  1.767767e-001 -1.767767e-001  5.400000e+000
      vertex -1.767767e-001 -1.767767e-001  5.400000e+000
      vertex -3.523961e-017 -2.500000e-001  5.400000e+000
    endloop
  endfacet
  facet normal  9.238794e-001 -3.826834e-001 -1.084046e-015
    outer loop
      vertex  1.250000e+000  0.000000e+000  3.900000e+000
      vertex  1.250000e+000 -1.416375e-015  4.400000e+000
      vertex  8.838835e-001 -8.838835e-001  3.900000e+000
    endloop
  endfacet
  facet normal  9.238794e-001 -3.826834e-001  0.000000e+000
    outer loop
      vertex  8.838835e-001 -8.838835e-001  3.900000e+000
      vertex  1.250000e+000 -1.416375e-015  4.400000e+000
      vertex  8.838835e-001 -8.838835e-001  4.400000e+000
    endloop
  endfacet
  facet normal  3.826834e-001 -9.238794e-001  0.000000e+000
    outer loop
      vertex  8.838835e-001 -8.838835e-001  3.900000e+000
      vertex  8.838835e-001 -8.838835e-001  4.400000e+000
      vertex -2.296137e-016 -1.250000e+000  3.900000e+000
    endloop
  endfacet
  facet normal  3.826834e-001 -9.238794e-001  0.000000e+000
    outer loop
      vertex -2.296137e-016 -1.250000e+000  3.900000e+000
      vertex  8.838835e-001 -8.838835e-001  4.400000e+000
      vertex -2.296137e-016 -1.250000e+000  4.400000e+000
    endloop
  endfacet
  facet normal -3.826834e-001 -9.238794e-001  -0.000000e+000
    outer loop
      vertex -2.296137e-016 -1.250000e+000  3.900000e+000
      vertex -2.296137e-016 -1.250000e+000  4.400000e+000
      vertex -8.838835e-001 -8.838835e-001  3.900000e+000
    endloop
  endfacet
  facet normal -3.826834e-001 -9.238794e-001  0.000000e+000
    outer loop
      vertex -8.838835e-001 -8.838835e-001  3.900000e+000
      vertex -2.296137e-016 -1.250000e+000  4.400000e+000
      vertex -8.838835e-001 -8.838835e-001  4.400000e+000
    endloop
  endfacet
  facet normal -9.238794e-001 -3.826834e-001  -0.000000e+000
    outer loop
      vertex -8.838835e-001 -8.838835e-001  3.900000e+000
      vertex -8.838835e-001 -8.838835e-001  4.400000e+000
      vertex -1.250000e+000  1.530758e-016  3.900000e+000
    endloop
  endfacet
  facet normal -9.238794e-001 -3.826834e-001  0.000000e+000
    outer loop
      vertex -1.250000e+000  1.530758e-016  3.900000e+000
      vertex -8.838835e-001 -8.838835e-001  4.400000e+000
      vertex -1.250000e+000  1.530758e-016  4.400000e+000
    endloop
  endfacet
  facet normal -9.238794e-001  3.826834e-001  0.000000e+000
    outer loop
      vertex -1.250000e+000  1.530758e-016  3.900000e+000
      vertex -1.250000e+000  1.530758e-016  4.400000e+000
      vertex -8.838835e-001  8.838835e-001  3.900000e+000
    endloop
  endfacet
  facet normal -9.238794e-001  3.826834e-001  0.000000e+000
    outer loop
      vertex -8.838835e-001  8.838835e-001  3.900000e+000
      vertex -1.250000e+000  1.530758e-016  4.400000e+000
      vertex -8.838835e-001  8.838835e-001  4.400000e+000
    endloop
  endfacet
  facet normal -3.826834e-001  9.238794e-001  0.000000e+000
    outer loop
      vertex -8.838835e-001  8.838835e-001  3.900000e+000
      vertex -8.838835e-001  8.838835e-001  4.400000e+000
      vertex  7.653790e-017  1.250000e+000  3.900000e+000
    endloop
  endfacet
  facet normal -3.826834e-001  9.238794e-001  2.124320e-016
    outer loop
      vertex  7.653790e-017  1.250000e+000  3.900000e+000
      vertex -8.838835e-001  8.838835e-001  4.400000e+000
      vertex  3.540937e-016  1.250000e+000  4.400000e+000
    endloop
  endfacet
  facet normal  3.826834e-001  9.238794e-001 -2.124320e-016
    outer loop
      vertex  7.653790e-017  1.250000e+000  3.900000e+000
      vertex  3.540937e-016  1.250000e+000  4.400000e+000
      vertex  8.838835e-001  8.838835e-001  3.900000e+000
    endloop
  endfacet
  facet normal  3.826834e-001  9.238794e-001  -0.000000e+000
    outer loop
      vertex  8.838835e-001  8.838835e-001  3.900000e+000
      vertex  3.540937e-016  1.250000e+000  4.400000e+000
      vertex  8.838835e-001  8.838835e-001  4.400000e+000
    endloop
  endfacet
  facet normal  9.238794e-001  3.826834e-001  0.000000e+000
    outer loop
      vertex  8.838835e-001  8.838835e-001  3.900000e+000
      vertex  8.838835e-001  8.838835e-001  4.400000e+000
      vertex  1.250000e+000  0.000000e+000  3.900000e+000
    endloop
  endfacet
  facet normal  9.238794e-001  3.826834e-001  1.084046e-015
    outer loop
      vertex  1.250000e+000  0.000000e+000  3.900000e+000
      vertex  8.838835e-001  8.838835e-001  4.400000e+000
      vertex  1.250000e+000 -1.416375e-015  4.400000e+000
    endloop
  endfacet
  facet normal  3.779647e-001 -1.565581e-001  9.124869e-001
    outer loop
      vertex  2.500000e-001 -6.924266e-017  5.400000e+000
      vertex  1.767767e-001 -1.767767e-001  5.400000e+000
      vertex  9.571068e-001 -5.551115e-017  5.107107e+000
    endloop
  endfacet
  facet normal  3.779647e-001 -1.565581e-001  9.124869e-001
    outer loop
      vertex  9.571068e-001 -5.551115e-017  5.107107e+000
      vertex  1.767767e-001 -1.767767e-001  5.400000e+000
      vertex  6.767767e-001 -6.767767e-001  5.107107e+000
    endloop
  endfacet
  facet normal  8.628562e-001 -3.574067e-001  3.574069e-001
    outer loop
      vertex  9.571068e-001 -5.551115e-017  5.107107e+000
      vertex  6.767767e-001 -6.767767e-001  5.107107e+000
      vertex  1.250000e+000 -1.416375e-015  4.400000e+000
    endloop
  endfacet
  facet normal  8.628562e-001 -3.574068e-001  3.574068e-001
    outer loop
      vertex  1.250000e+000 -1.416375e-015  4.400000e+000
      vertex  6.767767e-001 -6.767767e-001  5.107107e+000
      vertex  8.838835e-001 -8.838835e-001  4.400000e+000
    endloop
  endfacet
  facet normal -3.779647e-001 -1.565581e-001  9.124869e-001
    outer loop
      vertex -1.767767e-001 -1.767767e-001  5.400000e+000
      vertex -2.500000e-001  2.260281e-017  5.400000e+000
      vertex -6.767767e-001 -6.767767e-001  5.107107e+000
    endloop
  endfacet
  facet normal -3.779647e-001 -1.565581e-001  9.124869e-001
    outer loop
      vertex -6.767767e-001 -6.767767e-001  5.107107e+000
      vertex -2.500000e-001  2.260281e-017  5.400000e+000
      vertex -9.571068e-001  7.771561e-016  5.107107e+000
    endloop
  endfacet
  facet normal -8.628562e-001 -3.574067e-001  3.574068e-001
    outer loop
      vertex -6.767767e-001 -6.767767e-001  5.107107e+000
      vertex -9.571068e-001  7.771561e-016  5.107107e+000
      vertex -8.838835e-001 -8.838835e-001  4.400000e+000
    endloop
  endfacet
  facet normal -8.628562e-001 -3.574068e-001  3.574068e-001
    outer loop
      vertex -8.838835e-001 -8.838835e-001  4.400000e+000
      vertex -9.571068e-001  7.771561e-016  5.107107e+000
      vertex -1.250000e+000  1.530758e-016  4.400000e+000
    endloop
  endfacet
  facet normal -1.565581e-001 -3.779647e-001  9.124869e-001
    outer loop
      vertex -3.523961e-017 -2.500000e-001  5.400000e+000
      vertex -1.767767e-001 -1.767767e-001  5.400000e+000
      vertex -5.551115e-016 -9.571068e-001  5.107107e+000
    endloop
  endfacet
  facet normal -1.565581e-001 -3.779647e-001  9.124869e-001
    outer loop
      vertex -5.551115e-016 -9.571068e-001  5.107107e+000
      vertex -1.767767e-001 -1.767767e-001  5.400000e+000
      vertex -6.767767e-001 -6.767767e-001  5.107107e+000
    endloop
  endfacet
  facet normal -3.574067e-001 -8.628562e-001  3.574069e-001
    outer loop
      vertex -5.551115e-016 -9.571068e-001  5.107107e+000
      vertex -6.767767e-001 -6.767767e-001  5.107107e+000
      vertex -2.296137e-016 -1.250000e+000  4.400000e+000
    endloop
  endfacet
  facet normal -3.574068e-001 -8.628562e-001  3.574068e-001
    outer loop
      vertex -2.296137e-016 -1.250000e+000  4.400000e+000
      vertex -6.767767e-001 -6.767767e-001  5.107107e+000
      vertex -8.838835e-001 -8.838835e-001  4.400000e+000
    endloop
  endfacet
  facet normal  1.565581e-001 -3.779647e-001  9.124869e-001
    outer loop
      vertex  1.767767e-001 -1.767767e-001  5.400000e+000
      vertex -3.523961e-017 -2.500000e-001  5.400000e+000
      vertex  6.767767e-001 -6.767767e-001  5.107107e+000
    endloop
  endfacet
  facet normal  1.565581e-001 -3.779647e-001  9.124869e-001
    outer loop
      vertex  6.767767e-001 -6.767767e-001  5.107107e+000
      vertex -3.523961e-017 -2.500000e-001  5.400000e+000
      vertex -5.551115e-016 -9.571068e-001  5.107107e+000
    endloop
  endfacet
  facet normal  3.574067e-001 -8.628562e-001  3.574068e-001
    outer loop
      vertex  6.767767e-001 -6.767767e-001  5.107107e+000
      vertex -5.551115e-016 -9.571068e-001  5.107107e+000
      vertex  8.838835e-001 -8.838835e-001  4.400000e+000
    endloop
  endfacet
  facet normal  3.574068e-001 -8.628562e-001  3.574068e-001
    outer loop
      vertex  8.838835e-001 -8.838835e-001  4.400000e+000
      vertex -5.551115e-016 -9.571068e-001  5.107107e+000
      vertex -2.296137e-016 -1.250000e+000  4.400000e+000
    endloop
  endfacet
  facet normal -3.779647e-001  1.565581e-001  9.124869e-001
    outer loop
      vertex -2.500000e-001  2.260281e-017  5.400000e+000
      vertex -1.767767e-001  1.767767e-001  5.400000e+000
      vertex -9.571068e-001  7.771561e-016  5.107107e+000
    endloop
  endfacet
  facet normal -3.779647e-001  1.565581e-001  9.124869e-001
    outer loop
      vertex -9.571068e-001  7.771561e-016  5.107107e+000
      vertex -1.767767e-001  1.767767e-001  5.400000e+000
      vertex -6.767767e-001  6.767767e-001  5.107107e+000
    endloop
  endfacet
  facet normal -8.628562e-001  3.574067e-001  3.574069e-001
    outer loop
      vertex -9.571068e-001  7.771561e-016  5.107107e+000
      vertex -6.767767e-001  6.767767e-001  5.107107e+000
      vertex -1.250000e+000  1.530758e-016  4.400000e+000
    endloop
  endfacet
  facet normal -8.628562e-001  3.574068e-001  3.574068e-001
    outer loop
      vertex -1.250000e+000  1.530758e-016  4.400000e+000
      vertex -6.767767e-001  6.767767e-001  5.107107e+000
      vertex -8.838835e-001  8.838835e-001  4.400000e+000
    endloop
  endfacet
  facet normal  3.779647e-001  1.565581e-001  9.124869e-001
    outer loop
      vertex  1.767767e-001  1.767767e-001  5.400000e+000
      vertex  2.500000e-001 -6.924266e-017  5.400000e+000
      vertex  6.767767e-001  6.767767e-001  5.107107e+000
    endloop
  endfacet
  facet normal  3.779647e-001  1.565581e-001  9.124869e-001
    outer loop
      vertex  6.767767e-001  6.767767e-001  5.107107e+000
      vertex  2.500000e-001 -6.924266e-017  5.400000e+000
      vertex  9.571068e-001 -5.551115e-017  5.107107e+000
    endloop
  endfacet
  facet normal  8.628562e-001  3.574067e-001  3.574068e-001
    outer loop
      vertex  6.767767e-001  6.767767e-001  5.107107e+000
      vertex  9.571068e-001 -5.551115e-017  5.107107e+000
      vertex  8.838835e-001  8.838835e-001  4.400000e+000
    endloop
  endfacet
  facet normal  8.628562e-001  3.574068e-001  3.574068e-001
    outer loop
      vertex  8.838835e-001  8.838835e-001  4.400000e+000
      vertex  9.571068e-001 -5.551115e-017  5.107107e+000
      vertex  1.250000e+000 -1.416375e-015  4.400000e+000
    endloop
  endfacet
  facet normal  1.565581e-001  3.779647e-001  9.124869e-001
    outer loop
      vertex  2.599070e-017  2.500000e-001  5.400000e+000
      vertex  1.767767e-001  1.767767e-001  5.400000e+000
      vertex  3.330669e-016  9.571068e-001  5.107107e+000
    endloop
  endfacet
  facet normal  1.565581e-001  3.779647e-001  9.124869e-001
    outer loop
      vertex  3.330669e-016  9.571068e-001  5.107107e+000
      vertex  1.767767e-001  1.767767e-001  5.400000e+000
      vertex  6.767767e-001  6.767767e-001  5.107107e+000
    endloop
  endfacet
  facet normal  3.574067e-001  8.628562e-001  3.574069e-001
    outer loop
      vertex  3.330669e-016  9.571068e-001  5.107107e+000
      vertex  6.767767e-001  6.767767e-001  5.107107e+000
      vertex  3.540937e-016  1.250000e+000  4.400000e+000
    endloop
  endfacet
  facet normal  3.574068e-001  8.628562e-001  3.574068e-001
    outer loop
      vertex  3.540937e-016  1.250000e+000  4.400000e+000
      vertex  6.767767e-001  6.767767e-001  5.107107e+000
      vertex  8.838835e-001  8.838835e-001  4.400000e+000
    endloop
  endfacet
  facet normal -1.565581e-001  3.779647e-001  9.124869e-001
    outer loop
      vertex -1.767767e-001  1.767767e-001  5.400000e+000
      vertex  2.599070e-017  2.500000e-001  5.400000e+000
      vertex -6.767767e-001  6.767767e-001  5.107107e+000
    endloop
  endfacet
  facet normal -1.565581e-001  3.779647e-001  9.124869e-001
    outer loop
      vertex -6.767767e-001  6.767767e-001  5.107107e+000
      vertex  2.599070e-017  2.500000e-001  5.400000e+000
      vertex  3.330669e-016  9.571068e-001  5.107107e+000
    endloop
  endfacet
  facet normal -3.574067e-001  8.628562e-001  3.574068e-001
    outer loop
      vertex -6.767767e-001  6.767767e-001  5.107107e+000
      vertex  3.330669e-016  9.571068e-001  5.107107e+000
      vertex -8.838835e-001  8.838835e-001  4.400000e+000
    endloop
  endfacet
  facet normal -3.574068e-001  8.628562e-001  3.574068e-001
    outer loop
      vertex -8.838835e-001  8.838835e-001  4.400000e+000
      vertex  3.330669e-016  9.571068e-001  5.107107e+000
      vertex  3.540937e-016  1.250000e+000  4.400000e+000
    endloop
  endfacet
  facet normal  0.000000e+000  -0.000000e+000  1.000000e+000
    outer loop
      vertex -2.265248e+000 -1.645799e+000  3.900000e+000
      vertex -8.652476e-001 -2.662958e+000  3.900000e+000
      vertex -2.296137e-016 -1.250000e+000  3.900000e+000
    endloop
  endfacet
  facet normal  0.000000e+000  0.000000e+000  1.000000e+000
    outer loop
      vertex -2.265248e+000 -1.645799e+000  3.900000e+000
      vertex -2.296137e-016 -1.250000e+000  3.900000e+000
      vertex -8.838835e-001 -8.838835e-001  3.900000e+000
    endloop
  endfacet
  facet normal  0.000000e+000  0.000000e+000  1.000000e+000
    outer loop
      vertex -2.265248e+000 -1.645799e+000  3.900000e+000
      vertex -8.838835e-001 -8.838835e-001  3.900000e+000
      vertex -1.250000e+000  1.530758e-016  3.900000e+000
    endloop
  endfacet
  facet normal  0.000000e+000  0.000000e+000  1.000000e+000
    outer loop
      vertex -2.265248e+000 -1.645799e+000  3.900000e+000
      vertex -1.250000e+000  1.530758e-016  3.900000e+000
      vertex -2.800000e+000  3.428898e-016  3.900000e+000
    endloop
  endfacet
  facet normal  0.000000e+000  0.000000e+000  1.000000e+000
    outer loop
      vertex -8.652476e-001 -2.662958e+000  3.900000e+000
      vertex  8.652476e-001 -2.662958e+000  3.900000e+000
      vertex -2.296137e-016 -1.250000e+000  3.900000e+000
    endloop
  endfacet
  facet normal  0.000000e+000  0.000000e+000  1.000000e+000
    outer loop
      vertex -2.296137e-016 -1.250000e+000  3.900000e+000
      vertex  8.652476e-001 -2.662958e+000  3.900000e+000
      vertex  2.265248e+000 -1.645799e+000  3.900000e+000
    endloop
  endfacet
  facet normal  0.000000e+000  0.000000e+000  1.000000e+000
    outer loop
      vertex -2.296137e-016 -1.250000e+000  3.900000e+000
      vertex  2.265248e+000 -1.645799e+000  3.900000e+000
      vertex  8.838835e-001 -8.838835e-001  3.900000e+000
    endloop
  endfacet
  facet normal  -0.000000e+000  0.000000e+000  1.000000e+000
    outer loop
      vertex  8.652476e-001  2.662958e+000  3.900000e+000
      vertex -8.652476e-001  2.662958e+000  3.900000e+000
      vertex  7.653790e-017  1.250000e+000  3.900000e+000
    endloop
  endfacet
  facet normal  0.000000e+000  0.000000e+000  1.000000e+000
    outer loop
      vertex  7.653790e-017  1.250000e+000  3.900000e+000
      vertex -8.652476e-001  2.662958e+000  3.900000e+000
      vertex -2.265248e+000  1.645799e+000  3.900000e+000
    endloop
  endfacet
  facet normal  0.000000e+000  0.000000e+000  1.000000e+000
    outer loop
      vertex  7.653790e-017  1.250000e+000  3.900000e+000
      vertex -2.265248e+000  1.645799e+000  3.900000e+000
      vertex -8.838835e-001  8.838835e-001  3.900000e+000
    endloop
  endfacet
  facet normal  0.000000e+000  0.000000e+000  9.999999e-001
    outer loop
      vertex -1.250000e+000  1.530758e-016  3.900000e+000
      vertex -8.838835e-001  8.838835e-001  3.900000e+000
      vertex -2.800000e+000  3.428898e-016  3.900000e+000
    endloop
  endfacet
  facet normal  0.000000e+000  0.000000e+000  1.000000e+000
    outer loop
      vertex -2.800000e+000  3.428898e-016  3.900000e+000
      vertex -8.838835e-001  8.838835e-001  3.900000e+000
      vertex -2.265248e+000  1.645799e+000  3.900000e+000
    endloop
  endfacet
  facet normal  0.000000e+000  0.000000e+000  1.000000e+000
    outer loop
      vertex  8.652476e-001  2.662958e+000  3.900000e+000
      vertex  7.653790e-017  1.250000e+000  3.900000e+000
      vertex  2.265248e+000  1.645799e+000  3.900000e+000
    endloop
  endfacet
  facet normal  0.000000e+000  0.000000e+000  1.000000e+000
    outer loop
      vertex  2.265248e+000  1.645799e+000  3.900000e+000
      vertex  7.653790e-017  1.250000e+000  3.900000e+000
      vertex  8.838835e-001  8.838835e-001  3.900000e+000
    endloop
  endfacet
  facet normal  -0.000000e+000  0.000000e+000  1.000000e+000
    outer loop
      vertex  2.265248e+000  1.645799e+000  3.900000e+000
      vertex  8.838835e-001  8.838835e-001  3.900000e+000
      vertex  2.800000e+000  0.000000e+000  3.900000e+000
    endloop
  endfacet
  facet normal  0.000000e+000  0.000000e+000  9.999999e-001
    outer loop
      vertex  2.800000e+000  0.000000e+000  3.900000e+000
      vertex  8.838835e-001  8.838835e-001  3.900000e+000
      vertex  1.250000e+000  0.000000e+000  3.900000e+000
    endloop
  endfacet
  facet normal  -0.000000e+000  0.000000e+000  1.000000e+000
    outer loop
      vertex  2.800000e+000  0.000000e+000  3.900000e+000
      vertex  1.250000e+000  0.000000e+000  3.900000e+000
      vertex  2.265248e+000 -1.645799e+000  3.900000e+000
    endloop
  endfacet
  facet normal  0.000000e+000  0.000000e+000  1.000000e+000
    outer loop
      vertex  2.265248e+000 -1.645799e+000  3.900000e+000
      vertex  1.250000e+000  0.000000e+000  3.900000e+000
      vertex  8.838835e-001 -8.838835e-001  3.900000e+000
    endloop
  endfacet
  facet normal  -0.000000e+000  0.000000e+000  1.000000e+000
    outer loop
      vertex -2.265248e+000 -1.645799e+000  5.000000e-001
      vertex -3.236068e+000 -2.351141e+000  5.000000e-001
      vertex -8.652476e-001 -2.662958e+000  5.000000e-001
    endloop
  endfacet
  facet normal  0.000000e+000  0.000000e+000  9.999999e-001
    outer loop
      vertex -8.652476e-001 -2.662958e+000  5.000000e-001
      vertex -3.236068e+000 -2.351141e+000  5.000000e-001
      vertex -1.236068e+000 -3.804226e+000  5.000000e-001
    endloop
  endfacet
  facet normal  0.000000e+000  0.000000e+000  1.000000e+000
    outer loop
      vertex -8.652476e-001 -2.662958e+000  5.000000e-001
      vertex -1.236068e+000 -3.804226e+000  5.000000e-001
      vertex  8.652476e-001 -2.662958e+000  5.000000e-001
    endloop
  endfacet
  facet normal  0.000000e+000  0.000000e+000  9.999999e-001
    outer loop
      vertex  8.652476e-001 -2.662958e+000  5.000000e-001
      vertex -1.236068e+000 -3.804226e+000  5.000000e-001
      vertex  1.236068e+000 -3.804226e+000  5.000000e-001
    endloop
  endfacet
  facet normal  0.000000e+000  -0.000000e+000  9.999999e-001
    outer loop
      vertex  8.652476e-001 -2.662958e+000  5.000000e-001
      vertex  1.236068e+000 -3.804226e+000  5.000000e-001
      vertex  3.236068e+000 -2.351141e+000  5.000000e-001
    endloop
  endfacet
  facet normal  0.000000e+000  0.000000e+000  1.000000e+000
    outer loop
      vertex  2.265248e+000  1.645799e+000  5.000000e-001
      vertex  3.236068e+000  2.351141e+000  5.000000e-001
      vertex  8.652476e-001  2.662958e+000  5.000000e-001
    endloop
  endfacet
  facet normal  -0.000000e+000  0.000000e+000  9.999999e-001
    outer loop
      vertex  8.652476e-001  2.662958e+000  5.000000e-001
      vertex  3.236068e+000  2.351141e+000  5.000000e-001
      vertex  1.236068e+000  3.804226e+000  5.000000e-001
    endloop
  endfacet
  facet normal  0.000000e+000  0.000000e+000  1.000000e+000
    outer loop
      vertex  8.652476e-001  2.662958e+000  5.000000e-001
      vertex  1.236068e+000  3.804226e+000  5.000000e-001
      vertex -8.652476e-001  2.662958e+000  5.000000e-001
    endloop
  endfacet
  facet normal  0.000000e+000  -0.000000e+000  9.999999e-001
    outer loop
      vertex -8.652476e-001  2.662958e+000  5.000000e-001
      vertex  1.236068e+000  3.804226e+000  5.000000e-001
      vertex -1.236068e+000  3.804226e+000  5.000000e-001
    endloop
  endfacet
  facet normal  0.000000e+000  0.000000e+000  9.999999e-001
    outer loop
      vertex -8.652476e-001  2.662958e+000  5.000000e-001
      vertex -1.236068e+000  3.804226e+000  5.000000e-001
      vertex -3.236068e+000  2.351141e+000  5.000000e-001
    endloop
  endfacet
  facet normal  0.000000e+000  0.000000e+000  9.999999e-001
    outer loop
      vertex -3.236068e+000 -2.351141e+000  5.000000e-001
      vertex -2.265248e+000 -1.645799e+000  5.000000e-001
      vertex -4.000000e+000  4.898425e-016  5.000000e-001
    endloop
  endfacet
  facet normal  0.000000e+000  0.000000e+000  1.000000e+000
    outer loop
      vertex -4.000000e+000  4.898425e-016  5.000000e-001
      vertex -2.265248e+000 -1.645799e+000  5.000000e-001
      vertex -2.800000e+000  3.428898e-016  5.000000e-001
    endloop
  endfacet
  facet normal  0.000000e+000  0.000000e+000  9.999999e-001
    outer loop
      vertex -4.000000e+000  4.898425e-016  5.000000e-001
      vertex -2.800000e+000  3.428898e-016  5.000000e-001
      vertex -3.236068e+000  2.351141e+000  5.000000e-001
    endloop
  endfacet
  facet normal  0.000000e+000  0.000000e+000  1.000000e+000
    outer loop
      vertex -3.236068e+000  2.351141e+000  5.000000e-001
      vertex -2.800000e+000  3.428898e-016  5.000000e-001
      vertex -2.265248e+000  1.645799e+000  5.000000e-001
    endloop
  endfacet
  facet normal  0.000000e+000  -0.000000e+000  1.000000e+000
    outer loop
      vertex -3.236068e+000  2.351141e+000  5.000000e-001
      vertex -2.265248e+000  1.645799e+000  5.000000e-001
      vertex -8.652476e-001  2.662958e+000  5.000000e-001
    endloop
  endfacet
  facet normal  -0.000000e+000  0.000000e+000  9.999999e-001
    outer loop
      vertex  3.236068e+000  2.351141e+000  5.000000e-001
      vertex  2.265248e+000  1.645799e+000  5.000000e-001
      vertex  4.000000e+000  0.000000e+000  5.000000e-001
    endloop
  endfacet
  facet normal  0.000000e+000  0.000000e+000  1.000000e+000
    outer loop
      vertex  4.000000e+000  0.000000e+000  5.000000e-001
      vertex  2.265248e+000  1.645799e+000  5.000000e-001
      vertex  2.800000e+000  0.000000e+000  5.000000e-001
    endloop
  endfacet
  facet normal  -0.000000e+000  0.000000e+000  9.999999e-001
    outer loop
      vertex  4.000000e+000  0.000000e+000  5.000000e-001
      vertex  2.800000e+000  0.000000e+000  5.000000e-001
      vertex  3.236068e+000 -2.351141e+000  5.000000e-001
    endloop
  endfacet
  facet normal  0.000000e+000  0.000000e+000  1.000000e+000
    outer loop
      vertex  3.236068e+000 -2.351141e+000  5.000000e-001
      vertex  2.800000e+000  0.000000e+000  5.000000e-001
      vertex  2.265248e+000 -1.645799e+000  5.000000e-001
    endloop
  endfacet
  facet normal  0.000000e+000  0.000000e+000  1.000000e+000
    outer loop
      vertex  3.236068e+000 -2.351141e+000  5.000000e-001
      vertex  2.265248e+000 -1.645799e+000  5.000000e-001
      vertex  8.652476e-001 -2.662958e+000  5.000000e-001
    endloop
  endfacet
  facet normal  9.510565e-001 -3.090170e-001  0.000000e+000
    outer loop
      vertex  2.800000e+000  0.000000e+000  5.000000e-001
      vertex  2.800000e+000  0.000000e+000  3.900000e+000
      vertex  2.265248e+000 -1.645799e+000  5.000000e-001
    endloop
  endfacet
  facet normal  9.510565e-001 -3.090170e-001  0.000000e+000
    outer loop
      vertex  2.265248e+000 -1.645799e+000  5.000000e-001
      vertex  2.800000e+000  0.000000e+000  3.900000e+000
      vertex  2.265248e+000 -1.645799e+000  3.900000e+000
    endloop
  endfacet
  facet normal  5.877852e-001 -8.090171e-001  0.000000e+000
    outer loop
      vertex  2.265248e+000 -1.645799e+000  5.000000e-001
      vertex  2.265248e+000 -1.645799e+000  3.900000e+000
      vertex  8.652476e-001 -2.662958e+000  5.000000e-001
    endloop
  endfacet
  facet normal  5.877852e-001 -8.090171e-001  0.000000e+000
    outer loop
      vertex  8.652476e-001 -2.662958e+000  5.000000e-001
      vertex  2.265248e+000 -1.645799e+000  3.900000e+000
      vertex  8.652476e-001 -2.662958e+000  3.900000e+000
    endloop
  endfacet
  facet normal  0.000000e+000 -1.000000e+000  -0.000000e+000
    outer loop
      vertex  8.652476e-001 -2.662958e+000  5.000000e-001
      vertex  8.652476e-001 -2.662958e+000  3.900000e+000
      vertex -8.652476e-001 -2.662958e+000  5.000000e-001
    endloop
  endfacet
  facet normal  0.000000e+000 -1.000000e+000  0.000000e+000
    outer loop
      vertex -8.652476e-001 -2.662958e+000  5.000000e-001
      vertex  8.652476e-001 -2.662958e+000  3.900000e+000
      vertex -8.652476e-001 -2.662958e+000  3.900000e+000
    endloop
  endfacet
  facet normal -5.877852e-001 -8.090171e-001  -0.000000e+000
    outer loop
      vertex -8.652476e-001 -2.662958e+000  5.000000e-001
      vertex -8.652476e-001 -2.662958e+000  3.900000e+000
      vertex -2.265248e+000 -1.645799e+000  5.000000e-001
    endloop
  endfacet
  facet normal -5.877852e-001 -8.090171e-001  0.000000e+000
    outer loop
      vertex -2.265248e+000 -1.645799e+000  5.000000e-001
      vertex -8.652476e-001 -2.662958e+000  3.900000e+000
      vertex -2.265248e+000 -1.645799e+000  3.900000e+000
    endloop
  endfacet
  facet normal -9.510565e-001 -3.090170e-001  -0.000000e+000
    outer loop
      vertex -2.265248e+000 -1.645799e+000  5.000000e-001
      vertex -2.265248e+000 -1.645799e+000  3.900000e+000
      vertex -2.800000e+000  3.428898e-016  5.000000e-001
    endloop
  endfacet
  facet normal -9.510565e-001 -3.090170e-001  0.000000e+000
    outer loop
      vertex -2.800000e+000  3.428898e-016  5.000000e-001
      vertex -2.265248e+000 -1.645799e+000  3.900000e+000
      vertex -2.800000e+000  3.428898e-016  3.900000e+000
    endloop
  endfacet
  facet normal -9.510565e-001  3.090170e-001  0.000000e+000
    outer loop
      vertex -2.800000e+000  3.428898e-016  5.000000e-001
      vertex -2.800000e+000  3.428898e-016  3.900000e+000
      vertex -2.265248e+000  1.645799e+000  5.000000e-001
    endloop
  endfacet
  facet normal -9.510565e-001  3.090170e-001  0.000000e+000
    outer loop
      vertex -2.265248e+000  1.645799e+000  5.000000e-001
      vertex -2.800000e+000  3.428898e-016  3.900000e+000
      vertex -2.265248e+000  1.645799e+000  3.900000e+000
    endloop
  endfacet
  facet normal -5.877852e-001  8.090171e-001  0.000000e+000
    outer loop
      vertex -2.265248e+000  1.645799e+000  5.000000e-001
      vertex -2.265248e+000  1.645799e+000  3.900000e+000
      vertex -8.652476e-001  2.662958e+000  5.000000e-001
    endloop
  endfacet
  facet normal -5.877852e-001  8.090171e-001  0.000000e+000
    outer loop
      vertex -8.652476e-001  2.662958e+000  5.000000e-001
      vertex -2.265248e+000  1.645799e+000  3.900000e+000
      vertex -8.652476e-001  2.662958e+000  3.900000e+000
    endloop
  endfacet
  facet normal  0.000000e+000  1.000000e+000  0.000000e+000
    outer loop
      vertex -8.652476e-001  2.662958e+000  5.000000e-001
      vertex -8.652476e-001  2.662958e+000  3.900000e+000
      vertex  8.652476e-001  2.662958e+000  5.000000e-001
    endloop
  endfacet
  facet normal  0.000000e+000  1.000000e+000  -0.000000e+000
    outer loop
      vertex  8.652476e-001  2.662958e+000  5.000000e-001
      vertex -8.652476e-001  2.662958e+000  3.900000e+000
      vertex  8.652476e-001  2.662958e+000  3.900000e+000
    endloop
  endfacet
  facet normal  5.877852e-001  8.090171e-001  0.000000e+000
    outer loop
      vertex  8.652476e-001  2.662958e+000  5.000000e-001
      vertex  8.652476e-001  2.662958e+000  3.900000e+000
      vertex  2.265248e+000  1.645799e+000  5.000000e-001
    endloop
  endfacet
  facet normal  5.877852e-001  8.090171e-001  -0.000000e+000
    outer loop
      vertex  2.265248e+000  1.645799e+000  5.000000e-001
      vertex  8.652476e-001  2.662958e+000  3.900000e+000
      vertex  2.265248e+000  1.645799e+000  3.900000e+000
    endloop
  endfacet
  facet normal  9.510565e-001  3.090170e-001  0.000000e+000
    outer loop
      vertex  2.265248e+000  1.645799e+000  5.000000e-001
      vertex  2.265248e+000  1.645799e+000  3.900000e+000
      vertex  2.800000e+000  0.000000e+000  5.000000e-001
    endloop
  endfacet
  facet normal  9.510565e-001  3.090170e-001  -0.000000e+000
    outer loop
      vertex  2.800000e+000  0.000000e+000  5.000000e-001
      vertex  2.265248e+000  1.645799e+000  3.900000e+000
      vertex  2.800000e+000  0.000000e+000  3.900000e+000
    endloop
  endfacet
  facet normal  0.000000e+000  0.000000e+000 -1.000000e+000
    outer loop
      vertex  4.000000e+000  0.000000e+000  0.000000e+000
      vertex -3.236068e+000  2.351141e+000  0.000000e+000
      vertex  3.236068e+000  2.351141e+000  0.000000e+000
    endloop
  endfacet
  facet normal  0.000000e+000  0.000000e+000 -1.000000e+000
    outer loop
      vertex  3.236068e+000  2.351141e+000  0.000000e+000
      vertex -3.236068e+000  2.351141e+000  0.000000e+000
      vertex -1.236068e+000  3.804226e+000  0.000000e+000
    endloop
  endfacet
  facet normal  0.000000e+000  0.000000e+000 -9.999999e-001
    outer loop
      vertex  3.236068e+000  2.351141e+000  0.000000e+000
      vertex -1.236068e+000  3.804226e+000  0.000000e+000
      vertex  1.236068e+000  3.804226e+000  0.000000e+000
    endloop
  endfacet
  facet normal  0.000000e+000  0.000000e+000 -1.000000e+000
    outer loop
      vertex -3.236068e+000  2.351141e+000  0.000000e+000
      vertex  4.000000e+000  0.000000e+000  0.000000e+000
      vertex -4.000000e+000  4.898425e-016  0.000000e+000
    endloop
  endfacet
  facet normal  0.000000e+000  0.000000e+000 -1.000000e+000
    outer loop
      vertex -4.000000e+000  4.898425e-016  0.000000e+000
      vertex  4.000000e+000  0.000000e+000  0.000000e+000
      vertex  3.236068e+000 -2.351141e+000  0.000000e+000
    endloop
  endfacet
  facet normal  0.000000e+000  0.000000e+000 -1.000000e+000
    outer loop
      vertex -4.000000e+000  4.898425e-016  0.000000e+000
      vertex  3.236068e+000 -2.351141e+000  0.000000e+000
      vertex -3.236068e+000 -2.351141e+000  0.000000e+000
    endloop
  endfacet
  facet normal  0.000000e+000  0.000000e+000 -1.000000e+000
    outer loop
      vertex -3.236068e+000 -2.351141e+000  0.000000e+000
      vertex  3.236068e+000 -2.351141e+000  0.000000e+000
      vertex  1.236068e+000 -3.804226e+000  0.000000e+000
    endloop
  endfacet
  facet normal  0.000000e+000  0.000000e+000 -9.999999e-001
    outer loop
      vertex -3.236068e+000 -2.351141e+000  0.000000e+000
      vertex  1.236068e+000 -3.804226e+000  0.000000e+000
      vertex -1.236068e+000 -3.804226e+000  0.000000e+000
    endloop
  endfacet
  facet normal  9.510565e-001 -3.090170e-001  0.000000e+000
    outer loop
      vertex  4.000000e+000  0.000000e+000  0.000000e+000
      vertex  4.000000e+000  0.000000e+000  5.000000e-001
      vertex  3.236068e+000 -2.351141e+000  0.000000e+000
    endloop
  endfacet
  facet normal  9.510565e-001 -3.090170e-001  0.000000e+000
    outer loop
      vertex  3.236068e+000 -2.351141e+000  0.000000e+000
      vertex  4.000000e+000  0.000000e+000  5.000000e-001
      vertex  3.236068e+000 -2.351141e+000  5.000000e-001
    endloop
  endfacet
  facet normal  5.877853e-001 -8.090170e-001  0.000000e+000
    outer loop
      vertex  3.236068e+000 -2.351141e+000  0.000000e+000
      vertex  3.236068e+000 -2.351141e+000  5.000000e-001
      vertex  1.236068e+000 -3.804226e+000  0.000000e+000
    endloop
  endfacet
  facet normal  5.877853e-001 -8.090170e-001  0.000000e+000
    outer loop
      vertex  1.236068e+000 -3.804226e+000  0.000000e+000
      vertex  3.236068e+000 -2.351141e+000  5.000000e-001
      vertex  1.236068e+000 -3.804226e+000  5.000000e-001
    endloop
  endfacet
  facet normal  0.000000e+000 -1.000000e+000  -0.000000e+000
    outer loop
      vertex  1.236068e+000 -3.804226e+000  0.000000e+000
      vertex  1.236068e+000 -3.804226e+000  5.000000e-001
      vertex -1.236068e+000 -3.804226e+000  0.000000e+000
    endloop
  endfacet
  facet normal  0.000000e+000 -1.000000e+000  0.000000e+000
    outer loop
      vertex -1.236068e+000 -3.804226e+000  0.000000e+000
      vertex  1.236068e+000 -3.804226e+000  5.000000e-001
      vertex -1.236068e+000 -3.804226e+000  5.000000e-001
    endloop
  endfacet
  facet normal -5.877853e-001 -8.090170e-001  -0.000000e+000
    outer loop
      vertex -1.236068e+000 -3.804226e+000  0.000000e+000
      vertex -1.236068e+000 -3.804226e+000  5.000000e-001
      vertex -3.236068e+000 -2.351141e+000  0.000000e+000
    endloop
  endfacet
  facet normal -5.877853e-001 -8.090170e-001  0.000000e+000
    outer loop
      vertex -3.236068e+000 -2.351141e+000  0.000000e+000
      vertex -1.236068e+000 -3.804226e+000  5.000000e-001
      vertex -3.236068e+000 -2.351141e+000  5.000000e-001
    endloop
  endfacet
  facet normal -9.510565e-001 -3.090170e-001  -0.000000e+000
    outer loop
      vertex -3.236068e+000 -2.351141e+000  0.000000e+000
      vertex -3.236068e+000 -2.351141e+000  5.000000e-001
      vertex -4.000000e+000  4.898425e-016  0.000000e+000
    endloop
  endfacet
  facet normal -9.510565e-001 -3.090170e-001  0.000000e+000
    outer loop
      vertex -4.000000e+000  4.898425e-016  0.000000e+000
      vertex -3.236068e+000 -2.351141e+000  5.000000e-001
      vertex -4.000000e+000  4.898425e-016  5.000000e-001
    endloop
  endfacet
  facet normal -9.510565e-001  3.090170e-001  0.000000e+000
    outer loop
      vertex -4.000000e+000  4.898425e-016  0.000000e+000
      vertex -4.000000e+000  4.898425e-016  5.000000e-001
      vertex -3.236068e+000  2.351141e+000  0.000000e+000
    endloop
  endfacet
  facet normal -9.510565e-001  3.090170e-001  0.000000e+000
    outer loop
      vertex -3.236068e+000  2.351141e+000  0.000000e+000
      vertex -4.000000e+000  4.898425e-016  5.000000e-001
      vertex -3.236068e+000  2.351141e+000  5.000000e-001
    endloop
  endfacet
  facet normal -5.877853e-001  8.090170e-001  0.000000e+000
    outer loop
      vertex -3.236068e+000  2.351141e+000  0.000000e+000
      vertex -3.236068e+000  2.351141e+000  5.000000e-001
      vertex -1.236068e+000  3.804226e+000  0.000000e+000
    endloop
  endfacet
  facet normal -5.877853e-001  8.090170e-001  0.000000e+000
    outer loop
      vertex -1.236068e+000  3.804226e+000  0.000000e+000
      vertex -3.236068e+000  2.351141e+000  5.000000e-001
      vertex -1.236068e+000  3.804226e+000  5.000000e-001
    endloop
  endfacet
  facet normal  0.000000e+000  1.000000e+000  0.000000e+000
    outer loop
      vertex -1.236068e+000  3.804226e+000  0.000000e+000
      vertex -1.236068e+000  3.804226e+000  5.000000e-001
      vertex  1.236068e+000  3.804226e+000  0.000000e+000
    endloop
  endfacet
  facet normal  0.000000e+000  1.000000e+000  -0.000000e+000
    outer loop
      vertex  1.236068e+000  3.804226e+000  0.000000e+000
      vertex -1.236068e+000  3.804226e+000  5.000000e-001
      vertex  1.236068e+000  3.804226e+000  5.000000e-001
    endloop
  endfacet
  facet normal  5.877853e-001  8.090170e-001  0.000000e+000
    outer loop
      vertex  1.236068e+000  3.804226e+000  0.000000e+000
      vertex  1.236068e+000  3.804226e+000  5.000000e-001
      vertex  3.236068e+000  2.351141e+000  0.000000e+000
    endloop
  endfacet
  facet normal  5.877853e-001  8.090170e-001  -0.000000e+000
    outer loop
      vertex  3.236068e+000  2.351141e+000  0.000000e+000
      vertex  1.236068e+000  3.804226e+000  5.000000e-001
      vertex  3.236068e+000  2.351141e+000  5.000000e-001
    endloop
  endfacet
  facet normal  9.510565e-001  3.090170e-001  0.000000e+000
    outer loop
      vertex  3.236068e+000  2.351141e+000  0.000000e+000
      vertex  3.236068e+000  2.351141e+000  5.000000e-001
      vertex  4.000000e+000  0.000000e+000  0.000000e+000
    endloop
  endfacet
  facet normal  9.510565e-001  3.090170e-001  -0.000000e+000
    outer loop
      vertex  4.000000e+000  0.000000e+000  0.000000e+000
      vertex  3.236068e+000  2.351141e+000  5.000000e-001
      vertex  4.000000e+000  0.000000e+000  5.000000e-001
    endloop
  endfacet
endsolid CATIA STL
